%TF.GenerationSoftware,KiCad,Pcbnew,5.1.9+dfsg1-1~bpo10+1*%
%TF.CreationDate,2023-02-12T08:43:59+01:00*%
%TF.ProjectId,IIci_ATX,49496369-5f41-4545-982e-6b696361645f,rev?*%
%TF.SameCoordinates,Original*%
%TF.FileFunction,Soldermask,Top*%
%TF.FilePolarity,Negative*%
%FSLAX46Y46*%
G04 Gerber Fmt 4.6, Leading zero omitted, Abs format (unit mm)*
G04 Created by KiCad (PCBNEW 5.1.9+dfsg1-1~bpo10+1) date 2023-02-12 08:43:59*
%MOMM*%
%LPD*%
G01*
G04 APERTURE LIST*
%ADD10C,0.010000*%
%ADD11C,1.026200*%
%ADD12C,1.576200*%
%ADD13C,3.000000*%
%ADD14R,1.060000X0.650000*%
%ADD15C,1.308000*%
%ADD16C,2.250000*%
G04 APERTURE END LIST*
D10*
%TO.C,J1*%
G36*
X142873800Y-119273800D02*
G01*
X144926200Y-119273800D01*
X144926200Y-121326200D01*
X142873800Y-121326200D01*
X142873800Y-119273800D01*
G37*
X142873800Y-119273800D02*
X144926200Y-119273800D01*
X144926200Y-121326200D01*
X142873800Y-121326200D01*
X142873800Y-119273800D01*
D11*
X140213100Y-120300000D02*
G75*
G03*
X140213100Y-120300000I-513100J0D01*
G01*
X136013100Y-120300000D02*
G75*
G03*
X136013100Y-120300000I-513100J0D01*
G01*
X131813100Y-120300000D02*
G75*
G03*
X131813100Y-120300000I-513100J0D01*
G01*
X127613100Y-120300000D02*
G75*
G03*
X127613100Y-120300000I-513100J0D01*
G01*
X123413100Y-120300000D02*
G75*
G03*
X123413100Y-120300000I-513100J0D01*
G01*
X119213100Y-120300000D02*
G75*
G03*
X119213100Y-120300000I-513100J0D01*
G01*
X115013100Y-120300000D02*
G75*
G03*
X115013100Y-120300000I-513100J0D01*
G01*
X110813100Y-120300000D02*
G75*
G03*
X110813100Y-120300000I-513100J0D01*
G01*
X106613100Y-120300000D02*
G75*
G03*
X106613100Y-120300000I-513100J0D01*
G01*
X102413100Y-120300000D02*
G75*
G03*
X102413100Y-120300000I-513100J0D01*
G01*
X98213100Y-120300000D02*
G75*
G03*
X98213100Y-120300000I-513100J0D01*
G01*
X144413100Y-114800000D02*
G75*
G03*
X144413100Y-114800000I-513100J0D01*
G01*
X140213100Y-114800000D02*
G75*
G03*
X140213100Y-114800000I-513100J0D01*
G01*
X136013100Y-114800000D02*
G75*
G03*
X136013100Y-114800000I-513100J0D01*
G01*
X131813100Y-114800000D02*
G75*
G03*
X131813100Y-114800000I-513100J0D01*
G01*
X127613100Y-114800000D02*
G75*
G03*
X127613100Y-114800000I-513100J0D01*
G01*
X123413100Y-114800000D02*
G75*
G03*
X123413100Y-114800000I-513100J0D01*
G01*
X119213100Y-114800000D02*
G75*
G03*
X119213100Y-114800000I-513100J0D01*
G01*
X115013100Y-114800000D02*
G75*
G03*
X115013100Y-114800000I-513100J0D01*
G01*
X110813100Y-114800000D02*
G75*
G03*
X110813100Y-114800000I-513100J0D01*
G01*
X106613100Y-114800000D02*
G75*
G03*
X106613100Y-114800000I-513100J0D01*
G01*
X102413100Y-114800000D02*
G75*
G03*
X102413100Y-114800000I-513100J0D01*
G01*
X98213100Y-114800000D02*
G75*
G03*
X98213100Y-114800000I-513100J0D01*
G01*
D12*
X93788100Y-115260000D02*
G75*
G03*
X93788100Y-115260000I-788100J0D01*
G01*
X149388100Y-115260000D02*
G75*
G03*
X149388100Y-115260000I-788100J0D01*
G01*
D11*
%TO.C,J2*%
X128013100Y-130000000D02*
G75*
G03*
X128013100Y-130000000I-513100J0D01*
G01*
X132213100Y-130000000D02*
G75*
G03*
X132213100Y-130000000I-513100J0D01*
G01*
X136413100Y-130000000D02*
G75*
G03*
X136413100Y-130000000I-513100J0D01*
G01*
X128013100Y-135500000D02*
G75*
G03*
X128013100Y-135500000I-513100J0D01*
G01*
X132213100Y-135500000D02*
G75*
G03*
X132213100Y-135500000I-513100J0D01*
G01*
X136413100Y-135500000D02*
G75*
G03*
X136413100Y-135500000I-513100J0D01*
G01*
D12*
X123588100Y-129440000D02*
G75*
G03*
X123588100Y-129440000I-788100J0D01*
G01*
X149788100Y-129440000D02*
G75*
G03*
X149788100Y-129440000I-788100J0D01*
G01*
D11*
X140613100Y-130000000D02*
G75*
G03*
X140613100Y-130000000I-513100J0D01*
G01*
X144813100Y-130000000D02*
G75*
G03*
X144813100Y-130000000I-513100J0D01*
G01*
X140613100Y-135500000D02*
G75*
G03*
X140613100Y-135500000I-513100J0D01*
G01*
D10*
G36*
X145326200Y-134473800D02*
G01*
X143273800Y-134473800D01*
X143273800Y-136526200D01*
X145326200Y-136526200D01*
X145326200Y-134473800D01*
G37*
X145326200Y-134473800D02*
X143273800Y-134473800D01*
X143273800Y-136526200D01*
X145326200Y-136526200D01*
X145326200Y-134473800D01*
%TD*%
%TO.C,R3*%
G36*
G01*
X111025000Y-125925000D02*
X111025000Y-125375000D01*
G75*
G02*
X111225000Y-125175000I200000J0D01*
G01*
X111625000Y-125175000D01*
G75*
G02*
X111825000Y-125375000I0J-200000D01*
G01*
X111825000Y-125925000D01*
G75*
G02*
X111625000Y-126125000I-200000J0D01*
G01*
X111225000Y-126125000D01*
G75*
G02*
X111025000Y-125925000I0J200000D01*
G01*
G37*
G36*
G01*
X109375000Y-125925000D02*
X109375000Y-125375000D01*
G75*
G02*
X109575000Y-125175000I200000J0D01*
G01*
X109975000Y-125175000D01*
G75*
G02*
X110175000Y-125375000I0J-200000D01*
G01*
X110175000Y-125925000D01*
G75*
G02*
X109975000Y-126125000I-200000J0D01*
G01*
X109575000Y-126125000D01*
G75*
G02*
X109375000Y-125925000I0J200000D01*
G01*
G37*
%TD*%
%TO.C,R2*%
G36*
G01*
X97575000Y-135225000D02*
X97575000Y-135775000D01*
G75*
G02*
X97375000Y-135975000I-200000J0D01*
G01*
X96975000Y-135975000D01*
G75*
G02*
X96775000Y-135775000I0J200000D01*
G01*
X96775000Y-135225000D01*
G75*
G02*
X96975000Y-135025000I200000J0D01*
G01*
X97375000Y-135025000D01*
G75*
G02*
X97575000Y-135225000I0J-200000D01*
G01*
G37*
G36*
G01*
X99225000Y-135225000D02*
X99225000Y-135775000D01*
G75*
G02*
X99025000Y-135975000I-200000J0D01*
G01*
X98625000Y-135975000D01*
G75*
G02*
X98425000Y-135775000I0J200000D01*
G01*
X98425000Y-135225000D01*
G75*
G02*
X98625000Y-135025000I200000J0D01*
G01*
X99025000Y-135025000D01*
G75*
G02*
X99225000Y-135225000I0J-200000D01*
G01*
G37*
%TD*%
D13*
%TO.C,J1*%
X148600000Y-115260000D03*
X93000000Y-115260000D03*
%TD*%
%TO.C,D1*%
G36*
G01*
X94450000Y-135956250D02*
X94450000Y-135043750D01*
G75*
G02*
X94693750Y-134800000I243750J0D01*
G01*
X95181250Y-134800000D01*
G75*
G02*
X95425000Y-135043750I0J-243750D01*
G01*
X95425000Y-135956250D01*
G75*
G02*
X95181250Y-136200000I-243750J0D01*
G01*
X94693750Y-136200000D01*
G75*
G02*
X94450000Y-135956250I0J243750D01*
G01*
G37*
G36*
G01*
X92575000Y-135956250D02*
X92575000Y-135043750D01*
G75*
G02*
X92818750Y-134800000I243750J0D01*
G01*
X93306250Y-134800000D01*
G75*
G02*
X93550000Y-135043750I0J-243750D01*
G01*
X93550000Y-135956250D01*
G75*
G02*
X93306250Y-136200000I-243750J0D01*
G01*
X92818750Y-136200000D01*
G75*
G02*
X92575000Y-135956250I0J243750D01*
G01*
G37*
%TD*%
D14*
%TO.C,U2*%
X114700000Y-127550000D03*
X114700000Y-125650000D03*
X116900000Y-125650000D03*
X116900000Y-126600000D03*
X116900000Y-127550000D03*
%TD*%
%TO.C,R1*%
G36*
G01*
X119475000Y-125350000D02*
X118925000Y-125350000D01*
G75*
G02*
X118725000Y-125150000I0J200000D01*
G01*
X118725000Y-124750000D01*
G75*
G02*
X118925000Y-124550000I200000J0D01*
G01*
X119475000Y-124550000D01*
G75*
G02*
X119675000Y-124750000I0J-200000D01*
G01*
X119675000Y-125150000D01*
G75*
G02*
X119475000Y-125350000I-200000J0D01*
G01*
G37*
G36*
G01*
X119475000Y-127000000D02*
X118925000Y-127000000D01*
G75*
G02*
X118725000Y-126800000I0J200000D01*
G01*
X118725000Y-126400000D01*
G75*
G02*
X118925000Y-126200000I200000J0D01*
G01*
X119475000Y-126200000D01*
G75*
G02*
X119675000Y-126400000I0J-200000D01*
G01*
X119675000Y-126800000D01*
G75*
G02*
X119475000Y-127000000I-200000J0D01*
G01*
G37*
%TD*%
%TO.C,C1*%
G36*
G01*
X115150000Y-129550000D02*
X115150000Y-130050000D01*
G75*
G02*
X114925000Y-130275000I-225000J0D01*
G01*
X114475000Y-130275000D01*
G75*
G02*
X114250000Y-130050000I0J225000D01*
G01*
X114250000Y-129550000D01*
G75*
G02*
X114475000Y-129325000I225000J0D01*
G01*
X114925000Y-129325000D01*
G75*
G02*
X115150000Y-129550000I0J-225000D01*
G01*
G37*
G36*
G01*
X116700000Y-129550000D02*
X116700000Y-130050000D01*
G75*
G02*
X116475000Y-130275000I-225000J0D01*
G01*
X116025000Y-130275000D01*
G75*
G02*
X115800000Y-130050000I0J225000D01*
G01*
X115800000Y-129550000D01*
G75*
G02*
X116025000Y-129325000I225000J0D01*
G01*
X116475000Y-129325000D01*
G75*
G02*
X116700000Y-129550000I0J-225000D01*
G01*
G37*
%TD*%
D15*
%TO.C,U1*%
X109000000Y-134200000D03*
X113000000Y-134200000D03*
X111000000Y-134200000D03*
D16*
X115100000Y-134200000D03*
X106900000Y-134200000D03*
%TD*%
D13*
%TO.C,J2*%
X122800000Y-129440000D03*
X149000000Y-129440000D03*
%TD*%
M02*
