%TF.GenerationSoftware,KiCad,Pcbnew,5.1.9+dfsg1-1~bpo10+1*%
%TF.CreationDate,2023-02-12T08:43:59+01:00*%
%TF.ProjectId,IIci_ATX,49496369-5f41-4545-982e-6b696361645f,rev?*%
%TF.SameCoordinates,Original*%
%TF.FileFunction,Copper,L2,Inr*%
%TF.FilePolarity,Positive*%
%FSLAX46Y46*%
G04 Gerber Fmt 4.6, Leading zero omitted, Abs format (unit mm)*
G04 Created by KiCad (PCBNEW 5.1.9+dfsg1-1~bpo10+1) date 2023-02-12 08:43:59*
%MOMM*%
%LPD*%
G01*
G04 APERTURE LIST*
%TA.AperFunction,ComponentPad*%
%ADD10C,1.900000*%
%TD*%
%TA.AperFunction,ComponentPad*%
%ADD11R,1.900000X1.900000*%
%TD*%
%TA.AperFunction,ComponentPad*%
%ADD12C,1.308000*%
%TD*%
%TA.AperFunction,ComponentPad*%
%ADD13C,2.250000*%
%TD*%
%TA.AperFunction,ViaPad*%
%ADD14C,0.800000*%
%TD*%
%TA.AperFunction,Conductor*%
%ADD15C,0.254000*%
%TD*%
%TA.AperFunction,Conductor*%
%ADD16C,0.100000*%
%TD*%
G04 APERTURE END LIST*
D10*
%TO.N,GND*%
%TO.C,J1*%
X97700000Y-114800000D03*
%TO.N,+5V*%
X101900000Y-114800000D03*
X106100000Y-114800000D03*
X110300000Y-114800000D03*
%TO.N,Net-(J1-Pad20)*%
X114500000Y-114800000D03*
%TO.N,GND*%
X118700000Y-114800000D03*
X122900000Y-114800000D03*
X127100000Y-114800000D03*
%TO.N,~PS-ON*%
X131300000Y-114800000D03*
%TO.N,GND*%
X135500000Y-114800000D03*
%TO.N,-12V*%
X139700000Y-114800000D03*
%TO.N,Net-(J1-Pad13)*%
X143900000Y-114800000D03*
%TO.N,Net-(J1-Pad12)*%
X97700000Y-120300000D03*
%TO.N,+12V*%
X101900000Y-120300000D03*
X106100000Y-120300000D03*
%TO.N,+5VD*%
X110300000Y-120300000D03*
%TO.N,PGOOD*%
X114500000Y-120300000D03*
%TO.N,GND*%
X118700000Y-120300000D03*
%TO.N,+5V*%
X122900000Y-120300000D03*
%TO.N,GND*%
X127100000Y-120300000D03*
%TO.N,+5V*%
X131300000Y-120300000D03*
%TO.N,GND*%
X135500000Y-120300000D03*
%TO.N,Net-(J1-Pad2)*%
X139700000Y-120300000D03*
D11*
%TO.N,Net-(J1-Pad1)*%
X143900000Y-120300000D03*
%TD*%
D12*
%TO.N,GND*%
%TO.C,U1*%
X109000000Y-134200000D03*
%TO.N,~MAC-ON*%
X113000000Y-134200000D03*
%TO.N,~PS-ON*%
X111000000Y-134200000D03*
D13*
%TO.N,GND*%
X115100000Y-134200000D03*
X106900000Y-134200000D03*
%TD*%
D10*
%TO.N,+5VD*%
%TO.C,J2*%
X127500000Y-130000000D03*
%TO.N,MAC-ON*%
X131700000Y-130000000D03*
%TO.N,-12V*%
X135900000Y-130000000D03*
%TO.N,GND*%
X127500000Y-135500000D03*
%TO.N,+5V*%
X131700000Y-135500000D03*
X135900000Y-135500000D03*
%TO.N,GND*%
X140100000Y-130000000D03*
X144300000Y-130000000D03*
%TO.N,+5V*%
X140100000Y-135500000D03*
D11*
%TO.N,+12V*%
X144300000Y-135500000D03*
%TD*%
D14*
%TO.N,GND*%
X100000000Y-132000000D03*
X119000000Y-130000000D03*
X113000000Y-124500000D03*
%TD*%
D15*
%TO.N,+5V*%
X151064001Y-137864000D02*
X90536000Y-137864000D01*
X90536000Y-134038868D01*
X105264000Y-134038868D01*
X105264000Y-134361132D01*
X105326870Y-134677204D01*
X105450196Y-134974937D01*
X105629236Y-135242889D01*
X105857111Y-135470764D01*
X106125063Y-135649804D01*
X106422796Y-135773130D01*
X106738868Y-135836000D01*
X107061132Y-135836000D01*
X107377204Y-135773130D01*
X107674937Y-135649804D01*
X107942889Y-135470764D01*
X108170764Y-135242889D01*
X108261227Y-135107502D01*
X108448166Y-135232410D01*
X108660182Y-135320230D01*
X108885258Y-135365000D01*
X109114742Y-135365000D01*
X109339818Y-135320230D01*
X109551834Y-135232410D01*
X109742644Y-135104915D01*
X109904915Y-134942644D01*
X110000000Y-134800339D01*
X110095085Y-134942644D01*
X110257356Y-135104915D01*
X110448166Y-135232410D01*
X110660182Y-135320230D01*
X110885258Y-135365000D01*
X111114742Y-135365000D01*
X111339818Y-135320230D01*
X111551834Y-135232410D01*
X111742644Y-135104915D01*
X111904915Y-134942644D01*
X112000000Y-134800339D01*
X112095085Y-134942644D01*
X112257356Y-135104915D01*
X112448166Y-135232410D01*
X112660182Y-135320230D01*
X112885258Y-135365000D01*
X113114742Y-135365000D01*
X113339818Y-135320230D01*
X113551834Y-135232410D01*
X113738773Y-135107502D01*
X113829236Y-135242889D01*
X114057111Y-135470764D01*
X114325063Y-135649804D01*
X114622796Y-135773130D01*
X114938868Y-135836000D01*
X115261132Y-135836000D01*
X115577204Y-135773130D01*
X115874937Y-135649804D01*
X116142889Y-135470764D01*
X116257549Y-135356104D01*
X126039000Y-135356104D01*
X126039000Y-135643896D01*
X126095146Y-135926158D01*
X126205279Y-136192043D01*
X126365167Y-136431333D01*
X126568667Y-136634833D01*
X126807957Y-136794721D01*
X127073842Y-136904854D01*
X127356104Y-136961000D01*
X127643896Y-136961000D01*
X127926158Y-136904854D01*
X128192043Y-136794721D01*
X128431333Y-136634833D01*
X128532879Y-136533287D01*
X130846318Y-136533287D01*
X130943071Y-136757889D01*
X131203017Y-136881388D01*
X131482062Y-136951801D01*
X131769482Y-136966423D01*
X132054232Y-136924690D01*
X132325369Y-136828207D01*
X132456929Y-136757889D01*
X132553682Y-136533287D01*
X135046318Y-136533287D01*
X135143071Y-136757889D01*
X135403017Y-136881388D01*
X135682062Y-136951801D01*
X135969482Y-136966423D01*
X136254232Y-136924690D01*
X136525369Y-136828207D01*
X136656929Y-136757889D01*
X136753682Y-136533287D01*
X139246318Y-136533287D01*
X139343071Y-136757889D01*
X139603017Y-136881388D01*
X139882062Y-136951801D01*
X140169482Y-136966423D01*
X140454232Y-136924690D01*
X140725369Y-136828207D01*
X140856929Y-136757889D01*
X140953682Y-136533287D01*
X140100000Y-135679605D01*
X139246318Y-136533287D01*
X136753682Y-136533287D01*
X135900000Y-135679605D01*
X135046318Y-136533287D01*
X132553682Y-136533287D01*
X131700000Y-135679605D01*
X130846318Y-136533287D01*
X128532879Y-136533287D01*
X128634833Y-136431333D01*
X128794721Y-136192043D01*
X128904854Y-135926158D01*
X128961000Y-135643896D01*
X128961000Y-135569482D01*
X130233577Y-135569482D01*
X130275310Y-135854232D01*
X130371793Y-136125369D01*
X130442111Y-136256929D01*
X130666713Y-136353682D01*
X131520395Y-135500000D01*
X131879605Y-135500000D01*
X132733287Y-136353682D01*
X132957889Y-136256929D01*
X133081388Y-135996983D01*
X133151801Y-135717938D01*
X133159353Y-135569482D01*
X134433577Y-135569482D01*
X134475310Y-135854232D01*
X134571793Y-136125369D01*
X134642111Y-136256929D01*
X134866713Y-136353682D01*
X135720395Y-135500000D01*
X136079605Y-135500000D01*
X136933287Y-136353682D01*
X137157889Y-136256929D01*
X137281388Y-135996983D01*
X137351801Y-135717938D01*
X137359353Y-135569482D01*
X138633577Y-135569482D01*
X138675310Y-135854232D01*
X138771793Y-136125369D01*
X138842111Y-136256929D01*
X139066713Y-136353682D01*
X139920395Y-135500000D01*
X140279605Y-135500000D01*
X141133287Y-136353682D01*
X141357889Y-136256929D01*
X141481388Y-135996983D01*
X141551801Y-135717938D01*
X141566423Y-135430518D01*
X141524690Y-135145768D01*
X141428207Y-134874631D01*
X141357889Y-134743071D01*
X141133287Y-134646318D01*
X140279605Y-135500000D01*
X139920395Y-135500000D01*
X139066713Y-134646318D01*
X138842111Y-134743071D01*
X138718612Y-135003017D01*
X138648199Y-135282062D01*
X138633577Y-135569482D01*
X137359353Y-135569482D01*
X137366423Y-135430518D01*
X137324690Y-135145768D01*
X137228207Y-134874631D01*
X137157889Y-134743071D01*
X136933287Y-134646318D01*
X136079605Y-135500000D01*
X135720395Y-135500000D01*
X134866713Y-134646318D01*
X134642111Y-134743071D01*
X134518612Y-135003017D01*
X134448199Y-135282062D01*
X134433577Y-135569482D01*
X133159353Y-135569482D01*
X133166423Y-135430518D01*
X133124690Y-135145768D01*
X133028207Y-134874631D01*
X132957889Y-134743071D01*
X132733287Y-134646318D01*
X131879605Y-135500000D01*
X131520395Y-135500000D01*
X130666713Y-134646318D01*
X130442111Y-134743071D01*
X130318612Y-135003017D01*
X130248199Y-135282062D01*
X130233577Y-135569482D01*
X128961000Y-135569482D01*
X128961000Y-135356104D01*
X128904854Y-135073842D01*
X128794721Y-134807957D01*
X128634833Y-134568667D01*
X128532879Y-134466713D01*
X130846318Y-134466713D01*
X131700000Y-135320395D01*
X132553682Y-134466713D01*
X135046318Y-134466713D01*
X135900000Y-135320395D01*
X136753682Y-134466713D01*
X139246318Y-134466713D01*
X140100000Y-135320395D01*
X140870395Y-134550000D01*
X142836528Y-134550000D01*
X142836528Y-136450000D01*
X142846394Y-136550173D01*
X142875614Y-136646497D01*
X142923064Y-136735270D01*
X142986920Y-136813080D01*
X143064730Y-136876936D01*
X143153503Y-136924386D01*
X143249827Y-136953606D01*
X143350000Y-136963472D01*
X145250000Y-136963472D01*
X145350173Y-136953606D01*
X145446497Y-136924386D01*
X145535270Y-136876936D01*
X145613080Y-136813080D01*
X145676936Y-136735270D01*
X145724386Y-136646497D01*
X145753606Y-136550173D01*
X145763472Y-136450000D01*
X145763472Y-134550000D01*
X145753606Y-134449827D01*
X145724386Y-134353503D01*
X145676936Y-134264730D01*
X145613080Y-134186920D01*
X145535270Y-134123064D01*
X145446497Y-134075614D01*
X145350173Y-134046394D01*
X145250000Y-134036528D01*
X143350000Y-134036528D01*
X143249827Y-134046394D01*
X143153503Y-134075614D01*
X143064730Y-134123064D01*
X142986920Y-134186920D01*
X142923064Y-134264730D01*
X142875614Y-134353503D01*
X142846394Y-134449827D01*
X142836528Y-134550000D01*
X140870395Y-134550000D01*
X140953682Y-134466713D01*
X140856929Y-134242111D01*
X140596983Y-134118612D01*
X140317938Y-134048199D01*
X140030518Y-134033577D01*
X139745768Y-134075310D01*
X139474631Y-134171793D01*
X139343071Y-134242111D01*
X139246318Y-134466713D01*
X136753682Y-134466713D01*
X136656929Y-134242111D01*
X136396983Y-134118612D01*
X136117938Y-134048199D01*
X135830518Y-134033577D01*
X135545768Y-134075310D01*
X135274631Y-134171793D01*
X135143071Y-134242111D01*
X135046318Y-134466713D01*
X132553682Y-134466713D01*
X132456929Y-134242111D01*
X132196983Y-134118612D01*
X131917938Y-134048199D01*
X131630518Y-134033577D01*
X131345768Y-134075310D01*
X131074631Y-134171793D01*
X130943071Y-134242111D01*
X130846318Y-134466713D01*
X128532879Y-134466713D01*
X128431333Y-134365167D01*
X128192043Y-134205279D01*
X127926158Y-134095146D01*
X127643896Y-134039000D01*
X127356104Y-134039000D01*
X127073842Y-134095146D01*
X126807957Y-134205279D01*
X126568667Y-134365167D01*
X126365167Y-134568667D01*
X126205279Y-134807957D01*
X126095146Y-135073842D01*
X126039000Y-135356104D01*
X116257549Y-135356104D01*
X116370764Y-135242889D01*
X116549804Y-134974937D01*
X116673130Y-134677204D01*
X116736000Y-134361132D01*
X116736000Y-134038868D01*
X116673130Y-133722796D01*
X116549804Y-133425063D01*
X116370764Y-133157111D01*
X116142889Y-132929236D01*
X115874937Y-132750196D01*
X115577204Y-132626870D01*
X115261132Y-132564000D01*
X114938868Y-132564000D01*
X114622796Y-132626870D01*
X114325063Y-132750196D01*
X114057111Y-132929236D01*
X113829236Y-133157111D01*
X113738773Y-133292498D01*
X113551834Y-133167590D01*
X113339818Y-133079770D01*
X113114742Y-133035000D01*
X112885258Y-133035000D01*
X112660182Y-133079770D01*
X112448166Y-133167590D01*
X112257356Y-133295085D01*
X112095085Y-133457356D01*
X112000000Y-133599661D01*
X111904915Y-133457356D01*
X111742644Y-133295085D01*
X111551834Y-133167590D01*
X111339818Y-133079770D01*
X111114742Y-133035000D01*
X110885258Y-133035000D01*
X110660182Y-133079770D01*
X110448166Y-133167590D01*
X110257356Y-133295085D01*
X110095085Y-133457356D01*
X110000000Y-133599661D01*
X109904915Y-133457356D01*
X109742644Y-133295085D01*
X109551834Y-133167590D01*
X109339818Y-133079770D01*
X109114742Y-133035000D01*
X108885258Y-133035000D01*
X108660182Y-133079770D01*
X108448166Y-133167590D01*
X108261227Y-133292498D01*
X108170764Y-133157111D01*
X107942889Y-132929236D01*
X107674937Y-132750196D01*
X107377204Y-132626870D01*
X107061132Y-132564000D01*
X106738868Y-132564000D01*
X106422796Y-132626870D01*
X106125063Y-132750196D01*
X105857111Y-132929236D01*
X105629236Y-133157111D01*
X105450196Y-133425063D01*
X105326870Y-133722796D01*
X105264000Y-134038868D01*
X90536000Y-134038868D01*
X90536000Y-131910274D01*
X99089000Y-131910274D01*
X99089000Y-132089726D01*
X99124009Y-132265729D01*
X99192682Y-132431520D01*
X99292380Y-132580729D01*
X99419271Y-132707620D01*
X99568480Y-132807318D01*
X99734271Y-132875991D01*
X99910274Y-132911000D01*
X100089726Y-132911000D01*
X100265729Y-132875991D01*
X100431520Y-132807318D01*
X100580729Y-132707620D01*
X100707620Y-132580729D01*
X100807318Y-132431520D01*
X100875991Y-132265729D01*
X100911000Y-132089726D01*
X100911000Y-131910274D01*
X100875991Y-131734271D01*
X100807318Y-131568480D01*
X100707620Y-131419271D01*
X100580729Y-131292380D01*
X100431520Y-131192682D01*
X100265729Y-131124009D01*
X100089726Y-131089000D01*
X99910274Y-131089000D01*
X99734271Y-131124009D01*
X99568480Y-131192682D01*
X99419271Y-131292380D01*
X99292380Y-131419271D01*
X99192682Y-131568480D01*
X99124009Y-131734271D01*
X99089000Y-131910274D01*
X90536000Y-131910274D01*
X90536000Y-129910274D01*
X118089000Y-129910274D01*
X118089000Y-130089726D01*
X118124009Y-130265729D01*
X118192682Y-130431520D01*
X118292380Y-130580729D01*
X118419271Y-130707620D01*
X118568480Y-130807318D01*
X118734271Y-130875991D01*
X118910274Y-130911000D01*
X119089726Y-130911000D01*
X119265729Y-130875991D01*
X119431520Y-130807318D01*
X119580729Y-130707620D01*
X119707620Y-130580729D01*
X119807318Y-130431520D01*
X119875991Y-130265729D01*
X119911000Y-130089726D01*
X119911000Y-129910274D01*
X119875991Y-129734271D01*
X119807318Y-129568480D01*
X119707620Y-129419271D01*
X119580729Y-129292380D01*
X119505232Y-129241934D01*
X120789000Y-129241934D01*
X120789000Y-129638066D01*
X120866282Y-130026587D01*
X121017875Y-130392566D01*
X121237955Y-130721938D01*
X121518062Y-131002045D01*
X121847434Y-131222125D01*
X122213413Y-131373718D01*
X122601934Y-131451000D01*
X122998066Y-131451000D01*
X123386587Y-131373718D01*
X123752566Y-131222125D01*
X124081938Y-131002045D01*
X124362045Y-130721938D01*
X124582125Y-130392566D01*
X124733718Y-130026587D01*
X124767629Y-129856104D01*
X126039000Y-129856104D01*
X126039000Y-130143896D01*
X126095146Y-130426158D01*
X126205279Y-130692043D01*
X126365167Y-130931333D01*
X126568667Y-131134833D01*
X126807957Y-131294721D01*
X127073842Y-131404854D01*
X127356104Y-131461000D01*
X127643896Y-131461000D01*
X127926158Y-131404854D01*
X128192043Y-131294721D01*
X128431333Y-131134833D01*
X128634833Y-130931333D01*
X128794721Y-130692043D01*
X128904854Y-130426158D01*
X128961000Y-130143896D01*
X128961000Y-129856104D01*
X130239000Y-129856104D01*
X130239000Y-130143896D01*
X130295146Y-130426158D01*
X130405279Y-130692043D01*
X130565167Y-130931333D01*
X130768667Y-131134833D01*
X131007957Y-131294721D01*
X131273842Y-131404854D01*
X131556104Y-131461000D01*
X131843896Y-131461000D01*
X132126158Y-131404854D01*
X132392043Y-131294721D01*
X132631333Y-131134833D01*
X132834833Y-130931333D01*
X132994721Y-130692043D01*
X133104854Y-130426158D01*
X133161000Y-130143896D01*
X133161000Y-129856104D01*
X134439000Y-129856104D01*
X134439000Y-130143896D01*
X134495146Y-130426158D01*
X134605279Y-130692043D01*
X134765167Y-130931333D01*
X134968667Y-131134833D01*
X135207957Y-131294721D01*
X135473842Y-131404854D01*
X135756104Y-131461000D01*
X136043896Y-131461000D01*
X136326158Y-131404854D01*
X136592043Y-131294721D01*
X136831333Y-131134833D01*
X137034833Y-130931333D01*
X137194721Y-130692043D01*
X137304854Y-130426158D01*
X137361000Y-130143896D01*
X137361000Y-129856104D01*
X138639000Y-129856104D01*
X138639000Y-130143896D01*
X138695146Y-130426158D01*
X138805279Y-130692043D01*
X138965167Y-130931333D01*
X139168667Y-131134833D01*
X139407957Y-131294721D01*
X139673842Y-131404854D01*
X139956104Y-131461000D01*
X140243896Y-131461000D01*
X140526158Y-131404854D01*
X140792043Y-131294721D01*
X141031333Y-131134833D01*
X141234833Y-130931333D01*
X141394721Y-130692043D01*
X141504854Y-130426158D01*
X141561000Y-130143896D01*
X141561000Y-129856104D01*
X142839000Y-129856104D01*
X142839000Y-130143896D01*
X142895146Y-130426158D01*
X143005279Y-130692043D01*
X143165167Y-130931333D01*
X143368667Y-131134833D01*
X143607957Y-131294721D01*
X143873842Y-131404854D01*
X144156104Y-131461000D01*
X144443896Y-131461000D01*
X144726158Y-131404854D01*
X144992043Y-131294721D01*
X145231333Y-131134833D01*
X145434833Y-130931333D01*
X145594721Y-130692043D01*
X145704854Y-130426158D01*
X145761000Y-130143896D01*
X145761000Y-129856104D01*
X145704854Y-129573842D01*
X145594721Y-129307957D01*
X145550606Y-129241934D01*
X146989000Y-129241934D01*
X146989000Y-129638066D01*
X147066282Y-130026587D01*
X147217875Y-130392566D01*
X147437955Y-130721938D01*
X147718062Y-131002045D01*
X148047434Y-131222125D01*
X148413413Y-131373718D01*
X148801934Y-131451000D01*
X149198066Y-131451000D01*
X149586587Y-131373718D01*
X149952566Y-131222125D01*
X150281938Y-131002045D01*
X150562045Y-130721938D01*
X150782125Y-130392566D01*
X150933718Y-130026587D01*
X151011000Y-129638066D01*
X151011000Y-129241934D01*
X150933718Y-128853413D01*
X150782125Y-128487434D01*
X150562045Y-128158062D01*
X150281938Y-127877955D01*
X149952566Y-127657875D01*
X149586587Y-127506282D01*
X149198066Y-127429000D01*
X148801934Y-127429000D01*
X148413413Y-127506282D01*
X148047434Y-127657875D01*
X147718062Y-127877955D01*
X147437955Y-128158062D01*
X147217875Y-128487434D01*
X147066282Y-128853413D01*
X146989000Y-129241934D01*
X145550606Y-129241934D01*
X145434833Y-129068667D01*
X145231333Y-128865167D01*
X144992043Y-128705279D01*
X144726158Y-128595146D01*
X144443896Y-128539000D01*
X144156104Y-128539000D01*
X143873842Y-128595146D01*
X143607957Y-128705279D01*
X143368667Y-128865167D01*
X143165167Y-129068667D01*
X143005279Y-129307957D01*
X142895146Y-129573842D01*
X142839000Y-129856104D01*
X141561000Y-129856104D01*
X141504854Y-129573842D01*
X141394721Y-129307957D01*
X141234833Y-129068667D01*
X141031333Y-128865167D01*
X140792043Y-128705279D01*
X140526158Y-128595146D01*
X140243896Y-128539000D01*
X139956104Y-128539000D01*
X139673842Y-128595146D01*
X139407957Y-128705279D01*
X139168667Y-128865167D01*
X138965167Y-129068667D01*
X138805279Y-129307957D01*
X138695146Y-129573842D01*
X138639000Y-129856104D01*
X137361000Y-129856104D01*
X137304854Y-129573842D01*
X137194721Y-129307957D01*
X137034833Y-129068667D01*
X136831333Y-128865167D01*
X136592043Y-128705279D01*
X136326158Y-128595146D01*
X136043896Y-128539000D01*
X135756104Y-128539000D01*
X135473842Y-128595146D01*
X135207957Y-128705279D01*
X134968667Y-128865167D01*
X134765167Y-129068667D01*
X134605279Y-129307957D01*
X134495146Y-129573842D01*
X134439000Y-129856104D01*
X133161000Y-129856104D01*
X133104854Y-129573842D01*
X132994721Y-129307957D01*
X132834833Y-129068667D01*
X132631333Y-128865167D01*
X132392043Y-128705279D01*
X132126158Y-128595146D01*
X131843896Y-128539000D01*
X131556104Y-128539000D01*
X131273842Y-128595146D01*
X131007957Y-128705279D01*
X130768667Y-128865167D01*
X130565167Y-129068667D01*
X130405279Y-129307957D01*
X130295146Y-129573842D01*
X130239000Y-129856104D01*
X128961000Y-129856104D01*
X128904854Y-129573842D01*
X128794721Y-129307957D01*
X128634833Y-129068667D01*
X128431333Y-128865167D01*
X128192043Y-128705279D01*
X127926158Y-128595146D01*
X127643896Y-128539000D01*
X127356104Y-128539000D01*
X127073842Y-128595146D01*
X126807957Y-128705279D01*
X126568667Y-128865167D01*
X126365167Y-129068667D01*
X126205279Y-129307957D01*
X126095146Y-129573842D01*
X126039000Y-129856104D01*
X124767629Y-129856104D01*
X124811000Y-129638066D01*
X124811000Y-129241934D01*
X124733718Y-128853413D01*
X124582125Y-128487434D01*
X124362045Y-128158062D01*
X124081938Y-127877955D01*
X123752566Y-127657875D01*
X123386587Y-127506282D01*
X122998066Y-127429000D01*
X122601934Y-127429000D01*
X122213413Y-127506282D01*
X121847434Y-127657875D01*
X121518062Y-127877955D01*
X121237955Y-128158062D01*
X121017875Y-128487434D01*
X120866282Y-128853413D01*
X120789000Y-129241934D01*
X119505232Y-129241934D01*
X119431520Y-129192682D01*
X119265729Y-129124009D01*
X119089726Y-129089000D01*
X118910274Y-129089000D01*
X118734271Y-129124009D01*
X118568480Y-129192682D01*
X118419271Y-129292380D01*
X118292380Y-129419271D01*
X118192682Y-129568480D01*
X118124009Y-129734271D01*
X118089000Y-129910274D01*
X90536000Y-129910274D01*
X90536000Y-124410274D01*
X112089000Y-124410274D01*
X112089000Y-124589726D01*
X112124009Y-124765729D01*
X112192682Y-124931520D01*
X112292380Y-125080729D01*
X112419271Y-125207620D01*
X112568480Y-125307318D01*
X112734271Y-125375991D01*
X112910274Y-125411000D01*
X113089726Y-125411000D01*
X113265729Y-125375991D01*
X113431520Y-125307318D01*
X113580729Y-125207620D01*
X113707620Y-125080729D01*
X113807318Y-124931520D01*
X113875991Y-124765729D01*
X113911000Y-124589726D01*
X113911000Y-124410274D01*
X113875991Y-124234271D01*
X113807318Y-124068480D01*
X113707620Y-123919271D01*
X113580729Y-123792380D01*
X113431520Y-123692682D01*
X113265729Y-123624009D01*
X113089726Y-123589000D01*
X112910274Y-123589000D01*
X112734271Y-123624009D01*
X112568480Y-123692682D01*
X112419271Y-123792380D01*
X112292380Y-123919271D01*
X112192682Y-124068480D01*
X112124009Y-124234271D01*
X112089000Y-124410274D01*
X90536000Y-124410274D01*
X90536000Y-120156104D01*
X96239000Y-120156104D01*
X96239000Y-120443896D01*
X96295146Y-120726158D01*
X96405279Y-120992043D01*
X96565167Y-121231333D01*
X96768667Y-121434833D01*
X97007957Y-121594721D01*
X97273842Y-121704854D01*
X97556104Y-121761000D01*
X97843896Y-121761000D01*
X98126158Y-121704854D01*
X98392043Y-121594721D01*
X98631333Y-121434833D01*
X98834833Y-121231333D01*
X98994721Y-120992043D01*
X99104854Y-120726158D01*
X99161000Y-120443896D01*
X99161000Y-120156104D01*
X100439000Y-120156104D01*
X100439000Y-120443896D01*
X100495146Y-120726158D01*
X100605279Y-120992043D01*
X100765167Y-121231333D01*
X100968667Y-121434833D01*
X101207957Y-121594721D01*
X101473842Y-121704854D01*
X101756104Y-121761000D01*
X102043896Y-121761000D01*
X102326158Y-121704854D01*
X102592043Y-121594721D01*
X102831333Y-121434833D01*
X103034833Y-121231333D01*
X103194721Y-120992043D01*
X103304854Y-120726158D01*
X103361000Y-120443896D01*
X103361000Y-120156104D01*
X104639000Y-120156104D01*
X104639000Y-120443896D01*
X104695146Y-120726158D01*
X104805279Y-120992043D01*
X104965167Y-121231333D01*
X105168667Y-121434833D01*
X105407957Y-121594721D01*
X105673842Y-121704854D01*
X105956104Y-121761000D01*
X106243896Y-121761000D01*
X106526158Y-121704854D01*
X106792043Y-121594721D01*
X107031333Y-121434833D01*
X107234833Y-121231333D01*
X107394721Y-120992043D01*
X107504854Y-120726158D01*
X107561000Y-120443896D01*
X107561000Y-120156104D01*
X108839000Y-120156104D01*
X108839000Y-120443896D01*
X108895146Y-120726158D01*
X109005279Y-120992043D01*
X109165167Y-121231333D01*
X109368667Y-121434833D01*
X109607957Y-121594721D01*
X109873842Y-121704854D01*
X110156104Y-121761000D01*
X110443896Y-121761000D01*
X110726158Y-121704854D01*
X110992043Y-121594721D01*
X111231333Y-121434833D01*
X111434833Y-121231333D01*
X111594721Y-120992043D01*
X111704854Y-120726158D01*
X111761000Y-120443896D01*
X111761000Y-120156104D01*
X113039000Y-120156104D01*
X113039000Y-120443896D01*
X113095146Y-120726158D01*
X113205279Y-120992043D01*
X113365167Y-121231333D01*
X113568667Y-121434833D01*
X113807957Y-121594721D01*
X114073842Y-121704854D01*
X114356104Y-121761000D01*
X114643896Y-121761000D01*
X114926158Y-121704854D01*
X115192043Y-121594721D01*
X115431333Y-121434833D01*
X115634833Y-121231333D01*
X115794721Y-120992043D01*
X115904854Y-120726158D01*
X115961000Y-120443896D01*
X115961000Y-120156104D01*
X117239000Y-120156104D01*
X117239000Y-120443896D01*
X117295146Y-120726158D01*
X117405279Y-120992043D01*
X117565167Y-121231333D01*
X117768667Y-121434833D01*
X118007957Y-121594721D01*
X118273842Y-121704854D01*
X118556104Y-121761000D01*
X118843896Y-121761000D01*
X119126158Y-121704854D01*
X119392043Y-121594721D01*
X119631333Y-121434833D01*
X119732879Y-121333287D01*
X122046318Y-121333287D01*
X122143071Y-121557889D01*
X122403017Y-121681388D01*
X122682062Y-121751801D01*
X122969482Y-121766423D01*
X123254232Y-121724690D01*
X123525369Y-121628207D01*
X123656929Y-121557889D01*
X123753682Y-121333287D01*
X122900000Y-120479605D01*
X122046318Y-121333287D01*
X119732879Y-121333287D01*
X119834833Y-121231333D01*
X119994721Y-120992043D01*
X120104854Y-120726158D01*
X120161000Y-120443896D01*
X120161000Y-120369482D01*
X121433577Y-120369482D01*
X121475310Y-120654232D01*
X121571793Y-120925369D01*
X121642111Y-121056929D01*
X121866713Y-121153682D01*
X122720395Y-120300000D01*
X123079605Y-120300000D01*
X123933287Y-121153682D01*
X124157889Y-121056929D01*
X124281388Y-120796983D01*
X124351801Y-120517938D01*
X124366423Y-120230518D01*
X124355517Y-120156104D01*
X125639000Y-120156104D01*
X125639000Y-120443896D01*
X125695146Y-120726158D01*
X125805279Y-120992043D01*
X125965167Y-121231333D01*
X126168667Y-121434833D01*
X126407957Y-121594721D01*
X126673842Y-121704854D01*
X126956104Y-121761000D01*
X127243896Y-121761000D01*
X127526158Y-121704854D01*
X127792043Y-121594721D01*
X128031333Y-121434833D01*
X128132879Y-121333287D01*
X130446318Y-121333287D01*
X130543071Y-121557889D01*
X130803017Y-121681388D01*
X131082062Y-121751801D01*
X131369482Y-121766423D01*
X131654232Y-121724690D01*
X131925369Y-121628207D01*
X132056929Y-121557889D01*
X132153682Y-121333287D01*
X131300000Y-120479605D01*
X130446318Y-121333287D01*
X128132879Y-121333287D01*
X128234833Y-121231333D01*
X128394721Y-120992043D01*
X128504854Y-120726158D01*
X128561000Y-120443896D01*
X128561000Y-120369482D01*
X129833577Y-120369482D01*
X129875310Y-120654232D01*
X129971793Y-120925369D01*
X130042111Y-121056929D01*
X130266713Y-121153682D01*
X131120395Y-120300000D01*
X131479605Y-120300000D01*
X132333287Y-121153682D01*
X132557889Y-121056929D01*
X132681388Y-120796983D01*
X132751801Y-120517938D01*
X132766423Y-120230518D01*
X132755517Y-120156104D01*
X134039000Y-120156104D01*
X134039000Y-120443896D01*
X134095146Y-120726158D01*
X134205279Y-120992043D01*
X134365167Y-121231333D01*
X134568667Y-121434833D01*
X134807957Y-121594721D01*
X135073842Y-121704854D01*
X135356104Y-121761000D01*
X135643896Y-121761000D01*
X135926158Y-121704854D01*
X136192043Y-121594721D01*
X136431333Y-121434833D01*
X136634833Y-121231333D01*
X136794721Y-120992043D01*
X136904854Y-120726158D01*
X136961000Y-120443896D01*
X136961000Y-120156104D01*
X138239000Y-120156104D01*
X138239000Y-120443896D01*
X138295146Y-120726158D01*
X138405279Y-120992043D01*
X138565167Y-121231333D01*
X138768667Y-121434833D01*
X139007957Y-121594721D01*
X139273842Y-121704854D01*
X139556104Y-121761000D01*
X139843896Y-121761000D01*
X140126158Y-121704854D01*
X140392043Y-121594721D01*
X140631333Y-121434833D01*
X140834833Y-121231333D01*
X140994721Y-120992043D01*
X141104854Y-120726158D01*
X141161000Y-120443896D01*
X141161000Y-120156104D01*
X141104854Y-119873842D01*
X140994721Y-119607957D01*
X140834833Y-119368667D01*
X140816166Y-119350000D01*
X142436528Y-119350000D01*
X142436528Y-121250000D01*
X142446394Y-121350173D01*
X142475614Y-121446497D01*
X142523064Y-121535270D01*
X142586920Y-121613080D01*
X142664730Y-121676936D01*
X142753503Y-121724386D01*
X142849827Y-121753606D01*
X142950000Y-121763472D01*
X144850000Y-121763472D01*
X144950173Y-121753606D01*
X145046497Y-121724386D01*
X145135270Y-121676936D01*
X145213080Y-121613080D01*
X145276936Y-121535270D01*
X145324386Y-121446497D01*
X145353606Y-121350173D01*
X145363472Y-121250000D01*
X145363472Y-119350000D01*
X145353606Y-119249827D01*
X145324386Y-119153503D01*
X145276936Y-119064730D01*
X145213080Y-118986920D01*
X145135270Y-118923064D01*
X145046497Y-118875614D01*
X144950173Y-118846394D01*
X144850000Y-118836528D01*
X142950000Y-118836528D01*
X142849827Y-118846394D01*
X142753503Y-118875614D01*
X142664730Y-118923064D01*
X142586920Y-118986920D01*
X142523064Y-119064730D01*
X142475614Y-119153503D01*
X142446394Y-119249827D01*
X142436528Y-119350000D01*
X140816166Y-119350000D01*
X140631333Y-119165167D01*
X140392043Y-119005279D01*
X140126158Y-118895146D01*
X139843896Y-118839000D01*
X139556104Y-118839000D01*
X139273842Y-118895146D01*
X139007957Y-119005279D01*
X138768667Y-119165167D01*
X138565167Y-119368667D01*
X138405279Y-119607957D01*
X138295146Y-119873842D01*
X138239000Y-120156104D01*
X136961000Y-120156104D01*
X136904854Y-119873842D01*
X136794721Y-119607957D01*
X136634833Y-119368667D01*
X136431333Y-119165167D01*
X136192043Y-119005279D01*
X135926158Y-118895146D01*
X135643896Y-118839000D01*
X135356104Y-118839000D01*
X135073842Y-118895146D01*
X134807957Y-119005279D01*
X134568667Y-119165167D01*
X134365167Y-119368667D01*
X134205279Y-119607957D01*
X134095146Y-119873842D01*
X134039000Y-120156104D01*
X132755517Y-120156104D01*
X132724690Y-119945768D01*
X132628207Y-119674631D01*
X132557889Y-119543071D01*
X132333287Y-119446318D01*
X131479605Y-120300000D01*
X131120395Y-120300000D01*
X130266713Y-119446318D01*
X130042111Y-119543071D01*
X129918612Y-119803017D01*
X129848199Y-120082062D01*
X129833577Y-120369482D01*
X128561000Y-120369482D01*
X128561000Y-120156104D01*
X128504854Y-119873842D01*
X128394721Y-119607957D01*
X128234833Y-119368667D01*
X128132879Y-119266713D01*
X130446318Y-119266713D01*
X131300000Y-120120395D01*
X132153682Y-119266713D01*
X132056929Y-119042111D01*
X131796983Y-118918612D01*
X131517938Y-118848199D01*
X131230518Y-118833577D01*
X130945768Y-118875310D01*
X130674631Y-118971793D01*
X130543071Y-119042111D01*
X130446318Y-119266713D01*
X128132879Y-119266713D01*
X128031333Y-119165167D01*
X127792043Y-119005279D01*
X127526158Y-118895146D01*
X127243896Y-118839000D01*
X126956104Y-118839000D01*
X126673842Y-118895146D01*
X126407957Y-119005279D01*
X126168667Y-119165167D01*
X125965167Y-119368667D01*
X125805279Y-119607957D01*
X125695146Y-119873842D01*
X125639000Y-120156104D01*
X124355517Y-120156104D01*
X124324690Y-119945768D01*
X124228207Y-119674631D01*
X124157889Y-119543071D01*
X123933287Y-119446318D01*
X123079605Y-120300000D01*
X122720395Y-120300000D01*
X121866713Y-119446318D01*
X121642111Y-119543071D01*
X121518612Y-119803017D01*
X121448199Y-120082062D01*
X121433577Y-120369482D01*
X120161000Y-120369482D01*
X120161000Y-120156104D01*
X120104854Y-119873842D01*
X119994721Y-119607957D01*
X119834833Y-119368667D01*
X119732879Y-119266713D01*
X122046318Y-119266713D01*
X122900000Y-120120395D01*
X123753682Y-119266713D01*
X123656929Y-119042111D01*
X123396983Y-118918612D01*
X123117938Y-118848199D01*
X122830518Y-118833577D01*
X122545768Y-118875310D01*
X122274631Y-118971793D01*
X122143071Y-119042111D01*
X122046318Y-119266713D01*
X119732879Y-119266713D01*
X119631333Y-119165167D01*
X119392043Y-119005279D01*
X119126158Y-118895146D01*
X118843896Y-118839000D01*
X118556104Y-118839000D01*
X118273842Y-118895146D01*
X118007957Y-119005279D01*
X117768667Y-119165167D01*
X117565167Y-119368667D01*
X117405279Y-119607957D01*
X117295146Y-119873842D01*
X117239000Y-120156104D01*
X115961000Y-120156104D01*
X115904854Y-119873842D01*
X115794721Y-119607957D01*
X115634833Y-119368667D01*
X115431333Y-119165167D01*
X115192043Y-119005279D01*
X114926158Y-118895146D01*
X114643896Y-118839000D01*
X114356104Y-118839000D01*
X114073842Y-118895146D01*
X113807957Y-119005279D01*
X113568667Y-119165167D01*
X113365167Y-119368667D01*
X113205279Y-119607957D01*
X113095146Y-119873842D01*
X113039000Y-120156104D01*
X111761000Y-120156104D01*
X111704854Y-119873842D01*
X111594721Y-119607957D01*
X111434833Y-119368667D01*
X111231333Y-119165167D01*
X110992043Y-119005279D01*
X110726158Y-118895146D01*
X110443896Y-118839000D01*
X110156104Y-118839000D01*
X109873842Y-118895146D01*
X109607957Y-119005279D01*
X109368667Y-119165167D01*
X109165167Y-119368667D01*
X109005279Y-119607957D01*
X108895146Y-119873842D01*
X108839000Y-120156104D01*
X107561000Y-120156104D01*
X107504854Y-119873842D01*
X107394721Y-119607957D01*
X107234833Y-119368667D01*
X107031333Y-119165167D01*
X106792043Y-119005279D01*
X106526158Y-118895146D01*
X106243896Y-118839000D01*
X105956104Y-118839000D01*
X105673842Y-118895146D01*
X105407957Y-119005279D01*
X105168667Y-119165167D01*
X104965167Y-119368667D01*
X104805279Y-119607957D01*
X104695146Y-119873842D01*
X104639000Y-120156104D01*
X103361000Y-120156104D01*
X103304854Y-119873842D01*
X103194721Y-119607957D01*
X103034833Y-119368667D01*
X102831333Y-119165167D01*
X102592043Y-119005279D01*
X102326158Y-118895146D01*
X102043896Y-118839000D01*
X101756104Y-118839000D01*
X101473842Y-118895146D01*
X101207957Y-119005279D01*
X100968667Y-119165167D01*
X100765167Y-119368667D01*
X100605279Y-119607957D01*
X100495146Y-119873842D01*
X100439000Y-120156104D01*
X99161000Y-120156104D01*
X99104854Y-119873842D01*
X98994721Y-119607957D01*
X98834833Y-119368667D01*
X98631333Y-119165167D01*
X98392043Y-119005279D01*
X98126158Y-118895146D01*
X97843896Y-118839000D01*
X97556104Y-118839000D01*
X97273842Y-118895146D01*
X97007957Y-119005279D01*
X96768667Y-119165167D01*
X96565167Y-119368667D01*
X96405279Y-119607957D01*
X96295146Y-119873842D01*
X96239000Y-120156104D01*
X90536000Y-120156104D01*
X90536000Y-115061934D01*
X90989000Y-115061934D01*
X90989000Y-115458066D01*
X91066282Y-115846587D01*
X91217875Y-116212566D01*
X91437955Y-116541938D01*
X91718062Y-116822045D01*
X92047434Y-117042125D01*
X92413413Y-117193718D01*
X92801934Y-117271000D01*
X93198066Y-117271000D01*
X93586587Y-117193718D01*
X93952566Y-117042125D01*
X94281938Y-116822045D01*
X94562045Y-116541938D01*
X94782125Y-116212566D01*
X94933718Y-115846587D01*
X95011000Y-115458066D01*
X95011000Y-115061934D01*
X94933718Y-114673413D01*
X94926549Y-114656104D01*
X96239000Y-114656104D01*
X96239000Y-114943896D01*
X96295146Y-115226158D01*
X96405279Y-115492043D01*
X96565167Y-115731333D01*
X96768667Y-115934833D01*
X97007957Y-116094721D01*
X97273842Y-116204854D01*
X97556104Y-116261000D01*
X97843896Y-116261000D01*
X98126158Y-116204854D01*
X98392043Y-116094721D01*
X98631333Y-115934833D01*
X98732879Y-115833287D01*
X101046318Y-115833287D01*
X101143071Y-116057889D01*
X101403017Y-116181388D01*
X101682062Y-116251801D01*
X101969482Y-116266423D01*
X102254232Y-116224690D01*
X102525369Y-116128207D01*
X102656929Y-116057889D01*
X102753682Y-115833287D01*
X105246318Y-115833287D01*
X105343071Y-116057889D01*
X105603017Y-116181388D01*
X105882062Y-116251801D01*
X106169482Y-116266423D01*
X106454232Y-116224690D01*
X106725369Y-116128207D01*
X106856929Y-116057889D01*
X106953682Y-115833287D01*
X109446318Y-115833287D01*
X109543071Y-116057889D01*
X109803017Y-116181388D01*
X110082062Y-116251801D01*
X110369482Y-116266423D01*
X110654232Y-116224690D01*
X110925369Y-116128207D01*
X111056929Y-116057889D01*
X111153682Y-115833287D01*
X110300000Y-114979605D01*
X109446318Y-115833287D01*
X106953682Y-115833287D01*
X106100000Y-114979605D01*
X105246318Y-115833287D01*
X102753682Y-115833287D01*
X101900000Y-114979605D01*
X101046318Y-115833287D01*
X98732879Y-115833287D01*
X98834833Y-115731333D01*
X98994721Y-115492043D01*
X99104854Y-115226158D01*
X99161000Y-114943896D01*
X99161000Y-114869482D01*
X100433577Y-114869482D01*
X100475310Y-115154232D01*
X100571793Y-115425369D01*
X100642111Y-115556929D01*
X100866713Y-115653682D01*
X101720395Y-114800000D01*
X102079605Y-114800000D01*
X102933287Y-115653682D01*
X103157889Y-115556929D01*
X103281388Y-115296983D01*
X103351801Y-115017938D01*
X103359353Y-114869482D01*
X104633577Y-114869482D01*
X104675310Y-115154232D01*
X104771793Y-115425369D01*
X104842111Y-115556929D01*
X105066713Y-115653682D01*
X105920395Y-114800000D01*
X106279605Y-114800000D01*
X107133287Y-115653682D01*
X107357889Y-115556929D01*
X107481388Y-115296983D01*
X107551801Y-115017938D01*
X107559353Y-114869482D01*
X108833577Y-114869482D01*
X108875310Y-115154232D01*
X108971793Y-115425369D01*
X109042111Y-115556929D01*
X109266713Y-115653682D01*
X110120395Y-114800000D01*
X110479605Y-114800000D01*
X111333287Y-115653682D01*
X111557889Y-115556929D01*
X111681388Y-115296983D01*
X111751801Y-115017938D01*
X111766423Y-114730518D01*
X111755517Y-114656104D01*
X113039000Y-114656104D01*
X113039000Y-114943896D01*
X113095146Y-115226158D01*
X113205279Y-115492043D01*
X113365167Y-115731333D01*
X113568667Y-115934833D01*
X113807957Y-116094721D01*
X114073842Y-116204854D01*
X114356104Y-116261000D01*
X114643896Y-116261000D01*
X114926158Y-116204854D01*
X115192043Y-116094721D01*
X115431333Y-115934833D01*
X115634833Y-115731333D01*
X115794721Y-115492043D01*
X115904854Y-115226158D01*
X115961000Y-114943896D01*
X115961000Y-114656104D01*
X117239000Y-114656104D01*
X117239000Y-114943896D01*
X117295146Y-115226158D01*
X117405279Y-115492043D01*
X117565167Y-115731333D01*
X117768667Y-115934833D01*
X118007957Y-116094721D01*
X118273842Y-116204854D01*
X118556104Y-116261000D01*
X118843896Y-116261000D01*
X119126158Y-116204854D01*
X119392043Y-116094721D01*
X119631333Y-115934833D01*
X119834833Y-115731333D01*
X119994721Y-115492043D01*
X120104854Y-115226158D01*
X120161000Y-114943896D01*
X120161000Y-114656104D01*
X121439000Y-114656104D01*
X121439000Y-114943896D01*
X121495146Y-115226158D01*
X121605279Y-115492043D01*
X121765167Y-115731333D01*
X121968667Y-115934833D01*
X122207957Y-116094721D01*
X122473842Y-116204854D01*
X122756104Y-116261000D01*
X123043896Y-116261000D01*
X123326158Y-116204854D01*
X123592043Y-116094721D01*
X123831333Y-115934833D01*
X124034833Y-115731333D01*
X124194721Y-115492043D01*
X124304854Y-115226158D01*
X124361000Y-114943896D01*
X124361000Y-114656104D01*
X125639000Y-114656104D01*
X125639000Y-114943896D01*
X125695146Y-115226158D01*
X125805279Y-115492043D01*
X125965167Y-115731333D01*
X126168667Y-115934833D01*
X126407957Y-116094721D01*
X126673842Y-116204854D01*
X126956104Y-116261000D01*
X127243896Y-116261000D01*
X127526158Y-116204854D01*
X127792043Y-116094721D01*
X128031333Y-115934833D01*
X128234833Y-115731333D01*
X128394721Y-115492043D01*
X128504854Y-115226158D01*
X128561000Y-114943896D01*
X128561000Y-114656104D01*
X129839000Y-114656104D01*
X129839000Y-114943896D01*
X129895146Y-115226158D01*
X130005279Y-115492043D01*
X130165167Y-115731333D01*
X130368667Y-115934833D01*
X130607957Y-116094721D01*
X130873842Y-116204854D01*
X131156104Y-116261000D01*
X131443896Y-116261000D01*
X131726158Y-116204854D01*
X131992043Y-116094721D01*
X132231333Y-115934833D01*
X132434833Y-115731333D01*
X132594721Y-115492043D01*
X132704854Y-115226158D01*
X132761000Y-114943896D01*
X132761000Y-114656104D01*
X134039000Y-114656104D01*
X134039000Y-114943896D01*
X134095146Y-115226158D01*
X134205279Y-115492043D01*
X134365167Y-115731333D01*
X134568667Y-115934833D01*
X134807957Y-116094721D01*
X135073842Y-116204854D01*
X135356104Y-116261000D01*
X135643896Y-116261000D01*
X135926158Y-116204854D01*
X136192043Y-116094721D01*
X136431333Y-115934833D01*
X136634833Y-115731333D01*
X136794721Y-115492043D01*
X136904854Y-115226158D01*
X136961000Y-114943896D01*
X136961000Y-114656104D01*
X138239000Y-114656104D01*
X138239000Y-114943896D01*
X138295146Y-115226158D01*
X138405279Y-115492043D01*
X138565167Y-115731333D01*
X138768667Y-115934833D01*
X139007957Y-116094721D01*
X139273842Y-116204854D01*
X139556104Y-116261000D01*
X139843896Y-116261000D01*
X140126158Y-116204854D01*
X140392043Y-116094721D01*
X140631333Y-115934833D01*
X140834833Y-115731333D01*
X140994721Y-115492043D01*
X141104854Y-115226158D01*
X141161000Y-114943896D01*
X141161000Y-114656104D01*
X142439000Y-114656104D01*
X142439000Y-114943896D01*
X142495146Y-115226158D01*
X142605279Y-115492043D01*
X142765167Y-115731333D01*
X142968667Y-115934833D01*
X143207957Y-116094721D01*
X143473842Y-116204854D01*
X143756104Y-116261000D01*
X144043896Y-116261000D01*
X144326158Y-116204854D01*
X144592043Y-116094721D01*
X144831333Y-115934833D01*
X145034833Y-115731333D01*
X145194721Y-115492043D01*
X145304854Y-115226158D01*
X145337520Y-115061934D01*
X146589000Y-115061934D01*
X146589000Y-115458066D01*
X146666282Y-115846587D01*
X146817875Y-116212566D01*
X147037955Y-116541938D01*
X147318062Y-116822045D01*
X147647434Y-117042125D01*
X148013413Y-117193718D01*
X148401934Y-117271000D01*
X148798066Y-117271000D01*
X149186587Y-117193718D01*
X149552566Y-117042125D01*
X149881938Y-116822045D01*
X150162045Y-116541938D01*
X150382125Y-116212566D01*
X150533718Y-115846587D01*
X150611000Y-115458066D01*
X150611000Y-115061934D01*
X150533718Y-114673413D01*
X150382125Y-114307434D01*
X150162045Y-113978062D01*
X149881938Y-113697955D01*
X149552566Y-113477875D01*
X149186587Y-113326282D01*
X148798066Y-113249000D01*
X148401934Y-113249000D01*
X148013413Y-113326282D01*
X147647434Y-113477875D01*
X147318062Y-113697955D01*
X147037955Y-113978062D01*
X146817875Y-114307434D01*
X146666282Y-114673413D01*
X146589000Y-115061934D01*
X145337520Y-115061934D01*
X145361000Y-114943896D01*
X145361000Y-114656104D01*
X145304854Y-114373842D01*
X145194721Y-114107957D01*
X145034833Y-113868667D01*
X144831333Y-113665167D01*
X144592043Y-113505279D01*
X144326158Y-113395146D01*
X144043896Y-113339000D01*
X143756104Y-113339000D01*
X143473842Y-113395146D01*
X143207957Y-113505279D01*
X142968667Y-113665167D01*
X142765167Y-113868667D01*
X142605279Y-114107957D01*
X142495146Y-114373842D01*
X142439000Y-114656104D01*
X141161000Y-114656104D01*
X141104854Y-114373842D01*
X140994721Y-114107957D01*
X140834833Y-113868667D01*
X140631333Y-113665167D01*
X140392043Y-113505279D01*
X140126158Y-113395146D01*
X139843896Y-113339000D01*
X139556104Y-113339000D01*
X139273842Y-113395146D01*
X139007957Y-113505279D01*
X138768667Y-113665167D01*
X138565167Y-113868667D01*
X138405279Y-114107957D01*
X138295146Y-114373842D01*
X138239000Y-114656104D01*
X136961000Y-114656104D01*
X136904854Y-114373842D01*
X136794721Y-114107957D01*
X136634833Y-113868667D01*
X136431333Y-113665167D01*
X136192043Y-113505279D01*
X135926158Y-113395146D01*
X135643896Y-113339000D01*
X135356104Y-113339000D01*
X135073842Y-113395146D01*
X134807957Y-113505279D01*
X134568667Y-113665167D01*
X134365167Y-113868667D01*
X134205279Y-114107957D01*
X134095146Y-114373842D01*
X134039000Y-114656104D01*
X132761000Y-114656104D01*
X132704854Y-114373842D01*
X132594721Y-114107957D01*
X132434833Y-113868667D01*
X132231333Y-113665167D01*
X131992043Y-113505279D01*
X131726158Y-113395146D01*
X131443896Y-113339000D01*
X131156104Y-113339000D01*
X130873842Y-113395146D01*
X130607957Y-113505279D01*
X130368667Y-113665167D01*
X130165167Y-113868667D01*
X130005279Y-114107957D01*
X129895146Y-114373842D01*
X129839000Y-114656104D01*
X128561000Y-114656104D01*
X128504854Y-114373842D01*
X128394721Y-114107957D01*
X128234833Y-113868667D01*
X128031333Y-113665167D01*
X127792043Y-113505279D01*
X127526158Y-113395146D01*
X127243896Y-113339000D01*
X126956104Y-113339000D01*
X126673842Y-113395146D01*
X126407957Y-113505279D01*
X126168667Y-113665167D01*
X125965167Y-113868667D01*
X125805279Y-114107957D01*
X125695146Y-114373842D01*
X125639000Y-114656104D01*
X124361000Y-114656104D01*
X124304854Y-114373842D01*
X124194721Y-114107957D01*
X124034833Y-113868667D01*
X123831333Y-113665167D01*
X123592043Y-113505279D01*
X123326158Y-113395146D01*
X123043896Y-113339000D01*
X122756104Y-113339000D01*
X122473842Y-113395146D01*
X122207957Y-113505279D01*
X121968667Y-113665167D01*
X121765167Y-113868667D01*
X121605279Y-114107957D01*
X121495146Y-114373842D01*
X121439000Y-114656104D01*
X120161000Y-114656104D01*
X120104854Y-114373842D01*
X119994721Y-114107957D01*
X119834833Y-113868667D01*
X119631333Y-113665167D01*
X119392043Y-113505279D01*
X119126158Y-113395146D01*
X118843896Y-113339000D01*
X118556104Y-113339000D01*
X118273842Y-113395146D01*
X118007957Y-113505279D01*
X117768667Y-113665167D01*
X117565167Y-113868667D01*
X117405279Y-114107957D01*
X117295146Y-114373842D01*
X117239000Y-114656104D01*
X115961000Y-114656104D01*
X115904854Y-114373842D01*
X115794721Y-114107957D01*
X115634833Y-113868667D01*
X115431333Y-113665167D01*
X115192043Y-113505279D01*
X114926158Y-113395146D01*
X114643896Y-113339000D01*
X114356104Y-113339000D01*
X114073842Y-113395146D01*
X113807957Y-113505279D01*
X113568667Y-113665167D01*
X113365167Y-113868667D01*
X113205279Y-114107957D01*
X113095146Y-114373842D01*
X113039000Y-114656104D01*
X111755517Y-114656104D01*
X111724690Y-114445768D01*
X111628207Y-114174631D01*
X111557889Y-114043071D01*
X111333287Y-113946318D01*
X110479605Y-114800000D01*
X110120395Y-114800000D01*
X109266713Y-113946318D01*
X109042111Y-114043071D01*
X108918612Y-114303017D01*
X108848199Y-114582062D01*
X108833577Y-114869482D01*
X107559353Y-114869482D01*
X107566423Y-114730518D01*
X107524690Y-114445768D01*
X107428207Y-114174631D01*
X107357889Y-114043071D01*
X107133287Y-113946318D01*
X106279605Y-114800000D01*
X105920395Y-114800000D01*
X105066713Y-113946318D01*
X104842111Y-114043071D01*
X104718612Y-114303017D01*
X104648199Y-114582062D01*
X104633577Y-114869482D01*
X103359353Y-114869482D01*
X103366423Y-114730518D01*
X103324690Y-114445768D01*
X103228207Y-114174631D01*
X103157889Y-114043071D01*
X102933287Y-113946318D01*
X102079605Y-114800000D01*
X101720395Y-114800000D01*
X100866713Y-113946318D01*
X100642111Y-114043071D01*
X100518612Y-114303017D01*
X100448199Y-114582062D01*
X100433577Y-114869482D01*
X99161000Y-114869482D01*
X99161000Y-114656104D01*
X99104854Y-114373842D01*
X98994721Y-114107957D01*
X98834833Y-113868667D01*
X98732879Y-113766713D01*
X101046318Y-113766713D01*
X101900000Y-114620395D01*
X102753682Y-113766713D01*
X105246318Y-113766713D01*
X106100000Y-114620395D01*
X106953682Y-113766713D01*
X109446318Y-113766713D01*
X110300000Y-114620395D01*
X111153682Y-113766713D01*
X111056929Y-113542111D01*
X110796983Y-113418612D01*
X110517938Y-113348199D01*
X110230518Y-113333577D01*
X109945768Y-113375310D01*
X109674631Y-113471793D01*
X109543071Y-113542111D01*
X109446318Y-113766713D01*
X106953682Y-113766713D01*
X106856929Y-113542111D01*
X106596983Y-113418612D01*
X106317938Y-113348199D01*
X106030518Y-113333577D01*
X105745768Y-113375310D01*
X105474631Y-113471793D01*
X105343071Y-113542111D01*
X105246318Y-113766713D01*
X102753682Y-113766713D01*
X102656929Y-113542111D01*
X102396983Y-113418612D01*
X102117938Y-113348199D01*
X101830518Y-113333577D01*
X101545768Y-113375310D01*
X101274631Y-113471793D01*
X101143071Y-113542111D01*
X101046318Y-113766713D01*
X98732879Y-113766713D01*
X98631333Y-113665167D01*
X98392043Y-113505279D01*
X98126158Y-113395146D01*
X97843896Y-113339000D01*
X97556104Y-113339000D01*
X97273842Y-113395146D01*
X97007957Y-113505279D01*
X96768667Y-113665167D01*
X96565167Y-113868667D01*
X96405279Y-114107957D01*
X96295146Y-114373842D01*
X96239000Y-114656104D01*
X94926549Y-114656104D01*
X94782125Y-114307434D01*
X94562045Y-113978062D01*
X94281938Y-113697955D01*
X93952566Y-113477875D01*
X93586587Y-113326282D01*
X93198066Y-113249000D01*
X92801934Y-113249000D01*
X92413413Y-113326282D01*
X92047434Y-113477875D01*
X91718062Y-113697955D01*
X91437955Y-113978062D01*
X91217875Y-114307434D01*
X91066282Y-114673413D01*
X90989000Y-115061934D01*
X90536000Y-115061934D01*
X90536000Y-110536000D01*
X151064000Y-110536000D01*
X151064001Y-137864000D01*
%TA.AperFunction,Conductor*%
D16*
G36*
X151064001Y-137864000D02*
G01*
X90536000Y-137864000D01*
X90536000Y-134038868D01*
X105264000Y-134038868D01*
X105264000Y-134361132D01*
X105326870Y-134677204D01*
X105450196Y-134974937D01*
X105629236Y-135242889D01*
X105857111Y-135470764D01*
X106125063Y-135649804D01*
X106422796Y-135773130D01*
X106738868Y-135836000D01*
X107061132Y-135836000D01*
X107377204Y-135773130D01*
X107674937Y-135649804D01*
X107942889Y-135470764D01*
X108170764Y-135242889D01*
X108261227Y-135107502D01*
X108448166Y-135232410D01*
X108660182Y-135320230D01*
X108885258Y-135365000D01*
X109114742Y-135365000D01*
X109339818Y-135320230D01*
X109551834Y-135232410D01*
X109742644Y-135104915D01*
X109904915Y-134942644D01*
X110000000Y-134800339D01*
X110095085Y-134942644D01*
X110257356Y-135104915D01*
X110448166Y-135232410D01*
X110660182Y-135320230D01*
X110885258Y-135365000D01*
X111114742Y-135365000D01*
X111339818Y-135320230D01*
X111551834Y-135232410D01*
X111742644Y-135104915D01*
X111904915Y-134942644D01*
X112000000Y-134800339D01*
X112095085Y-134942644D01*
X112257356Y-135104915D01*
X112448166Y-135232410D01*
X112660182Y-135320230D01*
X112885258Y-135365000D01*
X113114742Y-135365000D01*
X113339818Y-135320230D01*
X113551834Y-135232410D01*
X113738773Y-135107502D01*
X113829236Y-135242889D01*
X114057111Y-135470764D01*
X114325063Y-135649804D01*
X114622796Y-135773130D01*
X114938868Y-135836000D01*
X115261132Y-135836000D01*
X115577204Y-135773130D01*
X115874937Y-135649804D01*
X116142889Y-135470764D01*
X116257549Y-135356104D01*
X126039000Y-135356104D01*
X126039000Y-135643896D01*
X126095146Y-135926158D01*
X126205279Y-136192043D01*
X126365167Y-136431333D01*
X126568667Y-136634833D01*
X126807957Y-136794721D01*
X127073842Y-136904854D01*
X127356104Y-136961000D01*
X127643896Y-136961000D01*
X127926158Y-136904854D01*
X128192043Y-136794721D01*
X128431333Y-136634833D01*
X128532879Y-136533287D01*
X130846318Y-136533287D01*
X130943071Y-136757889D01*
X131203017Y-136881388D01*
X131482062Y-136951801D01*
X131769482Y-136966423D01*
X132054232Y-136924690D01*
X132325369Y-136828207D01*
X132456929Y-136757889D01*
X132553682Y-136533287D01*
X135046318Y-136533287D01*
X135143071Y-136757889D01*
X135403017Y-136881388D01*
X135682062Y-136951801D01*
X135969482Y-136966423D01*
X136254232Y-136924690D01*
X136525369Y-136828207D01*
X136656929Y-136757889D01*
X136753682Y-136533287D01*
X139246318Y-136533287D01*
X139343071Y-136757889D01*
X139603017Y-136881388D01*
X139882062Y-136951801D01*
X140169482Y-136966423D01*
X140454232Y-136924690D01*
X140725369Y-136828207D01*
X140856929Y-136757889D01*
X140953682Y-136533287D01*
X140100000Y-135679605D01*
X139246318Y-136533287D01*
X136753682Y-136533287D01*
X135900000Y-135679605D01*
X135046318Y-136533287D01*
X132553682Y-136533287D01*
X131700000Y-135679605D01*
X130846318Y-136533287D01*
X128532879Y-136533287D01*
X128634833Y-136431333D01*
X128794721Y-136192043D01*
X128904854Y-135926158D01*
X128961000Y-135643896D01*
X128961000Y-135569482D01*
X130233577Y-135569482D01*
X130275310Y-135854232D01*
X130371793Y-136125369D01*
X130442111Y-136256929D01*
X130666713Y-136353682D01*
X131520395Y-135500000D01*
X131879605Y-135500000D01*
X132733287Y-136353682D01*
X132957889Y-136256929D01*
X133081388Y-135996983D01*
X133151801Y-135717938D01*
X133159353Y-135569482D01*
X134433577Y-135569482D01*
X134475310Y-135854232D01*
X134571793Y-136125369D01*
X134642111Y-136256929D01*
X134866713Y-136353682D01*
X135720395Y-135500000D01*
X136079605Y-135500000D01*
X136933287Y-136353682D01*
X137157889Y-136256929D01*
X137281388Y-135996983D01*
X137351801Y-135717938D01*
X137359353Y-135569482D01*
X138633577Y-135569482D01*
X138675310Y-135854232D01*
X138771793Y-136125369D01*
X138842111Y-136256929D01*
X139066713Y-136353682D01*
X139920395Y-135500000D01*
X140279605Y-135500000D01*
X141133287Y-136353682D01*
X141357889Y-136256929D01*
X141481388Y-135996983D01*
X141551801Y-135717938D01*
X141566423Y-135430518D01*
X141524690Y-135145768D01*
X141428207Y-134874631D01*
X141357889Y-134743071D01*
X141133287Y-134646318D01*
X140279605Y-135500000D01*
X139920395Y-135500000D01*
X139066713Y-134646318D01*
X138842111Y-134743071D01*
X138718612Y-135003017D01*
X138648199Y-135282062D01*
X138633577Y-135569482D01*
X137359353Y-135569482D01*
X137366423Y-135430518D01*
X137324690Y-135145768D01*
X137228207Y-134874631D01*
X137157889Y-134743071D01*
X136933287Y-134646318D01*
X136079605Y-135500000D01*
X135720395Y-135500000D01*
X134866713Y-134646318D01*
X134642111Y-134743071D01*
X134518612Y-135003017D01*
X134448199Y-135282062D01*
X134433577Y-135569482D01*
X133159353Y-135569482D01*
X133166423Y-135430518D01*
X133124690Y-135145768D01*
X133028207Y-134874631D01*
X132957889Y-134743071D01*
X132733287Y-134646318D01*
X131879605Y-135500000D01*
X131520395Y-135500000D01*
X130666713Y-134646318D01*
X130442111Y-134743071D01*
X130318612Y-135003017D01*
X130248199Y-135282062D01*
X130233577Y-135569482D01*
X128961000Y-135569482D01*
X128961000Y-135356104D01*
X128904854Y-135073842D01*
X128794721Y-134807957D01*
X128634833Y-134568667D01*
X128532879Y-134466713D01*
X130846318Y-134466713D01*
X131700000Y-135320395D01*
X132553682Y-134466713D01*
X135046318Y-134466713D01*
X135900000Y-135320395D01*
X136753682Y-134466713D01*
X139246318Y-134466713D01*
X140100000Y-135320395D01*
X140870395Y-134550000D01*
X142836528Y-134550000D01*
X142836528Y-136450000D01*
X142846394Y-136550173D01*
X142875614Y-136646497D01*
X142923064Y-136735270D01*
X142986920Y-136813080D01*
X143064730Y-136876936D01*
X143153503Y-136924386D01*
X143249827Y-136953606D01*
X143350000Y-136963472D01*
X145250000Y-136963472D01*
X145350173Y-136953606D01*
X145446497Y-136924386D01*
X145535270Y-136876936D01*
X145613080Y-136813080D01*
X145676936Y-136735270D01*
X145724386Y-136646497D01*
X145753606Y-136550173D01*
X145763472Y-136450000D01*
X145763472Y-134550000D01*
X145753606Y-134449827D01*
X145724386Y-134353503D01*
X145676936Y-134264730D01*
X145613080Y-134186920D01*
X145535270Y-134123064D01*
X145446497Y-134075614D01*
X145350173Y-134046394D01*
X145250000Y-134036528D01*
X143350000Y-134036528D01*
X143249827Y-134046394D01*
X143153503Y-134075614D01*
X143064730Y-134123064D01*
X142986920Y-134186920D01*
X142923064Y-134264730D01*
X142875614Y-134353503D01*
X142846394Y-134449827D01*
X142836528Y-134550000D01*
X140870395Y-134550000D01*
X140953682Y-134466713D01*
X140856929Y-134242111D01*
X140596983Y-134118612D01*
X140317938Y-134048199D01*
X140030518Y-134033577D01*
X139745768Y-134075310D01*
X139474631Y-134171793D01*
X139343071Y-134242111D01*
X139246318Y-134466713D01*
X136753682Y-134466713D01*
X136656929Y-134242111D01*
X136396983Y-134118612D01*
X136117938Y-134048199D01*
X135830518Y-134033577D01*
X135545768Y-134075310D01*
X135274631Y-134171793D01*
X135143071Y-134242111D01*
X135046318Y-134466713D01*
X132553682Y-134466713D01*
X132456929Y-134242111D01*
X132196983Y-134118612D01*
X131917938Y-134048199D01*
X131630518Y-134033577D01*
X131345768Y-134075310D01*
X131074631Y-134171793D01*
X130943071Y-134242111D01*
X130846318Y-134466713D01*
X128532879Y-134466713D01*
X128431333Y-134365167D01*
X128192043Y-134205279D01*
X127926158Y-134095146D01*
X127643896Y-134039000D01*
X127356104Y-134039000D01*
X127073842Y-134095146D01*
X126807957Y-134205279D01*
X126568667Y-134365167D01*
X126365167Y-134568667D01*
X126205279Y-134807957D01*
X126095146Y-135073842D01*
X126039000Y-135356104D01*
X116257549Y-135356104D01*
X116370764Y-135242889D01*
X116549804Y-134974937D01*
X116673130Y-134677204D01*
X116736000Y-134361132D01*
X116736000Y-134038868D01*
X116673130Y-133722796D01*
X116549804Y-133425063D01*
X116370764Y-133157111D01*
X116142889Y-132929236D01*
X115874937Y-132750196D01*
X115577204Y-132626870D01*
X115261132Y-132564000D01*
X114938868Y-132564000D01*
X114622796Y-132626870D01*
X114325063Y-132750196D01*
X114057111Y-132929236D01*
X113829236Y-133157111D01*
X113738773Y-133292498D01*
X113551834Y-133167590D01*
X113339818Y-133079770D01*
X113114742Y-133035000D01*
X112885258Y-133035000D01*
X112660182Y-133079770D01*
X112448166Y-133167590D01*
X112257356Y-133295085D01*
X112095085Y-133457356D01*
X112000000Y-133599661D01*
X111904915Y-133457356D01*
X111742644Y-133295085D01*
X111551834Y-133167590D01*
X111339818Y-133079770D01*
X111114742Y-133035000D01*
X110885258Y-133035000D01*
X110660182Y-133079770D01*
X110448166Y-133167590D01*
X110257356Y-133295085D01*
X110095085Y-133457356D01*
X110000000Y-133599661D01*
X109904915Y-133457356D01*
X109742644Y-133295085D01*
X109551834Y-133167590D01*
X109339818Y-133079770D01*
X109114742Y-133035000D01*
X108885258Y-133035000D01*
X108660182Y-133079770D01*
X108448166Y-133167590D01*
X108261227Y-133292498D01*
X108170764Y-133157111D01*
X107942889Y-132929236D01*
X107674937Y-132750196D01*
X107377204Y-132626870D01*
X107061132Y-132564000D01*
X106738868Y-132564000D01*
X106422796Y-132626870D01*
X106125063Y-132750196D01*
X105857111Y-132929236D01*
X105629236Y-133157111D01*
X105450196Y-133425063D01*
X105326870Y-133722796D01*
X105264000Y-134038868D01*
X90536000Y-134038868D01*
X90536000Y-131910274D01*
X99089000Y-131910274D01*
X99089000Y-132089726D01*
X99124009Y-132265729D01*
X99192682Y-132431520D01*
X99292380Y-132580729D01*
X99419271Y-132707620D01*
X99568480Y-132807318D01*
X99734271Y-132875991D01*
X99910274Y-132911000D01*
X100089726Y-132911000D01*
X100265729Y-132875991D01*
X100431520Y-132807318D01*
X100580729Y-132707620D01*
X100707620Y-132580729D01*
X100807318Y-132431520D01*
X100875991Y-132265729D01*
X100911000Y-132089726D01*
X100911000Y-131910274D01*
X100875991Y-131734271D01*
X100807318Y-131568480D01*
X100707620Y-131419271D01*
X100580729Y-131292380D01*
X100431520Y-131192682D01*
X100265729Y-131124009D01*
X100089726Y-131089000D01*
X99910274Y-131089000D01*
X99734271Y-131124009D01*
X99568480Y-131192682D01*
X99419271Y-131292380D01*
X99292380Y-131419271D01*
X99192682Y-131568480D01*
X99124009Y-131734271D01*
X99089000Y-131910274D01*
X90536000Y-131910274D01*
X90536000Y-129910274D01*
X118089000Y-129910274D01*
X118089000Y-130089726D01*
X118124009Y-130265729D01*
X118192682Y-130431520D01*
X118292380Y-130580729D01*
X118419271Y-130707620D01*
X118568480Y-130807318D01*
X118734271Y-130875991D01*
X118910274Y-130911000D01*
X119089726Y-130911000D01*
X119265729Y-130875991D01*
X119431520Y-130807318D01*
X119580729Y-130707620D01*
X119707620Y-130580729D01*
X119807318Y-130431520D01*
X119875991Y-130265729D01*
X119911000Y-130089726D01*
X119911000Y-129910274D01*
X119875991Y-129734271D01*
X119807318Y-129568480D01*
X119707620Y-129419271D01*
X119580729Y-129292380D01*
X119505232Y-129241934D01*
X120789000Y-129241934D01*
X120789000Y-129638066D01*
X120866282Y-130026587D01*
X121017875Y-130392566D01*
X121237955Y-130721938D01*
X121518062Y-131002045D01*
X121847434Y-131222125D01*
X122213413Y-131373718D01*
X122601934Y-131451000D01*
X122998066Y-131451000D01*
X123386587Y-131373718D01*
X123752566Y-131222125D01*
X124081938Y-131002045D01*
X124362045Y-130721938D01*
X124582125Y-130392566D01*
X124733718Y-130026587D01*
X124767629Y-129856104D01*
X126039000Y-129856104D01*
X126039000Y-130143896D01*
X126095146Y-130426158D01*
X126205279Y-130692043D01*
X126365167Y-130931333D01*
X126568667Y-131134833D01*
X126807957Y-131294721D01*
X127073842Y-131404854D01*
X127356104Y-131461000D01*
X127643896Y-131461000D01*
X127926158Y-131404854D01*
X128192043Y-131294721D01*
X128431333Y-131134833D01*
X128634833Y-130931333D01*
X128794721Y-130692043D01*
X128904854Y-130426158D01*
X128961000Y-130143896D01*
X128961000Y-129856104D01*
X130239000Y-129856104D01*
X130239000Y-130143896D01*
X130295146Y-130426158D01*
X130405279Y-130692043D01*
X130565167Y-130931333D01*
X130768667Y-131134833D01*
X131007957Y-131294721D01*
X131273842Y-131404854D01*
X131556104Y-131461000D01*
X131843896Y-131461000D01*
X132126158Y-131404854D01*
X132392043Y-131294721D01*
X132631333Y-131134833D01*
X132834833Y-130931333D01*
X132994721Y-130692043D01*
X133104854Y-130426158D01*
X133161000Y-130143896D01*
X133161000Y-129856104D01*
X134439000Y-129856104D01*
X134439000Y-130143896D01*
X134495146Y-130426158D01*
X134605279Y-130692043D01*
X134765167Y-130931333D01*
X134968667Y-131134833D01*
X135207957Y-131294721D01*
X135473842Y-131404854D01*
X135756104Y-131461000D01*
X136043896Y-131461000D01*
X136326158Y-131404854D01*
X136592043Y-131294721D01*
X136831333Y-131134833D01*
X137034833Y-130931333D01*
X137194721Y-130692043D01*
X137304854Y-130426158D01*
X137361000Y-130143896D01*
X137361000Y-129856104D01*
X138639000Y-129856104D01*
X138639000Y-130143896D01*
X138695146Y-130426158D01*
X138805279Y-130692043D01*
X138965167Y-130931333D01*
X139168667Y-131134833D01*
X139407957Y-131294721D01*
X139673842Y-131404854D01*
X139956104Y-131461000D01*
X140243896Y-131461000D01*
X140526158Y-131404854D01*
X140792043Y-131294721D01*
X141031333Y-131134833D01*
X141234833Y-130931333D01*
X141394721Y-130692043D01*
X141504854Y-130426158D01*
X141561000Y-130143896D01*
X141561000Y-129856104D01*
X142839000Y-129856104D01*
X142839000Y-130143896D01*
X142895146Y-130426158D01*
X143005279Y-130692043D01*
X143165167Y-130931333D01*
X143368667Y-131134833D01*
X143607957Y-131294721D01*
X143873842Y-131404854D01*
X144156104Y-131461000D01*
X144443896Y-131461000D01*
X144726158Y-131404854D01*
X144992043Y-131294721D01*
X145231333Y-131134833D01*
X145434833Y-130931333D01*
X145594721Y-130692043D01*
X145704854Y-130426158D01*
X145761000Y-130143896D01*
X145761000Y-129856104D01*
X145704854Y-129573842D01*
X145594721Y-129307957D01*
X145550606Y-129241934D01*
X146989000Y-129241934D01*
X146989000Y-129638066D01*
X147066282Y-130026587D01*
X147217875Y-130392566D01*
X147437955Y-130721938D01*
X147718062Y-131002045D01*
X148047434Y-131222125D01*
X148413413Y-131373718D01*
X148801934Y-131451000D01*
X149198066Y-131451000D01*
X149586587Y-131373718D01*
X149952566Y-131222125D01*
X150281938Y-131002045D01*
X150562045Y-130721938D01*
X150782125Y-130392566D01*
X150933718Y-130026587D01*
X151011000Y-129638066D01*
X151011000Y-129241934D01*
X150933718Y-128853413D01*
X150782125Y-128487434D01*
X150562045Y-128158062D01*
X150281938Y-127877955D01*
X149952566Y-127657875D01*
X149586587Y-127506282D01*
X149198066Y-127429000D01*
X148801934Y-127429000D01*
X148413413Y-127506282D01*
X148047434Y-127657875D01*
X147718062Y-127877955D01*
X147437955Y-128158062D01*
X147217875Y-128487434D01*
X147066282Y-128853413D01*
X146989000Y-129241934D01*
X145550606Y-129241934D01*
X145434833Y-129068667D01*
X145231333Y-128865167D01*
X144992043Y-128705279D01*
X144726158Y-128595146D01*
X144443896Y-128539000D01*
X144156104Y-128539000D01*
X143873842Y-128595146D01*
X143607957Y-128705279D01*
X143368667Y-128865167D01*
X143165167Y-129068667D01*
X143005279Y-129307957D01*
X142895146Y-129573842D01*
X142839000Y-129856104D01*
X141561000Y-129856104D01*
X141504854Y-129573842D01*
X141394721Y-129307957D01*
X141234833Y-129068667D01*
X141031333Y-128865167D01*
X140792043Y-128705279D01*
X140526158Y-128595146D01*
X140243896Y-128539000D01*
X139956104Y-128539000D01*
X139673842Y-128595146D01*
X139407957Y-128705279D01*
X139168667Y-128865167D01*
X138965167Y-129068667D01*
X138805279Y-129307957D01*
X138695146Y-129573842D01*
X138639000Y-129856104D01*
X137361000Y-129856104D01*
X137304854Y-129573842D01*
X137194721Y-129307957D01*
X137034833Y-129068667D01*
X136831333Y-128865167D01*
X136592043Y-128705279D01*
X136326158Y-128595146D01*
X136043896Y-128539000D01*
X135756104Y-128539000D01*
X135473842Y-128595146D01*
X135207957Y-128705279D01*
X134968667Y-128865167D01*
X134765167Y-129068667D01*
X134605279Y-129307957D01*
X134495146Y-129573842D01*
X134439000Y-129856104D01*
X133161000Y-129856104D01*
X133104854Y-129573842D01*
X132994721Y-129307957D01*
X132834833Y-129068667D01*
X132631333Y-128865167D01*
X132392043Y-128705279D01*
X132126158Y-128595146D01*
X131843896Y-128539000D01*
X131556104Y-128539000D01*
X131273842Y-128595146D01*
X131007957Y-128705279D01*
X130768667Y-128865167D01*
X130565167Y-129068667D01*
X130405279Y-129307957D01*
X130295146Y-129573842D01*
X130239000Y-129856104D01*
X128961000Y-129856104D01*
X128904854Y-129573842D01*
X128794721Y-129307957D01*
X128634833Y-129068667D01*
X128431333Y-128865167D01*
X128192043Y-128705279D01*
X127926158Y-128595146D01*
X127643896Y-128539000D01*
X127356104Y-128539000D01*
X127073842Y-128595146D01*
X126807957Y-128705279D01*
X126568667Y-128865167D01*
X126365167Y-129068667D01*
X126205279Y-129307957D01*
X126095146Y-129573842D01*
X126039000Y-129856104D01*
X124767629Y-129856104D01*
X124811000Y-129638066D01*
X124811000Y-129241934D01*
X124733718Y-128853413D01*
X124582125Y-128487434D01*
X124362045Y-128158062D01*
X124081938Y-127877955D01*
X123752566Y-127657875D01*
X123386587Y-127506282D01*
X122998066Y-127429000D01*
X122601934Y-127429000D01*
X122213413Y-127506282D01*
X121847434Y-127657875D01*
X121518062Y-127877955D01*
X121237955Y-128158062D01*
X121017875Y-128487434D01*
X120866282Y-128853413D01*
X120789000Y-129241934D01*
X119505232Y-129241934D01*
X119431520Y-129192682D01*
X119265729Y-129124009D01*
X119089726Y-129089000D01*
X118910274Y-129089000D01*
X118734271Y-129124009D01*
X118568480Y-129192682D01*
X118419271Y-129292380D01*
X118292380Y-129419271D01*
X118192682Y-129568480D01*
X118124009Y-129734271D01*
X118089000Y-129910274D01*
X90536000Y-129910274D01*
X90536000Y-124410274D01*
X112089000Y-124410274D01*
X112089000Y-124589726D01*
X112124009Y-124765729D01*
X112192682Y-124931520D01*
X112292380Y-125080729D01*
X112419271Y-125207620D01*
X112568480Y-125307318D01*
X112734271Y-125375991D01*
X112910274Y-125411000D01*
X113089726Y-125411000D01*
X113265729Y-125375991D01*
X113431520Y-125307318D01*
X113580729Y-125207620D01*
X113707620Y-125080729D01*
X113807318Y-124931520D01*
X113875991Y-124765729D01*
X113911000Y-124589726D01*
X113911000Y-124410274D01*
X113875991Y-124234271D01*
X113807318Y-124068480D01*
X113707620Y-123919271D01*
X113580729Y-123792380D01*
X113431520Y-123692682D01*
X113265729Y-123624009D01*
X113089726Y-123589000D01*
X112910274Y-123589000D01*
X112734271Y-123624009D01*
X112568480Y-123692682D01*
X112419271Y-123792380D01*
X112292380Y-123919271D01*
X112192682Y-124068480D01*
X112124009Y-124234271D01*
X112089000Y-124410274D01*
X90536000Y-124410274D01*
X90536000Y-120156104D01*
X96239000Y-120156104D01*
X96239000Y-120443896D01*
X96295146Y-120726158D01*
X96405279Y-120992043D01*
X96565167Y-121231333D01*
X96768667Y-121434833D01*
X97007957Y-121594721D01*
X97273842Y-121704854D01*
X97556104Y-121761000D01*
X97843896Y-121761000D01*
X98126158Y-121704854D01*
X98392043Y-121594721D01*
X98631333Y-121434833D01*
X98834833Y-121231333D01*
X98994721Y-120992043D01*
X99104854Y-120726158D01*
X99161000Y-120443896D01*
X99161000Y-120156104D01*
X100439000Y-120156104D01*
X100439000Y-120443896D01*
X100495146Y-120726158D01*
X100605279Y-120992043D01*
X100765167Y-121231333D01*
X100968667Y-121434833D01*
X101207957Y-121594721D01*
X101473842Y-121704854D01*
X101756104Y-121761000D01*
X102043896Y-121761000D01*
X102326158Y-121704854D01*
X102592043Y-121594721D01*
X102831333Y-121434833D01*
X103034833Y-121231333D01*
X103194721Y-120992043D01*
X103304854Y-120726158D01*
X103361000Y-120443896D01*
X103361000Y-120156104D01*
X104639000Y-120156104D01*
X104639000Y-120443896D01*
X104695146Y-120726158D01*
X104805279Y-120992043D01*
X104965167Y-121231333D01*
X105168667Y-121434833D01*
X105407957Y-121594721D01*
X105673842Y-121704854D01*
X105956104Y-121761000D01*
X106243896Y-121761000D01*
X106526158Y-121704854D01*
X106792043Y-121594721D01*
X107031333Y-121434833D01*
X107234833Y-121231333D01*
X107394721Y-120992043D01*
X107504854Y-120726158D01*
X107561000Y-120443896D01*
X107561000Y-120156104D01*
X108839000Y-120156104D01*
X108839000Y-120443896D01*
X108895146Y-120726158D01*
X109005279Y-120992043D01*
X109165167Y-121231333D01*
X109368667Y-121434833D01*
X109607957Y-121594721D01*
X109873842Y-121704854D01*
X110156104Y-121761000D01*
X110443896Y-121761000D01*
X110726158Y-121704854D01*
X110992043Y-121594721D01*
X111231333Y-121434833D01*
X111434833Y-121231333D01*
X111594721Y-120992043D01*
X111704854Y-120726158D01*
X111761000Y-120443896D01*
X111761000Y-120156104D01*
X113039000Y-120156104D01*
X113039000Y-120443896D01*
X113095146Y-120726158D01*
X113205279Y-120992043D01*
X113365167Y-121231333D01*
X113568667Y-121434833D01*
X113807957Y-121594721D01*
X114073842Y-121704854D01*
X114356104Y-121761000D01*
X114643896Y-121761000D01*
X114926158Y-121704854D01*
X115192043Y-121594721D01*
X115431333Y-121434833D01*
X115634833Y-121231333D01*
X115794721Y-120992043D01*
X115904854Y-120726158D01*
X115961000Y-120443896D01*
X115961000Y-120156104D01*
X117239000Y-120156104D01*
X117239000Y-120443896D01*
X117295146Y-120726158D01*
X117405279Y-120992043D01*
X117565167Y-121231333D01*
X117768667Y-121434833D01*
X118007957Y-121594721D01*
X118273842Y-121704854D01*
X118556104Y-121761000D01*
X118843896Y-121761000D01*
X119126158Y-121704854D01*
X119392043Y-121594721D01*
X119631333Y-121434833D01*
X119732879Y-121333287D01*
X122046318Y-121333287D01*
X122143071Y-121557889D01*
X122403017Y-121681388D01*
X122682062Y-121751801D01*
X122969482Y-121766423D01*
X123254232Y-121724690D01*
X123525369Y-121628207D01*
X123656929Y-121557889D01*
X123753682Y-121333287D01*
X122900000Y-120479605D01*
X122046318Y-121333287D01*
X119732879Y-121333287D01*
X119834833Y-121231333D01*
X119994721Y-120992043D01*
X120104854Y-120726158D01*
X120161000Y-120443896D01*
X120161000Y-120369482D01*
X121433577Y-120369482D01*
X121475310Y-120654232D01*
X121571793Y-120925369D01*
X121642111Y-121056929D01*
X121866713Y-121153682D01*
X122720395Y-120300000D01*
X123079605Y-120300000D01*
X123933287Y-121153682D01*
X124157889Y-121056929D01*
X124281388Y-120796983D01*
X124351801Y-120517938D01*
X124366423Y-120230518D01*
X124355517Y-120156104D01*
X125639000Y-120156104D01*
X125639000Y-120443896D01*
X125695146Y-120726158D01*
X125805279Y-120992043D01*
X125965167Y-121231333D01*
X126168667Y-121434833D01*
X126407957Y-121594721D01*
X126673842Y-121704854D01*
X126956104Y-121761000D01*
X127243896Y-121761000D01*
X127526158Y-121704854D01*
X127792043Y-121594721D01*
X128031333Y-121434833D01*
X128132879Y-121333287D01*
X130446318Y-121333287D01*
X130543071Y-121557889D01*
X130803017Y-121681388D01*
X131082062Y-121751801D01*
X131369482Y-121766423D01*
X131654232Y-121724690D01*
X131925369Y-121628207D01*
X132056929Y-121557889D01*
X132153682Y-121333287D01*
X131300000Y-120479605D01*
X130446318Y-121333287D01*
X128132879Y-121333287D01*
X128234833Y-121231333D01*
X128394721Y-120992043D01*
X128504854Y-120726158D01*
X128561000Y-120443896D01*
X128561000Y-120369482D01*
X129833577Y-120369482D01*
X129875310Y-120654232D01*
X129971793Y-120925369D01*
X130042111Y-121056929D01*
X130266713Y-121153682D01*
X131120395Y-120300000D01*
X131479605Y-120300000D01*
X132333287Y-121153682D01*
X132557889Y-121056929D01*
X132681388Y-120796983D01*
X132751801Y-120517938D01*
X132766423Y-120230518D01*
X132755517Y-120156104D01*
X134039000Y-120156104D01*
X134039000Y-120443896D01*
X134095146Y-120726158D01*
X134205279Y-120992043D01*
X134365167Y-121231333D01*
X134568667Y-121434833D01*
X134807957Y-121594721D01*
X135073842Y-121704854D01*
X135356104Y-121761000D01*
X135643896Y-121761000D01*
X135926158Y-121704854D01*
X136192043Y-121594721D01*
X136431333Y-121434833D01*
X136634833Y-121231333D01*
X136794721Y-120992043D01*
X136904854Y-120726158D01*
X136961000Y-120443896D01*
X136961000Y-120156104D01*
X138239000Y-120156104D01*
X138239000Y-120443896D01*
X138295146Y-120726158D01*
X138405279Y-120992043D01*
X138565167Y-121231333D01*
X138768667Y-121434833D01*
X139007957Y-121594721D01*
X139273842Y-121704854D01*
X139556104Y-121761000D01*
X139843896Y-121761000D01*
X140126158Y-121704854D01*
X140392043Y-121594721D01*
X140631333Y-121434833D01*
X140834833Y-121231333D01*
X140994721Y-120992043D01*
X141104854Y-120726158D01*
X141161000Y-120443896D01*
X141161000Y-120156104D01*
X141104854Y-119873842D01*
X140994721Y-119607957D01*
X140834833Y-119368667D01*
X140816166Y-119350000D01*
X142436528Y-119350000D01*
X142436528Y-121250000D01*
X142446394Y-121350173D01*
X142475614Y-121446497D01*
X142523064Y-121535270D01*
X142586920Y-121613080D01*
X142664730Y-121676936D01*
X142753503Y-121724386D01*
X142849827Y-121753606D01*
X142950000Y-121763472D01*
X144850000Y-121763472D01*
X144950173Y-121753606D01*
X145046497Y-121724386D01*
X145135270Y-121676936D01*
X145213080Y-121613080D01*
X145276936Y-121535270D01*
X145324386Y-121446497D01*
X145353606Y-121350173D01*
X145363472Y-121250000D01*
X145363472Y-119350000D01*
X145353606Y-119249827D01*
X145324386Y-119153503D01*
X145276936Y-119064730D01*
X145213080Y-118986920D01*
X145135270Y-118923064D01*
X145046497Y-118875614D01*
X144950173Y-118846394D01*
X144850000Y-118836528D01*
X142950000Y-118836528D01*
X142849827Y-118846394D01*
X142753503Y-118875614D01*
X142664730Y-118923064D01*
X142586920Y-118986920D01*
X142523064Y-119064730D01*
X142475614Y-119153503D01*
X142446394Y-119249827D01*
X142436528Y-119350000D01*
X140816166Y-119350000D01*
X140631333Y-119165167D01*
X140392043Y-119005279D01*
X140126158Y-118895146D01*
X139843896Y-118839000D01*
X139556104Y-118839000D01*
X139273842Y-118895146D01*
X139007957Y-119005279D01*
X138768667Y-119165167D01*
X138565167Y-119368667D01*
X138405279Y-119607957D01*
X138295146Y-119873842D01*
X138239000Y-120156104D01*
X136961000Y-120156104D01*
X136904854Y-119873842D01*
X136794721Y-119607957D01*
X136634833Y-119368667D01*
X136431333Y-119165167D01*
X136192043Y-119005279D01*
X135926158Y-118895146D01*
X135643896Y-118839000D01*
X135356104Y-118839000D01*
X135073842Y-118895146D01*
X134807957Y-119005279D01*
X134568667Y-119165167D01*
X134365167Y-119368667D01*
X134205279Y-119607957D01*
X134095146Y-119873842D01*
X134039000Y-120156104D01*
X132755517Y-120156104D01*
X132724690Y-119945768D01*
X132628207Y-119674631D01*
X132557889Y-119543071D01*
X132333287Y-119446318D01*
X131479605Y-120300000D01*
X131120395Y-120300000D01*
X130266713Y-119446318D01*
X130042111Y-119543071D01*
X129918612Y-119803017D01*
X129848199Y-120082062D01*
X129833577Y-120369482D01*
X128561000Y-120369482D01*
X128561000Y-120156104D01*
X128504854Y-119873842D01*
X128394721Y-119607957D01*
X128234833Y-119368667D01*
X128132879Y-119266713D01*
X130446318Y-119266713D01*
X131300000Y-120120395D01*
X132153682Y-119266713D01*
X132056929Y-119042111D01*
X131796983Y-118918612D01*
X131517938Y-118848199D01*
X131230518Y-118833577D01*
X130945768Y-118875310D01*
X130674631Y-118971793D01*
X130543071Y-119042111D01*
X130446318Y-119266713D01*
X128132879Y-119266713D01*
X128031333Y-119165167D01*
X127792043Y-119005279D01*
X127526158Y-118895146D01*
X127243896Y-118839000D01*
X126956104Y-118839000D01*
X126673842Y-118895146D01*
X126407957Y-119005279D01*
X126168667Y-119165167D01*
X125965167Y-119368667D01*
X125805279Y-119607957D01*
X125695146Y-119873842D01*
X125639000Y-120156104D01*
X124355517Y-120156104D01*
X124324690Y-119945768D01*
X124228207Y-119674631D01*
X124157889Y-119543071D01*
X123933287Y-119446318D01*
X123079605Y-120300000D01*
X122720395Y-120300000D01*
X121866713Y-119446318D01*
X121642111Y-119543071D01*
X121518612Y-119803017D01*
X121448199Y-120082062D01*
X121433577Y-120369482D01*
X120161000Y-120369482D01*
X120161000Y-120156104D01*
X120104854Y-119873842D01*
X119994721Y-119607957D01*
X119834833Y-119368667D01*
X119732879Y-119266713D01*
X122046318Y-119266713D01*
X122900000Y-120120395D01*
X123753682Y-119266713D01*
X123656929Y-119042111D01*
X123396983Y-118918612D01*
X123117938Y-118848199D01*
X122830518Y-118833577D01*
X122545768Y-118875310D01*
X122274631Y-118971793D01*
X122143071Y-119042111D01*
X122046318Y-119266713D01*
X119732879Y-119266713D01*
X119631333Y-119165167D01*
X119392043Y-119005279D01*
X119126158Y-118895146D01*
X118843896Y-118839000D01*
X118556104Y-118839000D01*
X118273842Y-118895146D01*
X118007957Y-119005279D01*
X117768667Y-119165167D01*
X117565167Y-119368667D01*
X117405279Y-119607957D01*
X117295146Y-119873842D01*
X117239000Y-120156104D01*
X115961000Y-120156104D01*
X115904854Y-119873842D01*
X115794721Y-119607957D01*
X115634833Y-119368667D01*
X115431333Y-119165167D01*
X115192043Y-119005279D01*
X114926158Y-118895146D01*
X114643896Y-118839000D01*
X114356104Y-118839000D01*
X114073842Y-118895146D01*
X113807957Y-119005279D01*
X113568667Y-119165167D01*
X113365167Y-119368667D01*
X113205279Y-119607957D01*
X113095146Y-119873842D01*
X113039000Y-120156104D01*
X111761000Y-120156104D01*
X111704854Y-119873842D01*
X111594721Y-119607957D01*
X111434833Y-119368667D01*
X111231333Y-119165167D01*
X110992043Y-119005279D01*
X110726158Y-118895146D01*
X110443896Y-118839000D01*
X110156104Y-118839000D01*
X109873842Y-118895146D01*
X109607957Y-119005279D01*
X109368667Y-119165167D01*
X109165167Y-119368667D01*
X109005279Y-119607957D01*
X108895146Y-119873842D01*
X108839000Y-120156104D01*
X107561000Y-120156104D01*
X107504854Y-119873842D01*
X107394721Y-119607957D01*
X107234833Y-119368667D01*
X107031333Y-119165167D01*
X106792043Y-119005279D01*
X106526158Y-118895146D01*
X106243896Y-118839000D01*
X105956104Y-118839000D01*
X105673842Y-118895146D01*
X105407957Y-119005279D01*
X105168667Y-119165167D01*
X104965167Y-119368667D01*
X104805279Y-119607957D01*
X104695146Y-119873842D01*
X104639000Y-120156104D01*
X103361000Y-120156104D01*
X103304854Y-119873842D01*
X103194721Y-119607957D01*
X103034833Y-119368667D01*
X102831333Y-119165167D01*
X102592043Y-119005279D01*
X102326158Y-118895146D01*
X102043896Y-118839000D01*
X101756104Y-118839000D01*
X101473842Y-118895146D01*
X101207957Y-119005279D01*
X100968667Y-119165167D01*
X100765167Y-119368667D01*
X100605279Y-119607957D01*
X100495146Y-119873842D01*
X100439000Y-120156104D01*
X99161000Y-120156104D01*
X99104854Y-119873842D01*
X98994721Y-119607957D01*
X98834833Y-119368667D01*
X98631333Y-119165167D01*
X98392043Y-119005279D01*
X98126158Y-118895146D01*
X97843896Y-118839000D01*
X97556104Y-118839000D01*
X97273842Y-118895146D01*
X97007957Y-119005279D01*
X96768667Y-119165167D01*
X96565167Y-119368667D01*
X96405279Y-119607957D01*
X96295146Y-119873842D01*
X96239000Y-120156104D01*
X90536000Y-120156104D01*
X90536000Y-115061934D01*
X90989000Y-115061934D01*
X90989000Y-115458066D01*
X91066282Y-115846587D01*
X91217875Y-116212566D01*
X91437955Y-116541938D01*
X91718062Y-116822045D01*
X92047434Y-117042125D01*
X92413413Y-117193718D01*
X92801934Y-117271000D01*
X93198066Y-117271000D01*
X93586587Y-117193718D01*
X93952566Y-117042125D01*
X94281938Y-116822045D01*
X94562045Y-116541938D01*
X94782125Y-116212566D01*
X94933718Y-115846587D01*
X95011000Y-115458066D01*
X95011000Y-115061934D01*
X94933718Y-114673413D01*
X94926549Y-114656104D01*
X96239000Y-114656104D01*
X96239000Y-114943896D01*
X96295146Y-115226158D01*
X96405279Y-115492043D01*
X96565167Y-115731333D01*
X96768667Y-115934833D01*
X97007957Y-116094721D01*
X97273842Y-116204854D01*
X97556104Y-116261000D01*
X97843896Y-116261000D01*
X98126158Y-116204854D01*
X98392043Y-116094721D01*
X98631333Y-115934833D01*
X98732879Y-115833287D01*
X101046318Y-115833287D01*
X101143071Y-116057889D01*
X101403017Y-116181388D01*
X101682062Y-116251801D01*
X101969482Y-116266423D01*
X102254232Y-116224690D01*
X102525369Y-116128207D01*
X102656929Y-116057889D01*
X102753682Y-115833287D01*
X105246318Y-115833287D01*
X105343071Y-116057889D01*
X105603017Y-116181388D01*
X105882062Y-116251801D01*
X106169482Y-116266423D01*
X106454232Y-116224690D01*
X106725369Y-116128207D01*
X106856929Y-116057889D01*
X106953682Y-115833287D01*
X109446318Y-115833287D01*
X109543071Y-116057889D01*
X109803017Y-116181388D01*
X110082062Y-116251801D01*
X110369482Y-116266423D01*
X110654232Y-116224690D01*
X110925369Y-116128207D01*
X111056929Y-116057889D01*
X111153682Y-115833287D01*
X110300000Y-114979605D01*
X109446318Y-115833287D01*
X106953682Y-115833287D01*
X106100000Y-114979605D01*
X105246318Y-115833287D01*
X102753682Y-115833287D01*
X101900000Y-114979605D01*
X101046318Y-115833287D01*
X98732879Y-115833287D01*
X98834833Y-115731333D01*
X98994721Y-115492043D01*
X99104854Y-115226158D01*
X99161000Y-114943896D01*
X99161000Y-114869482D01*
X100433577Y-114869482D01*
X100475310Y-115154232D01*
X100571793Y-115425369D01*
X100642111Y-115556929D01*
X100866713Y-115653682D01*
X101720395Y-114800000D01*
X102079605Y-114800000D01*
X102933287Y-115653682D01*
X103157889Y-115556929D01*
X103281388Y-115296983D01*
X103351801Y-115017938D01*
X103359353Y-114869482D01*
X104633577Y-114869482D01*
X104675310Y-115154232D01*
X104771793Y-115425369D01*
X104842111Y-115556929D01*
X105066713Y-115653682D01*
X105920395Y-114800000D01*
X106279605Y-114800000D01*
X107133287Y-115653682D01*
X107357889Y-115556929D01*
X107481388Y-115296983D01*
X107551801Y-115017938D01*
X107559353Y-114869482D01*
X108833577Y-114869482D01*
X108875310Y-115154232D01*
X108971793Y-115425369D01*
X109042111Y-115556929D01*
X109266713Y-115653682D01*
X110120395Y-114800000D01*
X110479605Y-114800000D01*
X111333287Y-115653682D01*
X111557889Y-115556929D01*
X111681388Y-115296983D01*
X111751801Y-115017938D01*
X111766423Y-114730518D01*
X111755517Y-114656104D01*
X113039000Y-114656104D01*
X113039000Y-114943896D01*
X113095146Y-115226158D01*
X113205279Y-115492043D01*
X113365167Y-115731333D01*
X113568667Y-115934833D01*
X113807957Y-116094721D01*
X114073842Y-116204854D01*
X114356104Y-116261000D01*
X114643896Y-116261000D01*
X114926158Y-116204854D01*
X115192043Y-116094721D01*
X115431333Y-115934833D01*
X115634833Y-115731333D01*
X115794721Y-115492043D01*
X115904854Y-115226158D01*
X115961000Y-114943896D01*
X115961000Y-114656104D01*
X117239000Y-114656104D01*
X117239000Y-114943896D01*
X117295146Y-115226158D01*
X117405279Y-115492043D01*
X117565167Y-115731333D01*
X117768667Y-115934833D01*
X118007957Y-116094721D01*
X118273842Y-116204854D01*
X118556104Y-116261000D01*
X118843896Y-116261000D01*
X119126158Y-116204854D01*
X119392043Y-116094721D01*
X119631333Y-115934833D01*
X119834833Y-115731333D01*
X119994721Y-115492043D01*
X120104854Y-115226158D01*
X120161000Y-114943896D01*
X120161000Y-114656104D01*
X121439000Y-114656104D01*
X121439000Y-114943896D01*
X121495146Y-115226158D01*
X121605279Y-115492043D01*
X121765167Y-115731333D01*
X121968667Y-115934833D01*
X122207957Y-116094721D01*
X122473842Y-116204854D01*
X122756104Y-116261000D01*
X123043896Y-116261000D01*
X123326158Y-116204854D01*
X123592043Y-116094721D01*
X123831333Y-115934833D01*
X124034833Y-115731333D01*
X124194721Y-115492043D01*
X124304854Y-115226158D01*
X124361000Y-114943896D01*
X124361000Y-114656104D01*
X125639000Y-114656104D01*
X125639000Y-114943896D01*
X125695146Y-115226158D01*
X125805279Y-115492043D01*
X125965167Y-115731333D01*
X126168667Y-115934833D01*
X126407957Y-116094721D01*
X126673842Y-116204854D01*
X126956104Y-116261000D01*
X127243896Y-116261000D01*
X127526158Y-116204854D01*
X127792043Y-116094721D01*
X128031333Y-115934833D01*
X128234833Y-115731333D01*
X128394721Y-115492043D01*
X128504854Y-115226158D01*
X128561000Y-114943896D01*
X128561000Y-114656104D01*
X129839000Y-114656104D01*
X129839000Y-114943896D01*
X129895146Y-115226158D01*
X130005279Y-115492043D01*
X130165167Y-115731333D01*
X130368667Y-115934833D01*
X130607957Y-116094721D01*
X130873842Y-116204854D01*
X131156104Y-116261000D01*
X131443896Y-116261000D01*
X131726158Y-116204854D01*
X131992043Y-116094721D01*
X132231333Y-115934833D01*
X132434833Y-115731333D01*
X132594721Y-115492043D01*
X132704854Y-115226158D01*
X132761000Y-114943896D01*
X132761000Y-114656104D01*
X134039000Y-114656104D01*
X134039000Y-114943896D01*
X134095146Y-115226158D01*
X134205279Y-115492043D01*
X134365167Y-115731333D01*
X134568667Y-115934833D01*
X134807957Y-116094721D01*
X135073842Y-116204854D01*
X135356104Y-116261000D01*
X135643896Y-116261000D01*
X135926158Y-116204854D01*
X136192043Y-116094721D01*
X136431333Y-115934833D01*
X136634833Y-115731333D01*
X136794721Y-115492043D01*
X136904854Y-115226158D01*
X136961000Y-114943896D01*
X136961000Y-114656104D01*
X138239000Y-114656104D01*
X138239000Y-114943896D01*
X138295146Y-115226158D01*
X138405279Y-115492043D01*
X138565167Y-115731333D01*
X138768667Y-115934833D01*
X139007957Y-116094721D01*
X139273842Y-116204854D01*
X139556104Y-116261000D01*
X139843896Y-116261000D01*
X140126158Y-116204854D01*
X140392043Y-116094721D01*
X140631333Y-115934833D01*
X140834833Y-115731333D01*
X140994721Y-115492043D01*
X141104854Y-115226158D01*
X141161000Y-114943896D01*
X141161000Y-114656104D01*
X142439000Y-114656104D01*
X142439000Y-114943896D01*
X142495146Y-115226158D01*
X142605279Y-115492043D01*
X142765167Y-115731333D01*
X142968667Y-115934833D01*
X143207957Y-116094721D01*
X143473842Y-116204854D01*
X143756104Y-116261000D01*
X144043896Y-116261000D01*
X144326158Y-116204854D01*
X144592043Y-116094721D01*
X144831333Y-115934833D01*
X145034833Y-115731333D01*
X145194721Y-115492043D01*
X145304854Y-115226158D01*
X145337520Y-115061934D01*
X146589000Y-115061934D01*
X146589000Y-115458066D01*
X146666282Y-115846587D01*
X146817875Y-116212566D01*
X147037955Y-116541938D01*
X147318062Y-116822045D01*
X147647434Y-117042125D01*
X148013413Y-117193718D01*
X148401934Y-117271000D01*
X148798066Y-117271000D01*
X149186587Y-117193718D01*
X149552566Y-117042125D01*
X149881938Y-116822045D01*
X150162045Y-116541938D01*
X150382125Y-116212566D01*
X150533718Y-115846587D01*
X150611000Y-115458066D01*
X150611000Y-115061934D01*
X150533718Y-114673413D01*
X150382125Y-114307434D01*
X150162045Y-113978062D01*
X149881938Y-113697955D01*
X149552566Y-113477875D01*
X149186587Y-113326282D01*
X148798066Y-113249000D01*
X148401934Y-113249000D01*
X148013413Y-113326282D01*
X147647434Y-113477875D01*
X147318062Y-113697955D01*
X147037955Y-113978062D01*
X146817875Y-114307434D01*
X146666282Y-114673413D01*
X146589000Y-115061934D01*
X145337520Y-115061934D01*
X145361000Y-114943896D01*
X145361000Y-114656104D01*
X145304854Y-114373842D01*
X145194721Y-114107957D01*
X145034833Y-113868667D01*
X144831333Y-113665167D01*
X144592043Y-113505279D01*
X144326158Y-113395146D01*
X144043896Y-113339000D01*
X143756104Y-113339000D01*
X143473842Y-113395146D01*
X143207957Y-113505279D01*
X142968667Y-113665167D01*
X142765167Y-113868667D01*
X142605279Y-114107957D01*
X142495146Y-114373842D01*
X142439000Y-114656104D01*
X141161000Y-114656104D01*
X141104854Y-114373842D01*
X140994721Y-114107957D01*
X140834833Y-113868667D01*
X140631333Y-113665167D01*
X140392043Y-113505279D01*
X140126158Y-113395146D01*
X139843896Y-113339000D01*
X139556104Y-113339000D01*
X139273842Y-113395146D01*
X139007957Y-113505279D01*
X138768667Y-113665167D01*
X138565167Y-113868667D01*
X138405279Y-114107957D01*
X138295146Y-114373842D01*
X138239000Y-114656104D01*
X136961000Y-114656104D01*
X136904854Y-114373842D01*
X136794721Y-114107957D01*
X136634833Y-113868667D01*
X136431333Y-113665167D01*
X136192043Y-113505279D01*
X135926158Y-113395146D01*
X135643896Y-113339000D01*
X135356104Y-113339000D01*
X135073842Y-113395146D01*
X134807957Y-113505279D01*
X134568667Y-113665167D01*
X134365167Y-113868667D01*
X134205279Y-114107957D01*
X134095146Y-114373842D01*
X134039000Y-114656104D01*
X132761000Y-114656104D01*
X132704854Y-114373842D01*
X132594721Y-114107957D01*
X132434833Y-113868667D01*
X132231333Y-113665167D01*
X131992043Y-113505279D01*
X131726158Y-113395146D01*
X131443896Y-113339000D01*
X131156104Y-113339000D01*
X130873842Y-113395146D01*
X130607957Y-113505279D01*
X130368667Y-113665167D01*
X130165167Y-113868667D01*
X130005279Y-114107957D01*
X129895146Y-114373842D01*
X129839000Y-114656104D01*
X128561000Y-114656104D01*
X128504854Y-114373842D01*
X128394721Y-114107957D01*
X128234833Y-113868667D01*
X128031333Y-113665167D01*
X127792043Y-113505279D01*
X127526158Y-113395146D01*
X127243896Y-113339000D01*
X126956104Y-113339000D01*
X126673842Y-113395146D01*
X126407957Y-113505279D01*
X126168667Y-113665167D01*
X125965167Y-113868667D01*
X125805279Y-114107957D01*
X125695146Y-114373842D01*
X125639000Y-114656104D01*
X124361000Y-114656104D01*
X124304854Y-114373842D01*
X124194721Y-114107957D01*
X124034833Y-113868667D01*
X123831333Y-113665167D01*
X123592043Y-113505279D01*
X123326158Y-113395146D01*
X123043896Y-113339000D01*
X122756104Y-113339000D01*
X122473842Y-113395146D01*
X122207957Y-113505279D01*
X121968667Y-113665167D01*
X121765167Y-113868667D01*
X121605279Y-114107957D01*
X121495146Y-114373842D01*
X121439000Y-114656104D01*
X120161000Y-114656104D01*
X120104854Y-114373842D01*
X119994721Y-114107957D01*
X119834833Y-113868667D01*
X119631333Y-113665167D01*
X119392043Y-113505279D01*
X119126158Y-113395146D01*
X118843896Y-113339000D01*
X118556104Y-113339000D01*
X118273842Y-113395146D01*
X118007957Y-113505279D01*
X117768667Y-113665167D01*
X117565167Y-113868667D01*
X117405279Y-114107957D01*
X117295146Y-114373842D01*
X117239000Y-114656104D01*
X115961000Y-114656104D01*
X115904854Y-114373842D01*
X115794721Y-114107957D01*
X115634833Y-113868667D01*
X115431333Y-113665167D01*
X115192043Y-113505279D01*
X114926158Y-113395146D01*
X114643896Y-113339000D01*
X114356104Y-113339000D01*
X114073842Y-113395146D01*
X113807957Y-113505279D01*
X113568667Y-113665167D01*
X113365167Y-113868667D01*
X113205279Y-114107957D01*
X113095146Y-114373842D01*
X113039000Y-114656104D01*
X111755517Y-114656104D01*
X111724690Y-114445768D01*
X111628207Y-114174631D01*
X111557889Y-114043071D01*
X111333287Y-113946318D01*
X110479605Y-114800000D01*
X110120395Y-114800000D01*
X109266713Y-113946318D01*
X109042111Y-114043071D01*
X108918612Y-114303017D01*
X108848199Y-114582062D01*
X108833577Y-114869482D01*
X107559353Y-114869482D01*
X107566423Y-114730518D01*
X107524690Y-114445768D01*
X107428207Y-114174631D01*
X107357889Y-114043071D01*
X107133287Y-113946318D01*
X106279605Y-114800000D01*
X105920395Y-114800000D01*
X105066713Y-113946318D01*
X104842111Y-114043071D01*
X104718612Y-114303017D01*
X104648199Y-114582062D01*
X104633577Y-114869482D01*
X103359353Y-114869482D01*
X103366423Y-114730518D01*
X103324690Y-114445768D01*
X103228207Y-114174631D01*
X103157889Y-114043071D01*
X102933287Y-113946318D01*
X102079605Y-114800000D01*
X101720395Y-114800000D01*
X100866713Y-113946318D01*
X100642111Y-114043071D01*
X100518612Y-114303017D01*
X100448199Y-114582062D01*
X100433577Y-114869482D01*
X99161000Y-114869482D01*
X99161000Y-114656104D01*
X99104854Y-114373842D01*
X98994721Y-114107957D01*
X98834833Y-113868667D01*
X98732879Y-113766713D01*
X101046318Y-113766713D01*
X101900000Y-114620395D01*
X102753682Y-113766713D01*
X105246318Y-113766713D01*
X106100000Y-114620395D01*
X106953682Y-113766713D01*
X109446318Y-113766713D01*
X110300000Y-114620395D01*
X111153682Y-113766713D01*
X111056929Y-113542111D01*
X110796983Y-113418612D01*
X110517938Y-113348199D01*
X110230518Y-113333577D01*
X109945768Y-113375310D01*
X109674631Y-113471793D01*
X109543071Y-113542111D01*
X109446318Y-113766713D01*
X106953682Y-113766713D01*
X106856929Y-113542111D01*
X106596983Y-113418612D01*
X106317938Y-113348199D01*
X106030518Y-113333577D01*
X105745768Y-113375310D01*
X105474631Y-113471793D01*
X105343071Y-113542111D01*
X105246318Y-113766713D01*
X102753682Y-113766713D01*
X102656929Y-113542111D01*
X102396983Y-113418612D01*
X102117938Y-113348199D01*
X101830518Y-113333577D01*
X101545768Y-113375310D01*
X101274631Y-113471793D01*
X101143071Y-113542111D01*
X101046318Y-113766713D01*
X98732879Y-113766713D01*
X98631333Y-113665167D01*
X98392043Y-113505279D01*
X98126158Y-113395146D01*
X97843896Y-113339000D01*
X97556104Y-113339000D01*
X97273842Y-113395146D01*
X97007957Y-113505279D01*
X96768667Y-113665167D01*
X96565167Y-113868667D01*
X96405279Y-114107957D01*
X96295146Y-114373842D01*
X96239000Y-114656104D01*
X94926549Y-114656104D01*
X94782125Y-114307434D01*
X94562045Y-113978062D01*
X94281938Y-113697955D01*
X93952566Y-113477875D01*
X93586587Y-113326282D01*
X93198066Y-113249000D01*
X92801934Y-113249000D01*
X92413413Y-113326282D01*
X92047434Y-113477875D01*
X91718062Y-113697955D01*
X91437955Y-113978062D01*
X91217875Y-114307434D01*
X91066282Y-114673413D01*
X90989000Y-115061934D01*
X90536000Y-115061934D01*
X90536000Y-110536000D01*
X151064000Y-110536000D01*
X151064001Y-137864000D01*
G37*
%TD.AperFunction*%
%TD*%
M02*
