%TF.GenerationSoftware,KiCad,Pcbnew,5.1.9+dfsg1-1~bpo10+1*%
%TF.CreationDate,2023-02-12T08:43:59+01:00*%
%TF.ProjectId,IIci_ATX,49496369-5f41-4545-982e-6b696361645f,rev?*%
%TF.SameCoordinates,Original*%
%TF.FileFunction,Soldermask,Bot*%
%TF.FilePolarity,Negative*%
%FSLAX46Y46*%
G04 Gerber Fmt 4.6, Leading zero omitted, Abs format (unit mm)*
G04 Created by KiCad (PCBNEW 5.1.9+dfsg1-1~bpo10+1) date 2023-02-12 08:43:59*
%MOMM*%
%LPD*%
G01*
G04 APERTURE LIST*
%ADD10C,0.010000*%
%ADD11C,1.026200*%
%ADD12C,1.576200*%
%ADD13C,3.000000*%
%ADD14C,1.308000*%
%ADD15C,2.250000*%
G04 APERTURE END LIST*
D10*
%TO.C,J1*%
G36*
X142873800Y-119273800D02*
G01*
X144926200Y-119273800D01*
X144926200Y-121326200D01*
X142873800Y-121326200D01*
X142873800Y-119273800D01*
G37*
X142873800Y-119273800D02*
X144926200Y-119273800D01*
X144926200Y-121326200D01*
X142873800Y-121326200D01*
X142873800Y-119273800D01*
D11*
X140213100Y-120300000D02*
G75*
G03*
X140213100Y-120300000I-513100J0D01*
G01*
X136013100Y-120300000D02*
G75*
G03*
X136013100Y-120300000I-513100J0D01*
G01*
X131813100Y-120300000D02*
G75*
G03*
X131813100Y-120300000I-513100J0D01*
G01*
X127613100Y-120300000D02*
G75*
G03*
X127613100Y-120300000I-513100J0D01*
G01*
X123413100Y-120300000D02*
G75*
G03*
X123413100Y-120300000I-513100J0D01*
G01*
X119213100Y-120300000D02*
G75*
G03*
X119213100Y-120300000I-513100J0D01*
G01*
X115013100Y-120300000D02*
G75*
G03*
X115013100Y-120300000I-513100J0D01*
G01*
X110813100Y-120300000D02*
G75*
G03*
X110813100Y-120300000I-513100J0D01*
G01*
X106613100Y-120300000D02*
G75*
G03*
X106613100Y-120300000I-513100J0D01*
G01*
X102413100Y-120300000D02*
G75*
G03*
X102413100Y-120300000I-513100J0D01*
G01*
X98213100Y-120300000D02*
G75*
G03*
X98213100Y-120300000I-513100J0D01*
G01*
X144413100Y-114800000D02*
G75*
G03*
X144413100Y-114800000I-513100J0D01*
G01*
X140213100Y-114800000D02*
G75*
G03*
X140213100Y-114800000I-513100J0D01*
G01*
X136013100Y-114800000D02*
G75*
G03*
X136013100Y-114800000I-513100J0D01*
G01*
X131813100Y-114800000D02*
G75*
G03*
X131813100Y-114800000I-513100J0D01*
G01*
X127613100Y-114800000D02*
G75*
G03*
X127613100Y-114800000I-513100J0D01*
G01*
X123413100Y-114800000D02*
G75*
G03*
X123413100Y-114800000I-513100J0D01*
G01*
X119213100Y-114800000D02*
G75*
G03*
X119213100Y-114800000I-513100J0D01*
G01*
X115013100Y-114800000D02*
G75*
G03*
X115013100Y-114800000I-513100J0D01*
G01*
X110813100Y-114800000D02*
G75*
G03*
X110813100Y-114800000I-513100J0D01*
G01*
X106613100Y-114800000D02*
G75*
G03*
X106613100Y-114800000I-513100J0D01*
G01*
X102413100Y-114800000D02*
G75*
G03*
X102413100Y-114800000I-513100J0D01*
G01*
X98213100Y-114800000D02*
G75*
G03*
X98213100Y-114800000I-513100J0D01*
G01*
D12*
X93788100Y-115260000D02*
G75*
G03*
X93788100Y-115260000I-788100J0D01*
G01*
X149388100Y-115260000D02*
G75*
G03*
X149388100Y-115260000I-788100J0D01*
G01*
D11*
%TO.C,J2*%
X128013100Y-130000000D02*
G75*
G03*
X128013100Y-130000000I-513100J0D01*
G01*
X132213100Y-130000000D02*
G75*
G03*
X132213100Y-130000000I-513100J0D01*
G01*
X136413100Y-130000000D02*
G75*
G03*
X136413100Y-130000000I-513100J0D01*
G01*
X128013100Y-135500000D02*
G75*
G03*
X128013100Y-135500000I-513100J0D01*
G01*
X132213100Y-135500000D02*
G75*
G03*
X132213100Y-135500000I-513100J0D01*
G01*
X136413100Y-135500000D02*
G75*
G03*
X136413100Y-135500000I-513100J0D01*
G01*
D12*
X123588100Y-129440000D02*
G75*
G03*
X123588100Y-129440000I-788100J0D01*
G01*
D11*
X140613100Y-130000000D02*
G75*
G03*
X140613100Y-130000000I-513100J0D01*
G01*
X144813100Y-130000000D02*
G75*
G03*
X144813100Y-130000000I-513100J0D01*
G01*
D12*
X149788100Y-129440000D02*
G75*
G03*
X149788100Y-129440000I-788100J0D01*
G01*
D11*
X140613100Y-135500000D02*
G75*
G03*
X140613100Y-135500000I-513100J0D01*
G01*
D10*
G36*
X145326200Y-134473800D02*
G01*
X143273800Y-134473800D01*
X143273800Y-136526200D01*
X145326200Y-136526200D01*
X145326200Y-134473800D01*
G37*
X145326200Y-134473800D02*
X143273800Y-134473800D01*
X143273800Y-136526200D01*
X145326200Y-136526200D01*
X145326200Y-134473800D01*
%TD*%
D13*
%TO.C,J1*%
X148600000Y-115260000D03*
X93000000Y-115260000D03*
%TD*%
D14*
%TO.C,U1*%
X109000000Y-134200000D03*
X113000000Y-134200000D03*
X111000000Y-134200000D03*
D15*
X115100000Y-134200000D03*
X106900000Y-134200000D03*
%TD*%
D13*
%TO.C,J2*%
X122800000Y-129440000D03*
X149000000Y-129440000D03*
%TD*%
M02*
