%TF.GenerationSoftware,KiCad,Pcbnew,5.1.9+dfsg1-1~bpo10+1*%
%TF.CreationDate,2023-02-12T08:43:59+01:00*%
%TF.ProjectId,IIci_ATX,49496369-5f41-4545-982e-6b696361645f,rev?*%
%TF.SameCoordinates,Original*%
%TF.FileFunction,Copper,L4,Bot*%
%TF.FilePolarity,Positive*%
%FSLAX46Y46*%
G04 Gerber Fmt 4.6, Leading zero omitted, Abs format (unit mm)*
G04 Created by KiCad (PCBNEW 5.1.9+dfsg1-1~bpo10+1) date 2023-02-12 08:43:59*
%MOMM*%
%LPD*%
G01*
G04 APERTURE LIST*
%TA.AperFunction,ComponentPad*%
%ADD10C,1.900000*%
%TD*%
%TA.AperFunction,ComponentPad*%
%ADD11R,1.900000X1.900000*%
%TD*%
%TA.AperFunction,ComponentPad*%
%ADD12C,1.308000*%
%TD*%
%TA.AperFunction,ComponentPad*%
%ADD13C,2.250000*%
%TD*%
%TA.AperFunction,ViaPad*%
%ADD14C,0.800000*%
%TD*%
%TA.AperFunction,Conductor*%
%ADD15C,0.254000*%
%TD*%
%TA.AperFunction,Conductor*%
%ADD16C,0.100000*%
%TD*%
G04 APERTURE END LIST*
D10*
%TO.P,J1,24*%
%TO.N,GND*%
X97700000Y-114800000D03*
%TO.P,J1,23*%
%TO.N,+5V*%
X101900000Y-114800000D03*
%TO.P,J1,22*%
X106100000Y-114800000D03*
%TO.P,J1,21*%
X110300000Y-114800000D03*
%TO.P,J1,20*%
%TO.N,Net-(J1-Pad20)*%
X114500000Y-114800000D03*
%TO.P,J1,19*%
%TO.N,GND*%
X118700000Y-114800000D03*
%TO.P,J1,18*%
X122900000Y-114800000D03*
%TO.P,J1,17*%
X127100000Y-114800000D03*
%TO.P,J1,16*%
%TO.N,~PS-ON*%
X131300000Y-114800000D03*
%TO.P,J1,15*%
%TO.N,GND*%
X135500000Y-114800000D03*
%TO.P,J1,14*%
%TO.N,-12V*%
X139700000Y-114800000D03*
%TO.P,J1,13*%
%TO.N,Net-(J1-Pad13)*%
X143900000Y-114800000D03*
%TO.P,J1,12*%
%TO.N,Net-(J1-Pad12)*%
X97700000Y-120300000D03*
%TO.P,J1,11*%
%TO.N,+12V*%
X101900000Y-120300000D03*
%TO.P,J1,10*%
X106100000Y-120300000D03*
%TO.P,J1,9*%
%TO.N,+5VD*%
X110300000Y-120300000D03*
%TO.P,J1,8*%
%TO.N,PGOOD*%
X114500000Y-120300000D03*
%TO.P,J1,7*%
%TO.N,GND*%
X118700000Y-120300000D03*
%TO.P,J1,6*%
%TO.N,+5V*%
X122900000Y-120300000D03*
%TO.P,J1,5*%
%TO.N,GND*%
X127100000Y-120300000D03*
%TO.P,J1,4*%
%TO.N,+5V*%
X131300000Y-120300000D03*
%TO.P,J1,3*%
%TO.N,GND*%
X135500000Y-120300000D03*
%TO.P,J1,2*%
%TO.N,Net-(J1-Pad2)*%
X139700000Y-120300000D03*
D11*
%TO.P,J1,1*%
%TO.N,Net-(J1-Pad1)*%
X143900000Y-120300000D03*
%TD*%
D12*
%TO.P,U1,3*%
%TO.N,GND*%
X109000000Y-134200000D03*
%TO.P,U1,1*%
%TO.N,~MAC-ON*%
X113000000Y-134200000D03*
%TO.P,U1,2*%
%TO.N,~PS-ON*%
X111000000Y-134200000D03*
D13*
%TO.P,U1,G1*%
%TO.N,GND*%
X115100000Y-134200000D03*
%TO.P,U1,G2*%
X106900000Y-134200000D03*
%TD*%
D10*
%TO.P,J2,10*%
%TO.N,+5VD*%
X127500000Y-130000000D03*
%TO.P,J2,9*%
%TO.N,MAC-ON*%
X131700000Y-130000000D03*
%TO.P,J2,8*%
%TO.N,-12V*%
X135900000Y-130000000D03*
%TO.P,J2,5*%
%TO.N,GND*%
X127500000Y-135500000D03*
%TO.P,J2,4*%
%TO.N,+5V*%
X131700000Y-135500000D03*
%TO.P,J2,3*%
X135900000Y-135500000D03*
%TO.P,J2,7*%
%TO.N,GND*%
X140100000Y-130000000D03*
%TO.P,J2,6*%
X144300000Y-130000000D03*
%TO.P,J2,2*%
%TO.N,+5V*%
X140100000Y-135500000D03*
D11*
%TO.P,J2,1*%
%TO.N,+12V*%
X144300000Y-135500000D03*
%TD*%
D14*
%TO.N,GND*%
X100000000Y-132000000D03*
X119000000Y-130000000D03*
X113000000Y-124500000D03*
%TD*%
D15*
%TO.N,GND*%
X151064001Y-137864000D02*
X90536000Y-137864000D01*
X90536000Y-136533287D01*
X126646318Y-136533287D01*
X126743071Y-136757889D01*
X127003017Y-136881388D01*
X127282062Y-136951801D01*
X127569482Y-136966423D01*
X127854232Y-136924690D01*
X128125369Y-136828207D01*
X128256929Y-136757889D01*
X128353682Y-136533287D01*
X127500000Y-135679605D01*
X126646318Y-136533287D01*
X90536000Y-136533287D01*
X90536000Y-135358126D01*
X105921479Y-135358126D01*
X106039363Y-135600630D01*
X106329149Y-135741619D01*
X106640873Y-135823365D01*
X106962555Y-135842726D01*
X107281833Y-135798958D01*
X107586437Y-135693743D01*
X107760637Y-135600630D01*
X107878521Y-135358126D01*
X106900000Y-134379605D01*
X105921479Y-135358126D01*
X90536000Y-135358126D01*
X90536000Y-134262555D01*
X105257274Y-134262555D01*
X105301042Y-134581833D01*
X105406257Y-134886437D01*
X105499370Y-135060637D01*
X105741874Y-135178521D01*
X106720395Y-134200000D01*
X107079605Y-134200000D01*
X108058126Y-135178521D01*
X108236938Y-135091599D01*
X108262473Y-135117134D01*
X108357860Y-135021748D01*
X108418724Y-135216124D01*
X108628129Y-135310001D01*
X108851825Y-135361221D01*
X109081215Y-135367817D01*
X109307485Y-135329533D01*
X109521937Y-135247842D01*
X109581276Y-135216124D01*
X109642141Y-135021746D01*
X109000000Y-134379605D01*
X108985858Y-134393748D01*
X108806253Y-134214143D01*
X108820395Y-134200000D01*
X109179605Y-134200000D01*
X109821746Y-134842141D01*
X109992256Y-134788750D01*
X110095085Y-134942644D01*
X110257356Y-135104915D01*
X110448166Y-135232410D01*
X110660182Y-135320230D01*
X110885258Y-135365000D01*
X111114742Y-135365000D01*
X111339818Y-135320230D01*
X111551834Y-135232410D01*
X111742644Y-135104915D01*
X111904915Y-134942644D01*
X112000000Y-134800339D01*
X112095085Y-134942644D01*
X112257356Y-135104915D01*
X112448166Y-135232410D01*
X112660182Y-135320230D01*
X112885258Y-135365000D01*
X113114742Y-135365000D01*
X113149300Y-135358126D01*
X114121479Y-135358126D01*
X114239363Y-135600630D01*
X114529149Y-135741619D01*
X114840873Y-135823365D01*
X115162555Y-135842726D01*
X115481833Y-135798958D01*
X115786437Y-135693743D01*
X115960637Y-135600630D01*
X115975778Y-135569482D01*
X126033577Y-135569482D01*
X126075310Y-135854232D01*
X126171793Y-136125369D01*
X126242111Y-136256929D01*
X126466713Y-136353682D01*
X127320395Y-135500000D01*
X127679605Y-135500000D01*
X128533287Y-136353682D01*
X128757889Y-136256929D01*
X128881388Y-135996983D01*
X128951801Y-135717938D01*
X128966423Y-135430518D01*
X128955517Y-135356104D01*
X130239000Y-135356104D01*
X130239000Y-135643896D01*
X130295146Y-135926158D01*
X130405279Y-136192043D01*
X130565167Y-136431333D01*
X130768667Y-136634833D01*
X131007957Y-136794721D01*
X131273842Y-136904854D01*
X131556104Y-136961000D01*
X131843896Y-136961000D01*
X132126158Y-136904854D01*
X132392043Y-136794721D01*
X132631333Y-136634833D01*
X132834833Y-136431333D01*
X132994721Y-136192043D01*
X133104854Y-135926158D01*
X133161000Y-135643896D01*
X133161000Y-135356104D01*
X134439000Y-135356104D01*
X134439000Y-135643896D01*
X134495146Y-135926158D01*
X134605279Y-136192043D01*
X134765167Y-136431333D01*
X134968667Y-136634833D01*
X135207957Y-136794721D01*
X135473842Y-136904854D01*
X135756104Y-136961000D01*
X136043896Y-136961000D01*
X136326158Y-136904854D01*
X136592043Y-136794721D01*
X136831333Y-136634833D01*
X137034833Y-136431333D01*
X137194721Y-136192043D01*
X137304854Y-135926158D01*
X137361000Y-135643896D01*
X137361000Y-135356104D01*
X138639000Y-135356104D01*
X138639000Y-135643896D01*
X138695146Y-135926158D01*
X138805279Y-136192043D01*
X138965167Y-136431333D01*
X139168667Y-136634833D01*
X139407957Y-136794721D01*
X139673842Y-136904854D01*
X139956104Y-136961000D01*
X140243896Y-136961000D01*
X140526158Y-136904854D01*
X140792043Y-136794721D01*
X141031333Y-136634833D01*
X141234833Y-136431333D01*
X141394721Y-136192043D01*
X141504854Y-135926158D01*
X141561000Y-135643896D01*
X141561000Y-135356104D01*
X141504854Y-135073842D01*
X141394721Y-134807957D01*
X141234833Y-134568667D01*
X141216166Y-134550000D01*
X142836528Y-134550000D01*
X142836528Y-136450000D01*
X142846394Y-136550173D01*
X142875614Y-136646497D01*
X142923064Y-136735270D01*
X142986920Y-136813080D01*
X143064730Y-136876936D01*
X143153503Y-136924386D01*
X143249827Y-136953606D01*
X143350000Y-136963472D01*
X145250000Y-136963472D01*
X145350173Y-136953606D01*
X145446497Y-136924386D01*
X145535270Y-136876936D01*
X145613080Y-136813080D01*
X145676936Y-136735270D01*
X145724386Y-136646497D01*
X145753606Y-136550173D01*
X145763472Y-136450000D01*
X145763472Y-134550000D01*
X145753606Y-134449827D01*
X145724386Y-134353503D01*
X145676936Y-134264730D01*
X145613080Y-134186920D01*
X145535270Y-134123064D01*
X145446497Y-134075614D01*
X145350173Y-134046394D01*
X145250000Y-134036528D01*
X143350000Y-134036528D01*
X143249827Y-134046394D01*
X143153503Y-134075614D01*
X143064730Y-134123064D01*
X142986920Y-134186920D01*
X142923064Y-134264730D01*
X142875614Y-134353503D01*
X142846394Y-134449827D01*
X142836528Y-134550000D01*
X141216166Y-134550000D01*
X141031333Y-134365167D01*
X140792043Y-134205279D01*
X140526158Y-134095146D01*
X140243896Y-134039000D01*
X139956104Y-134039000D01*
X139673842Y-134095146D01*
X139407957Y-134205279D01*
X139168667Y-134365167D01*
X138965167Y-134568667D01*
X138805279Y-134807957D01*
X138695146Y-135073842D01*
X138639000Y-135356104D01*
X137361000Y-135356104D01*
X137304854Y-135073842D01*
X137194721Y-134807957D01*
X137034833Y-134568667D01*
X136831333Y-134365167D01*
X136592043Y-134205279D01*
X136326158Y-134095146D01*
X136043896Y-134039000D01*
X135756104Y-134039000D01*
X135473842Y-134095146D01*
X135207957Y-134205279D01*
X134968667Y-134365167D01*
X134765167Y-134568667D01*
X134605279Y-134807957D01*
X134495146Y-135073842D01*
X134439000Y-135356104D01*
X133161000Y-135356104D01*
X133104854Y-135073842D01*
X132994721Y-134807957D01*
X132834833Y-134568667D01*
X132631333Y-134365167D01*
X132392043Y-134205279D01*
X132126158Y-134095146D01*
X131843896Y-134039000D01*
X131556104Y-134039000D01*
X131273842Y-134095146D01*
X131007957Y-134205279D01*
X130768667Y-134365167D01*
X130565167Y-134568667D01*
X130405279Y-134807957D01*
X130295146Y-135073842D01*
X130239000Y-135356104D01*
X128955517Y-135356104D01*
X128924690Y-135145768D01*
X128828207Y-134874631D01*
X128757889Y-134743071D01*
X128533287Y-134646318D01*
X127679605Y-135500000D01*
X127320395Y-135500000D01*
X126466713Y-134646318D01*
X126242111Y-134743071D01*
X126118612Y-135003017D01*
X126048199Y-135282062D01*
X126033577Y-135569482D01*
X115975778Y-135569482D01*
X116078521Y-135358126D01*
X115100000Y-134379605D01*
X114121479Y-135358126D01*
X113149300Y-135358126D01*
X113339818Y-135320230D01*
X113551834Y-135232410D01*
X113742644Y-135104915D01*
X113758283Y-135089276D01*
X113941874Y-135178521D01*
X114920395Y-134200000D01*
X115279605Y-134200000D01*
X116258126Y-135178521D01*
X116500630Y-135060637D01*
X116641619Y-134770851D01*
X116721375Y-134466713D01*
X126646318Y-134466713D01*
X127500000Y-135320395D01*
X128353682Y-134466713D01*
X128256929Y-134242111D01*
X127996983Y-134118612D01*
X127717938Y-134048199D01*
X127430518Y-134033577D01*
X127145768Y-134075310D01*
X126874631Y-134171793D01*
X126743071Y-134242111D01*
X126646318Y-134466713D01*
X116721375Y-134466713D01*
X116723365Y-134459127D01*
X116742726Y-134137445D01*
X116698958Y-133818167D01*
X116593743Y-133513563D01*
X116500630Y-133339363D01*
X116258126Y-133221479D01*
X115279605Y-134200000D01*
X114920395Y-134200000D01*
X113941874Y-133221479D01*
X113758283Y-133310724D01*
X113742644Y-133295085D01*
X113551834Y-133167590D01*
X113339818Y-133079770D01*
X113149301Y-133041874D01*
X114121479Y-133041874D01*
X115100000Y-134020395D01*
X116078521Y-133041874D01*
X115960637Y-132799370D01*
X115670851Y-132658381D01*
X115359127Y-132576635D01*
X115037445Y-132557274D01*
X114718167Y-132601042D01*
X114413563Y-132706257D01*
X114239363Y-132799370D01*
X114121479Y-133041874D01*
X113149301Y-133041874D01*
X113114742Y-133035000D01*
X112885258Y-133035000D01*
X112660182Y-133079770D01*
X112448166Y-133167590D01*
X112257356Y-133295085D01*
X112095085Y-133457356D01*
X112000000Y-133599661D01*
X111904915Y-133457356D01*
X111742644Y-133295085D01*
X111551834Y-133167590D01*
X111339818Y-133079770D01*
X111114742Y-133035000D01*
X110885258Y-133035000D01*
X110660182Y-133079770D01*
X110448166Y-133167590D01*
X110257356Y-133295085D01*
X110095085Y-133457356D01*
X109992256Y-133611250D01*
X109821746Y-133557859D01*
X109179605Y-134200000D01*
X108820395Y-134200000D01*
X108806253Y-134185858D01*
X108985858Y-134006253D01*
X109000000Y-134020395D01*
X109642141Y-133378254D01*
X109581276Y-133183876D01*
X109371871Y-133089999D01*
X109148175Y-133038779D01*
X108918785Y-133032183D01*
X108692515Y-133070467D01*
X108478063Y-133152158D01*
X108418724Y-133183876D01*
X108357860Y-133378252D01*
X108262473Y-133282866D01*
X108236938Y-133308401D01*
X108058126Y-133221479D01*
X107079605Y-134200000D01*
X106720395Y-134200000D01*
X105741874Y-133221479D01*
X105499370Y-133339363D01*
X105358381Y-133629149D01*
X105276635Y-133940873D01*
X105257274Y-134262555D01*
X90536000Y-134262555D01*
X90536000Y-133041874D01*
X105921479Y-133041874D01*
X106900000Y-134020395D01*
X107878521Y-133041874D01*
X107760637Y-132799370D01*
X107470851Y-132658381D01*
X107159127Y-132576635D01*
X106837445Y-132557274D01*
X106518167Y-132601042D01*
X106213563Y-132706257D01*
X106039363Y-132799370D01*
X105921479Y-133041874D01*
X90536000Y-133041874D01*
X90536000Y-129241934D01*
X120789000Y-129241934D01*
X120789000Y-129638066D01*
X120866282Y-130026587D01*
X121017875Y-130392566D01*
X121237955Y-130721938D01*
X121518062Y-131002045D01*
X121847434Y-131222125D01*
X122213413Y-131373718D01*
X122601934Y-131451000D01*
X122998066Y-131451000D01*
X123386587Y-131373718D01*
X123752566Y-131222125D01*
X124081938Y-131002045D01*
X124362045Y-130721938D01*
X124582125Y-130392566D01*
X124733718Y-130026587D01*
X124767629Y-129856104D01*
X126039000Y-129856104D01*
X126039000Y-130143896D01*
X126095146Y-130426158D01*
X126205279Y-130692043D01*
X126365167Y-130931333D01*
X126568667Y-131134833D01*
X126807957Y-131294721D01*
X127073842Y-131404854D01*
X127356104Y-131461000D01*
X127643896Y-131461000D01*
X127926158Y-131404854D01*
X128192043Y-131294721D01*
X128431333Y-131134833D01*
X128634833Y-130931333D01*
X128794721Y-130692043D01*
X128904854Y-130426158D01*
X128961000Y-130143896D01*
X128961000Y-129856104D01*
X130239000Y-129856104D01*
X130239000Y-130143896D01*
X130295146Y-130426158D01*
X130405279Y-130692043D01*
X130565167Y-130931333D01*
X130768667Y-131134833D01*
X131007957Y-131294721D01*
X131273842Y-131404854D01*
X131556104Y-131461000D01*
X131843896Y-131461000D01*
X132126158Y-131404854D01*
X132392043Y-131294721D01*
X132631333Y-131134833D01*
X132834833Y-130931333D01*
X132994721Y-130692043D01*
X133104854Y-130426158D01*
X133161000Y-130143896D01*
X133161000Y-129856104D01*
X134439000Y-129856104D01*
X134439000Y-130143896D01*
X134495146Y-130426158D01*
X134605279Y-130692043D01*
X134765167Y-130931333D01*
X134968667Y-131134833D01*
X135207957Y-131294721D01*
X135473842Y-131404854D01*
X135756104Y-131461000D01*
X136043896Y-131461000D01*
X136326158Y-131404854D01*
X136592043Y-131294721D01*
X136831333Y-131134833D01*
X136932879Y-131033287D01*
X139246318Y-131033287D01*
X139343071Y-131257889D01*
X139603017Y-131381388D01*
X139882062Y-131451801D01*
X140169482Y-131466423D01*
X140454232Y-131424690D01*
X140725369Y-131328207D01*
X140856929Y-131257889D01*
X140953682Y-131033287D01*
X143446318Y-131033287D01*
X143543071Y-131257889D01*
X143803017Y-131381388D01*
X144082062Y-131451801D01*
X144369482Y-131466423D01*
X144654232Y-131424690D01*
X144925369Y-131328207D01*
X145056929Y-131257889D01*
X145153682Y-131033287D01*
X144300000Y-130179605D01*
X143446318Y-131033287D01*
X140953682Y-131033287D01*
X140100000Y-130179605D01*
X139246318Y-131033287D01*
X136932879Y-131033287D01*
X137034833Y-130931333D01*
X137194721Y-130692043D01*
X137304854Y-130426158D01*
X137361000Y-130143896D01*
X137361000Y-130069482D01*
X138633577Y-130069482D01*
X138675310Y-130354232D01*
X138771793Y-130625369D01*
X138842111Y-130756929D01*
X139066713Y-130853682D01*
X139920395Y-130000000D01*
X140279605Y-130000000D01*
X141133287Y-130853682D01*
X141357889Y-130756929D01*
X141481388Y-130496983D01*
X141551801Y-130217938D01*
X141559353Y-130069482D01*
X142833577Y-130069482D01*
X142875310Y-130354232D01*
X142971793Y-130625369D01*
X143042111Y-130756929D01*
X143266713Y-130853682D01*
X144120395Y-130000000D01*
X144479605Y-130000000D01*
X145333287Y-130853682D01*
X145557889Y-130756929D01*
X145681388Y-130496983D01*
X145751801Y-130217938D01*
X145766423Y-129930518D01*
X145724690Y-129645768D01*
X145628207Y-129374631D01*
X145557889Y-129243071D01*
X145555250Y-129241934D01*
X146989000Y-129241934D01*
X146989000Y-129638066D01*
X147066282Y-130026587D01*
X147217875Y-130392566D01*
X147437955Y-130721938D01*
X147718062Y-131002045D01*
X148047434Y-131222125D01*
X148413413Y-131373718D01*
X148801934Y-131451000D01*
X149198066Y-131451000D01*
X149586587Y-131373718D01*
X149952566Y-131222125D01*
X150281938Y-131002045D01*
X150562045Y-130721938D01*
X150782125Y-130392566D01*
X150933718Y-130026587D01*
X151011000Y-129638066D01*
X151011000Y-129241934D01*
X150933718Y-128853413D01*
X150782125Y-128487434D01*
X150562045Y-128158062D01*
X150281938Y-127877955D01*
X149952566Y-127657875D01*
X149586587Y-127506282D01*
X149198066Y-127429000D01*
X148801934Y-127429000D01*
X148413413Y-127506282D01*
X148047434Y-127657875D01*
X147718062Y-127877955D01*
X147437955Y-128158062D01*
X147217875Y-128487434D01*
X147066282Y-128853413D01*
X146989000Y-129241934D01*
X145555250Y-129241934D01*
X145333287Y-129146318D01*
X144479605Y-130000000D01*
X144120395Y-130000000D01*
X143266713Y-129146318D01*
X143042111Y-129243071D01*
X142918612Y-129503017D01*
X142848199Y-129782062D01*
X142833577Y-130069482D01*
X141559353Y-130069482D01*
X141566423Y-129930518D01*
X141524690Y-129645768D01*
X141428207Y-129374631D01*
X141357889Y-129243071D01*
X141133287Y-129146318D01*
X140279605Y-130000000D01*
X139920395Y-130000000D01*
X139066713Y-129146318D01*
X138842111Y-129243071D01*
X138718612Y-129503017D01*
X138648199Y-129782062D01*
X138633577Y-130069482D01*
X137361000Y-130069482D01*
X137361000Y-129856104D01*
X137304854Y-129573842D01*
X137194721Y-129307957D01*
X137034833Y-129068667D01*
X136932879Y-128966713D01*
X139246318Y-128966713D01*
X140100000Y-129820395D01*
X140953682Y-128966713D01*
X143446318Y-128966713D01*
X144300000Y-129820395D01*
X145153682Y-128966713D01*
X145056929Y-128742111D01*
X144796983Y-128618612D01*
X144517938Y-128548199D01*
X144230518Y-128533577D01*
X143945768Y-128575310D01*
X143674631Y-128671793D01*
X143543071Y-128742111D01*
X143446318Y-128966713D01*
X140953682Y-128966713D01*
X140856929Y-128742111D01*
X140596983Y-128618612D01*
X140317938Y-128548199D01*
X140030518Y-128533577D01*
X139745768Y-128575310D01*
X139474631Y-128671793D01*
X139343071Y-128742111D01*
X139246318Y-128966713D01*
X136932879Y-128966713D01*
X136831333Y-128865167D01*
X136592043Y-128705279D01*
X136326158Y-128595146D01*
X136043896Y-128539000D01*
X135756104Y-128539000D01*
X135473842Y-128595146D01*
X135207957Y-128705279D01*
X134968667Y-128865167D01*
X134765167Y-129068667D01*
X134605279Y-129307957D01*
X134495146Y-129573842D01*
X134439000Y-129856104D01*
X133161000Y-129856104D01*
X133104854Y-129573842D01*
X132994721Y-129307957D01*
X132834833Y-129068667D01*
X132631333Y-128865167D01*
X132392043Y-128705279D01*
X132126158Y-128595146D01*
X131843896Y-128539000D01*
X131556104Y-128539000D01*
X131273842Y-128595146D01*
X131007957Y-128705279D01*
X130768667Y-128865167D01*
X130565167Y-129068667D01*
X130405279Y-129307957D01*
X130295146Y-129573842D01*
X130239000Y-129856104D01*
X128961000Y-129856104D01*
X128904854Y-129573842D01*
X128794721Y-129307957D01*
X128634833Y-129068667D01*
X128431333Y-128865167D01*
X128192043Y-128705279D01*
X127926158Y-128595146D01*
X127643896Y-128539000D01*
X127356104Y-128539000D01*
X127073842Y-128595146D01*
X126807957Y-128705279D01*
X126568667Y-128865167D01*
X126365167Y-129068667D01*
X126205279Y-129307957D01*
X126095146Y-129573842D01*
X126039000Y-129856104D01*
X124767629Y-129856104D01*
X124811000Y-129638066D01*
X124811000Y-129241934D01*
X124733718Y-128853413D01*
X124582125Y-128487434D01*
X124362045Y-128158062D01*
X124081938Y-127877955D01*
X123752566Y-127657875D01*
X123386587Y-127506282D01*
X122998066Y-127429000D01*
X122601934Y-127429000D01*
X122213413Y-127506282D01*
X121847434Y-127657875D01*
X121518062Y-127877955D01*
X121237955Y-128158062D01*
X121017875Y-128487434D01*
X120866282Y-128853413D01*
X120789000Y-129241934D01*
X90536000Y-129241934D01*
X90536000Y-120156104D01*
X96239000Y-120156104D01*
X96239000Y-120443896D01*
X96295146Y-120726158D01*
X96405279Y-120992043D01*
X96565167Y-121231333D01*
X96768667Y-121434833D01*
X97007957Y-121594721D01*
X97273842Y-121704854D01*
X97556104Y-121761000D01*
X97843896Y-121761000D01*
X98126158Y-121704854D01*
X98392043Y-121594721D01*
X98631333Y-121434833D01*
X98834833Y-121231333D01*
X98994721Y-120992043D01*
X99104854Y-120726158D01*
X99161000Y-120443896D01*
X99161000Y-120156104D01*
X100439000Y-120156104D01*
X100439000Y-120443896D01*
X100495146Y-120726158D01*
X100605279Y-120992043D01*
X100765167Y-121231333D01*
X100968667Y-121434833D01*
X101207957Y-121594721D01*
X101473842Y-121704854D01*
X101756104Y-121761000D01*
X102043896Y-121761000D01*
X102326158Y-121704854D01*
X102592043Y-121594721D01*
X102831333Y-121434833D01*
X103034833Y-121231333D01*
X103194721Y-120992043D01*
X103304854Y-120726158D01*
X103361000Y-120443896D01*
X103361000Y-120156104D01*
X104639000Y-120156104D01*
X104639000Y-120443896D01*
X104695146Y-120726158D01*
X104805279Y-120992043D01*
X104965167Y-121231333D01*
X105168667Y-121434833D01*
X105407957Y-121594721D01*
X105673842Y-121704854D01*
X105956104Y-121761000D01*
X106243896Y-121761000D01*
X106526158Y-121704854D01*
X106792043Y-121594721D01*
X107031333Y-121434833D01*
X107234833Y-121231333D01*
X107394721Y-120992043D01*
X107504854Y-120726158D01*
X107561000Y-120443896D01*
X107561000Y-120156104D01*
X108839000Y-120156104D01*
X108839000Y-120443896D01*
X108895146Y-120726158D01*
X109005279Y-120992043D01*
X109165167Y-121231333D01*
X109368667Y-121434833D01*
X109607957Y-121594721D01*
X109873842Y-121704854D01*
X110156104Y-121761000D01*
X110443896Y-121761000D01*
X110726158Y-121704854D01*
X110992043Y-121594721D01*
X111231333Y-121434833D01*
X111434833Y-121231333D01*
X111594721Y-120992043D01*
X111704854Y-120726158D01*
X111761000Y-120443896D01*
X111761000Y-120156104D01*
X113039000Y-120156104D01*
X113039000Y-120443896D01*
X113095146Y-120726158D01*
X113205279Y-120992043D01*
X113365167Y-121231333D01*
X113568667Y-121434833D01*
X113807957Y-121594721D01*
X114073842Y-121704854D01*
X114356104Y-121761000D01*
X114643896Y-121761000D01*
X114926158Y-121704854D01*
X115192043Y-121594721D01*
X115431333Y-121434833D01*
X115532879Y-121333287D01*
X117846318Y-121333287D01*
X117943071Y-121557889D01*
X118203017Y-121681388D01*
X118482062Y-121751801D01*
X118769482Y-121766423D01*
X119054232Y-121724690D01*
X119325369Y-121628207D01*
X119456929Y-121557889D01*
X119553682Y-121333287D01*
X118700000Y-120479605D01*
X117846318Y-121333287D01*
X115532879Y-121333287D01*
X115634833Y-121231333D01*
X115794721Y-120992043D01*
X115904854Y-120726158D01*
X115961000Y-120443896D01*
X115961000Y-120369482D01*
X117233577Y-120369482D01*
X117275310Y-120654232D01*
X117371793Y-120925369D01*
X117442111Y-121056929D01*
X117666713Y-121153682D01*
X118520395Y-120300000D01*
X118879605Y-120300000D01*
X119733287Y-121153682D01*
X119957889Y-121056929D01*
X120081388Y-120796983D01*
X120151801Y-120517938D01*
X120166423Y-120230518D01*
X120155517Y-120156104D01*
X121439000Y-120156104D01*
X121439000Y-120443896D01*
X121495146Y-120726158D01*
X121605279Y-120992043D01*
X121765167Y-121231333D01*
X121968667Y-121434833D01*
X122207957Y-121594721D01*
X122473842Y-121704854D01*
X122756104Y-121761000D01*
X123043896Y-121761000D01*
X123326158Y-121704854D01*
X123592043Y-121594721D01*
X123831333Y-121434833D01*
X123932879Y-121333287D01*
X126246318Y-121333287D01*
X126343071Y-121557889D01*
X126603017Y-121681388D01*
X126882062Y-121751801D01*
X127169482Y-121766423D01*
X127454232Y-121724690D01*
X127725369Y-121628207D01*
X127856929Y-121557889D01*
X127953682Y-121333287D01*
X127100000Y-120479605D01*
X126246318Y-121333287D01*
X123932879Y-121333287D01*
X124034833Y-121231333D01*
X124194721Y-120992043D01*
X124304854Y-120726158D01*
X124361000Y-120443896D01*
X124361000Y-120369482D01*
X125633577Y-120369482D01*
X125675310Y-120654232D01*
X125771793Y-120925369D01*
X125842111Y-121056929D01*
X126066713Y-121153682D01*
X126920395Y-120300000D01*
X127279605Y-120300000D01*
X128133287Y-121153682D01*
X128357889Y-121056929D01*
X128481388Y-120796983D01*
X128551801Y-120517938D01*
X128566423Y-120230518D01*
X128555517Y-120156104D01*
X129839000Y-120156104D01*
X129839000Y-120443896D01*
X129895146Y-120726158D01*
X130005279Y-120992043D01*
X130165167Y-121231333D01*
X130368667Y-121434833D01*
X130607957Y-121594721D01*
X130873842Y-121704854D01*
X131156104Y-121761000D01*
X131443896Y-121761000D01*
X131726158Y-121704854D01*
X131992043Y-121594721D01*
X132231333Y-121434833D01*
X132332879Y-121333287D01*
X134646318Y-121333287D01*
X134743071Y-121557889D01*
X135003017Y-121681388D01*
X135282062Y-121751801D01*
X135569482Y-121766423D01*
X135854232Y-121724690D01*
X136125369Y-121628207D01*
X136256929Y-121557889D01*
X136353682Y-121333287D01*
X135500000Y-120479605D01*
X134646318Y-121333287D01*
X132332879Y-121333287D01*
X132434833Y-121231333D01*
X132594721Y-120992043D01*
X132704854Y-120726158D01*
X132761000Y-120443896D01*
X132761000Y-120369482D01*
X134033577Y-120369482D01*
X134075310Y-120654232D01*
X134171793Y-120925369D01*
X134242111Y-121056929D01*
X134466713Y-121153682D01*
X135320395Y-120300000D01*
X135679605Y-120300000D01*
X136533287Y-121153682D01*
X136757889Y-121056929D01*
X136881388Y-120796983D01*
X136951801Y-120517938D01*
X136966423Y-120230518D01*
X136955517Y-120156104D01*
X138239000Y-120156104D01*
X138239000Y-120443896D01*
X138295146Y-120726158D01*
X138405279Y-120992043D01*
X138565167Y-121231333D01*
X138768667Y-121434833D01*
X139007957Y-121594721D01*
X139273842Y-121704854D01*
X139556104Y-121761000D01*
X139843896Y-121761000D01*
X140126158Y-121704854D01*
X140392043Y-121594721D01*
X140631333Y-121434833D01*
X140834833Y-121231333D01*
X140994721Y-120992043D01*
X141104854Y-120726158D01*
X141161000Y-120443896D01*
X141161000Y-120156104D01*
X141104854Y-119873842D01*
X140994721Y-119607957D01*
X140834833Y-119368667D01*
X140816166Y-119350000D01*
X142436528Y-119350000D01*
X142436528Y-121250000D01*
X142446394Y-121350173D01*
X142475614Y-121446497D01*
X142523064Y-121535270D01*
X142586920Y-121613080D01*
X142664730Y-121676936D01*
X142753503Y-121724386D01*
X142849827Y-121753606D01*
X142950000Y-121763472D01*
X144850000Y-121763472D01*
X144950173Y-121753606D01*
X145046497Y-121724386D01*
X145135270Y-121676936D01*
X145213080Y-121613080D01*
X145276936Y-121535270D01*
X145324386Y-121446497D01*
X145353606Y-121350173D01*
X145363472Y-121250000D01*
X145363472Y-119350000D01*
X145353606Y-119249827D01*
X145324386Y-119153503D01*
X145276936Y-119064730D01*
X145213080Y-118986920D01*
X145135270Y-118923064D01*
X145046497Y-118875614D01*
X144950173Y-118846394D01*
X144850000Y-118836528D01*
X142950000Y-118836528D01*
X142849827Y-118846394D01*
X142753503Y-118875614D01*
X142664730Y-118923064D01*
X142586920Y-118986920D01*
X142523064Y-119064730D01*
X142475614Y-119153503D01*
X142446394Y-119249827D01*
X142436528Y-119350000D01*
X140816166Y-119350000D01*
X140631333Y-119165167D01*
X140392043Y-119005279D01*
X140126158Y-118895146D01*
X139843896Y-118839000D01*
X139556104Y-118839000D01*
X139273842Y-118895146D01*
X139007957Y-119005279D01*
X138768667Y-119165167D01*
X138565167Y-119368667D01*
X138405279Y-119607957D01*
X138295146Y-119873842D01*
X138239000Y-120156104D01*
X136955517Y-120156104D01*
X136924690Y-119945768D01*
X136828207Y-119674631D01*
X136757889Y-119543071D01*
X136533287Y-119446318D01*
X135679605Y-120300000D01*
X135320395Y-120300000D01*
X134466713Y-119446318D01*
X134242111Y-119543071D01*
X134118612Y-119803017D01*
X134048199Y-120082062D01*
X134033577Y-120369482D01*
X132761000Y-120369482D01*
X132761000Y-120156104D01*
X132704854Y-119873842D01*
X132594721Y-119607957D01*
X132434833Y-119368667D01*
X132332879Y-119266713D01*
X134646318Y-119266713D01*
X135500000Y-120120395D01*
X136353682Y-119266713D01*
X136256929Y-119042111D01*
X135996983Y-118918612D01*
X135717938Y-118848199D01*
X135430518Y-118833577D01*
X135145768Y-118875310D01*
X134874631Y-118971793D01*
X134743071Y-119042111D01*
X134646318Y-119266713D01*
X132332879Y-119266713D01*
X132231333Y-119165167D01*
X131992043Y-119005279D01*
X131726158Y-118895146D01*
X131443896Y-118839000D01*
X131156104Y-118839000D01*
X130873842Y-118895146D01*
X130607957Y-119005279D01*
X130368667Y-119165167D01*
X130165167Y-119368667D01*
X130005279Y-119607957D01*
X129895146Y-119873842D01*
X129839000Y-120156104D01*
X128555517Y-120156104D01*
X128524690Y-119945768D01*
X128428207Y-119674631D01*
X128357889Y-119543071D01*
X128133287Y-119446318D01*
X127279605Y-120300000D01*
X126920395Y-120300000D01*
X126066713Y-119446318D01*
X125842111Y-119543071D01*
X125718612Y-119803017D01*
X125648199Y-120082062D01*
X125633577Y-120369482D01*
X124361000Y-120369482D01*
X124361000Y-120156104D01*
X124304854Y-119873842D01*
X124194721Y-119607957D01*
X124034833Y-119368667D01*
X123932879Y-119266713D01*
X126246318Y-119266713D01*
X127100000Y-120120395D01*
X127953682Y-119266713D01*
X127856929Y-119042111D01*
X127596983Y-118918612D01*
X127317938Y-118848199D01*
X127030518Y-118833577D01*
X126745768Y-118875310D01*
X126474631Y-118971793D01*
X126343071Y-119042111D01*
X126246318Y-119266713D01*
X123932879Y-119266713D01*
X123831333Y-119165167D01*
X123592043Y-119005279D01*
X123326158Y-118895146D01*
X123043896Y-118839000D01*
X122756104Y-118839000D01*
X122473842Y-118895146D01*
X122207957Y-119005279D01*
X121968667Y-119165167D01*
X121765167Y-119368667D01*
X121605279Y-119607957D01*
X121495146Y-119873842D01*
X121439000Y-120156104D01*
X120155517Y-120156104D01*
X120124690Y-119945768D01*
X120028207Y-119674631D01*
X119957889Y-119543071D01*
X119733287Y-119446318D01*
X118879605Y-120300000D01*
X118520395Y-120300000D01*
X117666713Y-119446318D01*
X117442111Y-119543071D01*
X117318612Y-119803017D01*
X117248199Y-120082062D01*
X117233577Y-120369482D01*
X115961000Y-120369482D01*
X115961000Y-120156104D01*
X115904854Y-119873842D01*
X115794721Y-119607957D01*
X115634833Y-119368667D01*
X115532879Y-119266713D01*
X117846318Y-119266713D01*
X118700000Y-120120395D01*
X119553682Y-119266713D01*
X119456929Y-119042111D01*
X119196983Y-118918612D01*
X118917938Y-118848199D01*
X118630518Y-118833577D01*
X118345768Y-118875310D01*
X118074631Y-118971793D01*
X117943071Y-119042111D01*
X117846318Y-119266713D01*
X115532879Y-119266713D01*
X115431333Y-119165167D01*
X115192043Y-119005279D01*
X114926158Y-118895146D01*
X114643896Y-118839000D01*
X114356104Y-118839000D01*
X114073842Y-118895146D01*
X113807957Y-119005279D01*
X113568667Y-119165167D01*
X113365167Y-119368667D01*
X113205279Y-119607957D01*
X113095146Y-119873842D01*
X113039000Y-120156104D01*
X111761000Y-120156104D01*
X111704854Y-119873842D01*
X111594721Y-119607957D01*
X111434833Y-119368667D01*
X111231333Y-119165167D01*
X110992043Y-119005279D01*
X110726158Y-118895146D01*
X110443896Y-118839000D01*
X110156104Y-118839000D01*
X109873842Y-118895146D01*
X109607957Y-119005279D01*
X109368667Y-119165167D01*
X109165167Y-119368667D01*
X109005279Y-119607957D01*
X108895146Y-119873842D01*
X108839000Y-120156104D01*
X107561000Y-120156104D01*
X107504854Y-119873842D01*
X107394721Y-119607957D01*
X107234833Y-119368667D01*
X107031333Y-119165167D01*
X106792043Y-119005279D01*
X106526158Y-118895146D01*
X106243896Y-118839000D01*
X105956104Y-118839000D01*
X105673842Y-118895146D01*
X105407957Y-119005279D01*
X105168667Y-119165167D01*
X104965167Y-119368667D01*
X104805279Y-119607957D01*
X104695146Y-119873842D01*
X104639000Y-120156104D01*
X103361000Y-120156104D01*
X103304854Y-119873842D01*
X103194721Y-119607957D01*
X103034833Y-119368667D01*
X102831333Y-119165167D01*
X102592043Y-119005279D01*
X102326158Y-118895146D01*
X102043896Y-118839000D01*
X101756104Y-118839000D01*
X101473842Y-118895146D01*
X101207957Y-119005279D01*
X100968667Y-119165167D01*
X100765167Y-119368667D01*
X100605279Y-119607957D01*
X100495146Y-119873842D01*
X100439000Y-120156104D01*
X99161000Y-120156104D01*
X99104854Y-119873842D01*
X98994721Y-119607957D01*
X98834833Y-119368667D01*
X98631333Y-119165167D01*
X98392043Y-119005279D01*
X98126158Y-118895146D01*
X97843896Y-118839000D01*
X97556104Y-118839000D01*
X97273842Y-118895146D01*
X97007957Y-119005279D01*
X96768667Y-119165167D01*
X96565167Y-119368667D01*
X96405279Y-119607957D01*
X96295146Y-119873842D01*
X96239000Y-120156104D01*
X90536000Y-120156104D01*
X90536000Y-115061934D01*
X90989000Y-115061934D01*
X90989000Y-115458066D01*
X91066282Y-115846587D01*
X91217875Y-116212566D01*
X91437955Y-116541938D01*
X91718062Y-116822045D01*
X92047434Y-117042125D01*
X92413413Y-117193718D01*
X92801934Y-117271000D01*
X93198066Y-117271000D01*
X93586587Y-117193718D01*
X93952566Y-117042125D01*
X94281938Y-116822045D01*
X94562045Y-116541938D01*
X94782125Y-116212566D01*
X94933718Y-115846587D01*
X94936363Y-115833287D01*
X96846318Y-115833287D01*
X96943071Y-116057889D01*
X97203017Y-116181388D01*
X97482062Y-116251801D01*
X97769482Y-116266423D01*
X98054232Y-116224690D01*
X98325369Y-116128207D01*
X98456929Y-116057889D01*
X98553682Y-115833287D01*
X97700000Y-114979605D01*
X96846318Y-115833287D01*
X94936363Y-115833287D01*
X95011000Y-115458066D01*
X95011000Y-115061934D01*
X94972719Y-114869482D01*
X96233577Y-114869482D01*
X96275310Y-115154232D01*
X96371793Y-115425369D01*
X96442111Y-115556929D01*
X96666713Y-115653682D01*
X97520395Y-114800000D01*
X97879605Y-114800000D01*
X98733287Y-115653682D01*
X98957889Y-115556929D01*
X99081388Y-115296983D01*
X99151801Y-115017938D01*
X99166423Y-114730518D01*
X99155517Y-114656104D01*
X100439000Y-114656104D01*
X100439000Y-114943896D01*
X100495146Y-115226158D01*
X100605279Y-115492043D01*
X100765167Y-115731333D01*
X100968667Y-115934833D01*
X101207957Y-116094721D01*
X101473842Y-116204854D01*
X101756104Y-116261000D01*
X102043896Y-116261000D01*
X102326158Y-116204854D01*
X102592043Y-116094721D01*
X102831333Y-115934833D01*
X103034833Y-115731333D01*
X103194721Y-115492043D01*
X103304854Y-115226158D01*
X103361000Y-114943896D01*
X103361000Y-114656104D01*
X104639000Y-114656104D01*
X104639000Y-114943896D01*
X104695146Y-115226158D01*
X104805279Y-115492043D01*
X104965167Y-115731333D01*
X105168667Y-115934833D01*
X105407957Y-116094721D01*
X105673842Y-116204854D01*
X105956104Y-116261000D01*
X106243896Y-116261000D01*
X106526158Y-116204854D01*
X106792043Y-116094721D01*
X107031333Y-115934833D01*
X107234833Y-115731333D01*
X107394721Y-115492043D01*
X107504854Y-115226158D01*
X107561000Y-114943896D01*
X107561000Y-114656104D01*
X108839000Y-114656104D01*
X108839000Y-114943896D01*
X108895146Y-115226158D01*
X109005279Y-115492043D01*
X109165167Y-115731333D01*
X109368667Y-115934833D01*
X109607957Y-116094721D01*
X109873842Y-116204854D01*
X110156104Y-116261000D01*
X110443896Y-116261000D01*
X110726158Y-116204854D01*
X110992043Y-116094721D01*
X111231333Y-115934833D01*
X111434833Y-115731333D01*
X111594721Y-115492043D01*
X111704854Y-115226158D01*
X111761000Y-114943896D01*
X111761000Y-114656104D01*
X113039000Y-114656104D01*
X113039000Y-114943896D01*
X113095146Y-115226158D01*
X113205279Y-115492043D01*
X113365167Y-115731333D01*
X113568667Y-115934833D01*
X113807957Y-116094721D01*
X114073842Y-116204854D01*
X114356104Y-116261000D01*
X114643896Y-116261000D01*
X114926158Y-116204854D01*
X115192043Y-116094721D01*
X115431333Y-115934833D01*
X115532879Y-115833287D01*
X117846318Y-115833287D01*
X117943071Y-116057889D01*
X118203017Y-116181388D01*
X118482062Y-116251801D01*
X118769482Y-116266423D01*
X119054232Y-116224690D01*
X119325369Y-116128207D01*
X119456929Y-116057889D01*
X119553682Y-115833287D01*
X122046318Y-115833287D01*
X122143071Y-116057889D01*
X122403017Y-116181388D01*
X122682062Y-116251801D01*
X122969482Y-116266423D01*
X123254232Y-116224690D01*
X123525369Y-116128207D01*
X123656929Y-116057889D01*
X123753682Y-115833287D01*
X126246318Y-115833287D01*
X126343071Y-116057889D01*
X126603017Y-116181388D01*
X126882062Y-116251801D01*
X127169482Y-116266423D01*
X127454232Y-116224690D01*
X127725369Y-116128207D01*
X127856929Y-116057889D01*
X127953682Y-115833287D01*
X127100000Y-114979605D01*
X126246318Y-115833287D01*
X123753682Y-115833287D01*
X122900000Y-114979605D01*
X122046318Y-115833287D01*
X119553682Y-115833287D01*
X118700000Y-114979605D01*
X117846318Y-115833287D01*
X115532879Y-115833287D01*
X115634833Y-115731333D01*
X115794721Y-115492043D01*
X115904854Y-115226158D01*
X115961000Y-114943896D01*
X115961000Y-114869482D01*
X117233577Y-114869482D01*
X117275310Y-115154232D01*
X117371793Y-115425369D01*
X117442111Y-115556929D01*
X117666713Y-115653682D01*
X118520395Y-114800000D01*
X118879605Y-114800000D01*
X119733287Y-115653682D01*
X119957889Y-115556929D01*
X120081388Y-115296983D01*
X120151801Y-115017938D01*
X120159353Y-114869482D01*
X121433577Y-114869482D01*
X121475310Y-115154232D01*
X121571793Y-115425369D01*
X121642111Y-115556929D01*
X121866713Y-115653682D01*
X122720395Y-114800000D01*
X123079605Y-114800000D01*
X123933287Y-115653682D01*
X124157889Y-115556929D01*
X124281388Y-115296983D01*
X124351801Y-115017938D01*
X124359353Y-114869482D01*
X125633577Y-114869482D01*
X125675310Y-115154232D01*
X125771793Y-115425369D01*
X125842111Y-115556929D01*
X126066713Y-115653682D01*
X126920395Y-114800000D01*
X127279605Y-114800000D01*
X128133287Y-115653682D01*
X128357889Y-115556929D01*
X128481388Y-115296983D01*
X128551801Y-115017938D01*
X128566423Y-114730518D01*
X128555517Y-114656104D01*
X129839000Y-114656104D01*
X129839000Y-114943896D01*
X129895146Y-115226158D01*
X130005279Y-115492043D01*
X130165167Y-115731333D01*
X130368667Y-115934833D01*
X130607957Y-116094721D01*
X130873842Y-116204854D01*
X131156104Y-116261000D01*
X131443896Y-116261000D01*
X131726158Y-116204854D01*
X131992043Y-116094721D01*
X132231333Y-115934833D01*
X132332879Y-115833287D01*
X134646318Y-115833287D01*
X134743071Y-116057889D01*
X135003017Y-116181388D01*
X135282062Y-116251801D01*
X135569482Y-116266423D01*
X135854232Y-116224690D01*
X136125369Y-116128207D01*
X136256929Y-116057889D01*
X136353682Y-115833287D01*
X135500000Y-114979605D01*
X134646318Y-115833287D01*
X132332879Y-115833287D01*
X132434833Y-115731333D01*
X132594721Y-115492043D01*
X132704854Y-115226158D01*
X132761000Y-114943896D01*
X132761000Y-114869482D01*
X134033577Y-114869482D01*
X134075310Y-115154232D01*
X134171793Y-115425369D01*
X134242111Y-115556929D01*
X134466713Y-115653682D01*
X135320395Y-114800000D01*
X135679605Y-114800000D01*
X136533287Y-115653682D01*
X136757889Y-115556929D01*
X136881388Y-115296983D01*
X136951801Y-115017938D01*
X136966423Y-114730518D01*
X136955517Y-114656104D01*
X138239000Y-114656104D01*
X138239000Y-114943896D01*
X138295146Y-115226158D01*
X138405279Y-115492043D01*
X138565167Y-115731333D01*
X138768667Y-115934833D01*
X139007957Y-116094721D01*
X139273842Y-116204854D01*
X139556104Y-116261000D01*
X139843896Y-116261000D01*
X140126158Y-116204854D01*
X140392043Y-116094721D01*
X140631333Y-115934833D01*
X140834833Y-115731333D01*
X140994721Y-115492043D01*
X141104854Y-115226158D01*
X141161000Y-114943896D01*
X141161000Y-114656104D01*
X142439000Y-114656104D01*
X142439000Y-114943896D01*
X142495146Y-115226158D01*
X142605279Y-115492043D01*
X142765167Y-115731333D01*
X142968667Y-115934833D01*
X143207957Y-116094721D01*
X143473842Y-116204854D01*
X143756104Y-116261000D01*
X144043896Y-116261000D01*
X144326158Y-116204854D01*
X144592043Y-116094721D01*
X144831333Y-115934833D01*
X145034833Y-115731333D01*
X145194721Y-115492043D01*
X145304854Y-115226158D01*
X145337520Y-115061934D01*
X146589000Y-115061934D01*
X146589000Y-115458066D01*
X146666282Y-115846587D01*
X146817875Y-116212566D01*
X147037955Y-116541938D01*
X147318062Y-116822045D01*
X147647434Y-117042125D01*
X148013413Y-117193718D01*
X148401934Y-117271000D01*
X148798066Y-117271000D01*
X149186587Y-117193718D01*
X149552566Y-117042125D01*
X149881938Y-116822045D01*
X150162045Y-116541938D01*
X150382125Y-116212566D01*
X150533718Y-115846587D01*
X150611000Y-115458066D01*
X150611000Y-115061934D01*
X150533718Y-114673413D01*
X150382125Y-114307434D01*
X150162045Y-113978062D01*
X149881938Y-113697955D01*
X149552566Y-113477875D01*
X149186587Y-113326282D01*
X148798066Y-113249000D01*
X148401934Y-113249000D01*
X148013413Y-113326282D01*
X147647434Y-113477875D01*
X147318062Y-113697955D01*
X147037955Y-113978062D01*
X146817875Y-114307434D01*
X146666282Y-114673413D01*
X146589000Y-115061934D01*
X145337520Y-115061934D01*
X145361000Y-114943896D01*
X145361000Y-114656104D01*
X145304854Y-114373842D01*
X145194721Y-114107957D01*
X145034833Y-113868667D01*
X144831333Y-113665167D01*
X144592043Y-113505279D01*
X144326158Y-113395146D01*
X144043896Y-113339000D01*
X143756104Y-113339000D01*
X143473842Y-113395146D01*
X143207957Y-113505279D01*
X142968667Y-113665167D01*
X142765167Y-113868667D01*
X142605279Y-114107957D01*
X142495146Y-114373842D01*
X142439000Y-114656104D01*
X141161000Y-114656104D01*
X141104854Y-114373842D01*
X140994721Y-114107957D01*
X140834833Y-113868667D01*
X140631333Y-113665167D01*
X140392043Y-113505279D01*
X140126158Y-113395146D01*
X139843896Y-113339000D01*
X139556104Y-113339000D01*
X139273842Y-113395146D01*
X139007957Y-113505279D01*
X138768667Y-113665167D01*
X138565167Y-113868667D01*
X138405279Y-114107957D01*
X138295146Y-114373842D01*
X138239000Y-114656104D01*
X136955517Y-114656104D01*
X136924690Y-114445768D01*
X136828207Y-114174631D01*
X136757889Y-114043071D01*
X136533287Y-113946318D01*
X135679605Y-114800000D01*
X135320395Y-114800000D01*
X134466713Y-113946318D01*
X134242111Y-114043071D01*
X134118612Y-114303017D01*
X134048199Y-114582062D01*
X134033577Y-114869482D01*
X132761000Y-114869482D01*
X132761000Y-114656104D01*
X132704854Y-114373842D01*
X132594721Y-114107957D01*
X132434833Y-113868667D01*
X132332879Y-113766713D01*
X134646318Y-113766713D01*
X135500000Y-114620395D01*
X136353682Y-113766713D01*
X136256929Y-113542111D01*
X135996983Y-113418612D01*
X135717938Y-113348199D01*
X135430518Y-113333577D01*
X135145768Y-113375310D01*
X134874631Y-113471793D01*
X134743071Y-113542111D01*
X134646318Y-113766713D01*
X132332879Y-113766713D01*
X132231333Y-113665167D01*
X131992043Y-113505279D01*
X131726158Y-113395146D01*
X131443896Y-113339000D01*
X131156104Y-113339000D01*
X130873842Y-113395146D01*
X130607957Y-113505279D01*
X130368667Y-113665167D01*
X130165167Y-113868667D01*
X130005279Y-114107957D01*
X129895146Y-114373842D01*
X129839000Y-114656104D01*
X128555517Y-114656104D01*
X128524690Y-114445768D01*
X128428207Y-114174631D01*
X128357889Y-114043071D01*
X128133287Y-113946318D01*
X127279605Y-114800000D01*
X126920395Y-114800000D01*
X126066713Y-113946318D01*
X125842111Y-114043071D01*
X125718612Y-114303017D01*
X125648199Y-114582062D01*
X125633577Y-114869482D01*
X124359353Y-114869482D01*
X124366423Y-114730518D01*
X124324690Y-114445768D01*
X124228207Y-114174631D01*
X124157889Y-114043071D01*
X123933287Y-113946318D01*
X123079605Y-114800000D01*
X122720395Y-114800000D01*
X121866713Y-113946318D01*
X121642111Y-114043071D01*
X121518612Y-114303017D01*
X121448199Y-114582062D01*
X121433577Y-114869482D01*
X120159353Y-114869482D01*
X120166423Y-114730518D01*
X120124690Y-114445768D01*
X120028207Y-114174631D01*
X119957889Y-114043071D01*
X119733287Y-113946318D01*
X118879605Y-114800000D01*
X118520395Y-114800000D01*
X117666713Y-113946318D01*
X117442111Y-114043071D01*
X117318612Y-114303017D01*
X117248199Y-114582062D01*
X117233577Y-114869482D01*
X115961000Y-114869482D01*
X115961000Y-114656104D01*
X115904854Y-114373842D01*
X115794721Y-114107957D01*
X115634833Y-113868667D01*
X115532879Y-113766713D01*
X117846318Y-113766713D01*
X118700000Y-114620395D01*
X119553682Y-113766713D01*
X122046318Y-113766713D01*
X122900000Y-114620395D01*
X123753682Y-113766713D01*
X126246318Y-113766713D01*
X127100000Y-114620395D01*
X127953682Y-113766713D01*
X127856929Y-113542111D01*
X127596983Y-113418612D01*
X127317938Y-113348199D01*
X127030518Y-113333577D01*
X126745768Y-113375310D01*
X126474631Y-113471793D01*
X126343071Y-113542111D01*
X126246318Y-113766713D01*
X123753682Y-113766713D01*
X123656929Y-113542111D01*
X123396983Y-113418612D01*
X123117938Y-113348199D01*
X122830518Y-113333577D01*
X122545768Y-113375310D01*
X122274631Y-113471793D01*
X122143071Y-113542111D01*
X122046318Y-113766713D01*
X119553682Y-113766713D01*
X119456929Y-113542111D01*
X119196983Y-113418612D01*
X118917938Y-113348199D01*
X118630518Y-113333577D01*
X118345768Y-113375310D01*
X118074631Y-113471793D01*
X117943071Y-113542111D01*
X117846318Y-113766713D01*
X115532879Y-113766713D01*
X115431333Y-113665167D01*
X115192043Y-113505279D01*
X114926158Y-113395146D01*
X114643896Y-113339000D01*
X114356104Y-113339000D01*
X114073842Y-113395146D01*
X113807957Y-113505279D01*
X113568667Y-113665167D01*
X113365167Y-113868667D01*
X113205279Y-114107957D01*
X113095146Y-114373842D01*
X113039000Y-114656104D01*
X111761000Y-114656104D01*
X111704854Y-114373842D01*
X111594721Y-114107957D01*
X111434833Y-113868667D01*
X111231333Y-113665167D01*
X110992043Y-113505279D01*
X110726158Y-113395146D01*
X110443896Y-113339000D01*
X110156104Y-113339000D01*
X109873842Y-113395146D01*
X109607957Y-113505279D01*
X109368667Y-113665167D01*
X109165167Y-113868667D01*
X109005279Y-114107957D01*
X108895146Y-114373842D01*
X108839000Y-114656104D01*
X107561000Y-114656104D01*
X107504854Y-114373842D01*
X107394721Y-114107957D01*
X107234833Y-113868667D01*
X107031333Y-113665167D01*
X106792043Y-113505279D01*
X106526158Y-113395146D01*
X106243896Y-113339000D01*
X105956104Y-113339000D01*
X105673842Y-113395146D01*
X105407957Y-113505279D01*
X105168667Y-113665167D01*
X104965167Y-113868667D01*
X104805279Y-114107957D01*
X104695146Y-114373842D01*
X104639000Y-114656104D01*
X103361000Y-114656104D01*
X103304854Y-114373842D01*
X103194721Y-114107957D01*
X103034833Y-113868667D01*
X102831333Y-113665167D01*
X102592043Y-113505279D01*
X102326158Y-113395146D01*
X102043896Y-113339000D01*
X101756104Y-113339000D01*
X101473842Y-113395146D01*
X101207957Y-113505279D01*
X100968667Y-113665167D01*
X100765167Y-113868667D01*
X100605279Y-114107957D01*
X100495146Y-114373842D01*
X100439000Y-114656104D01*
X99155517Y-114656104D01*
X99124690Y-114445768D01*
X99028207Y-114174631D01*
X98957889Y-114043071D01*
X98733287Y-113946318D01*
X97879605Y-114800000D01*
X97520395Y-114800000D01*
X96666713Y-113946318D01*
X96442111Y-114043071D01*
X96318612Y-114303017D01*
X96248199Y-114582062D01*
X96233577Y-114869482D01*
X94972719Y-114869482D01*
X94933718Y-114673413D01*
X94782125Y-114307434D01*
X94562045Y-113978062D01*
X94350696Y-113766713D01*
X96846318Y-113766713D01*
X97700000Y-114620395D01*
X98553682Y-113766713D01*
X98456929Y-113542111D01*
X98196983Y-113418612D01*
X97917938Y-113348199D01*
X97630518Y-113333577D01*
X97345768Y-113375310D01*
X97074631Y-113471793D01*
X96943071Y-113542111D01*
X96846318Y-113766713D01*
X94350696Y-113766713D01*
X94281938Y-113697955D01*
X93952566Y-113477875D01*
X93586587Y-113326282D01*
X93198066Y-113249000D01*
X92801934Y-113249000D01*
X92413413Y-113326282D01*
X92047434Y-113477875D01*
X91718062Y-113697955D01*
X91437955Y-113978062D01*
X91217875Y-114307434D01*
X91066282Y-114673413D01*
X90989000Y-115061934D01*
X90536000Y-115061934D01*
X90536000Y-110536000D01*
X151064000Y-110536000D01*
X151064001Y-137864000D01*
%TA.AperFunction,Conductor*%
D16*
G36*
X151064001Y-137864000D02*
G01*
X90536000Y-137864000D01*
X90536000Y-136533287D01*
X126646318Y-136533287D01*
X126743071Y-136757889D01*
X127003017Y-136881388D01*
X127282062Y-136951801D01*
X127569482Y-136966423D01*
X127854232Y-136924690D01*
X128125369Y-136828207D01*
X128256929Y-136757889D01*
X128353682Y-136533287D01*
X127500000Y-135679605D01*
X126646318Y-136533287D01*
X90536000Y-136533287D01*
X90536000Y-135358126D01*
X105921479Y-135358126D01*
X106039363Y-135600630D01*
X106329149Y-135741619D01*
X106640873Y-135823365D01*
X106962555Y-135842726D01*
X107281833Y-135798958D01*
X107586437Y-135693743D01*
X107760637Y-135600630D01*
X107878521Y-135358126D01*
X106900000Y-134379605D01*
X105921479Y-135358126D01*
X90536000Y-135358126D01*
X90536000Y-134262555D01*
X105257274Y-134262555D01*
X105301042Y-134581833D01*
X105406257Y-134886437D01*
X105499370Y-135060637D01*
X105741874Y-135178521D01*
X106720395Y-134200000D01*
X107079605Y-134200000D01*
X108058126Y-135178521D01*
X108236938Y-135091599D01*
X108262473Y-135117134D01*
X108357860Y-135021748D01*
X108418724Y-135216124D01*
X108628129Y-135310001D01*
X108851825Y-135361221D01*
X109081215Y-135367817D01*
X109307485Y-135329533D01*
X109521937Y-135247842D01*
X109581276Y-135216124D01*
X109642141Y-135021746D01*
X109000000Y-134379605D01*
X108985858Y-134393748D01*
X108806253Y-134214143D01*
X108820395Y-134200000D01*
X109179605Y-134200000D01*
X109821746Y-134842141D01*
X109992256Y-134788750D01*
X110095085Y-134942644D01*
X110257356Y-135104915D01*
X110448166Y-135232410D01*
X110660182Y-135320230D01*
X110885258Y-135365000D01*
X111114742Y-135365000D01*
X111339818Y-135320230D01*
X111551834Y-135232410D01*
X111742644Y-135104915D01*
X111904915Y-134942644D01*
X112000000Y-134800339D01*
X112095085Y-134942644D01*
X112257356Y-135104915D01*
X112448166Y-135232410D01*
X112660182Y-135320230D01*
X112885258Y-135365000D01*
X113114742Y-135365000D01*
X113149300Y-135358126D01*
X114121479Y-135358126D01*
X114239363Y-135600630D01*
X114529149Y-135741619D01*
X114840873Y-135823365D01*
X115162555Y-135842726D01*
X115481833Y-135798958D01*
X115786437Y-135693743D01*
X115960637Y-135600630D01*
X115975778Y-135569482D01*
X126033577Y-135569482D01*
X126075310Y-135854232D01*
X126171793Y-136125369D01*
X126242111Y-136256929D01*
X126466713Y-136353682D01*
X127320395Y-135500000D01*
X127679605Y-135500000D01*
X128533287Y-136353682D01*
X128757889Y-136256929D01*
X128881388Y-135996983D01*
X128951801Y-135717938D01*
X128966423Y-135430518D01*
X128955517Y-135356104D01*
X130239000Y-135356104D01*
X130239000Y-135643896D01*
X130295146Y-135926158D01*
X130405279Y-136192043D01*
X130565167Y-136431333D01*
X130768667Y-136634833D01*
X131007957Y-136794721D01*
X131273842Y-136904854D01*
X131556104Y-136961000D01*
X131843896Y-136961000D01*
X132126158Y-136904854D01*
X132392043Y-136794721D01*
X132631333Y-136634833D01*
X132834833Y-136431333D01*
X132994721Y-136192043D01*
X133104854Y-135926158D01*
X133161000Y-135643896D01*
X133161000Y-135356104D01*
X134439000Y-135356104D01*
X134439000Y-135643896D01*
X134495146Y-135926158D01*
X134605279Y-136192043D01*
X134765167Y-136431333D01*
X134968667Y-136634833D01*
X135207957Y-136794721D01*
X135473842Y-136904854D01*
X135756104Y-136961000D01*
X136043896Y-136961000D01*
X136326158Y-136904854D01*
X136592043Y-136794721D01*
X136831333Y-136634833D01*
X137034833Y-136431333D01*
X137194721Y-136192043D01*
X137304854Y-135926158D01*
X137361000Y-135643896D01*
X137361000Y-135356104D01*
X138639000Y-135356104D01*
X138639000Y-135643896D01*
X138695146Y-135926158D01*
X138805279Y-136192043D01*
X138965167Y-136431333D01*
X139168667Y-136634833D01*
X139407957Y-136794721D01*
X139673842Y-136904854D01*
X139956104Y-136961000D01*
X140243896Y-136961000D01*
X140526158Y-136904854D01*
X140792043Y-136794721D01*
X141031333Y-136634833D01*
X141234833Y-136431333D01*
X141394721Y-136192043D01*
X141504854Y-135926158D01*
X141561000Y-135643896D01*
X141561000Y-135356104D01*
X141504854Y-135073842D01*
X141394721Y-134807957D01*
X141234833Y-134568667D01*
X141216166Y-134550000D01*
X142836528Y-134550000D01*
X142836528Y-136450000D01*
X142846394Y-136550173D01*
X142875614Y-136646497D01*
X142923064Y-136735270D01*
X142986920Y-136813080D01*
X143064730Y-136876936D01*
X143153503Y-136924386D01*
X143249827Y-136953606D01*
X143350000Y-136963472D01*
X145250000Y-136963472D01*
X145350173Y-136953606D01*
X145446497Y-136924386D01*
X145535270Y-136876936D01*
X145613080Y-136813080D01*
X145676936Y-136735270D01*
X145724386Y-136646497D01*
X145753606Y-136550173D01*
X145763472Y-136450000D01*
X145763472Y-134550000D01*
X145753606Y-134449827D01*
X145724386Y-134353503D01*
X145676936Y-134264730D01*
X145613080Y-134186920D01*
X145535270Y-134123064D01*
X145446497Y-134075614D01*
X145350173Y-134046394D01*
X145250000Y-134036528D01*
X143350000Y-134036528D01*
X143249827Y-134046394D01*
X143153503Y-134075614D01*
X143064730Y-134123064D01*
X142986920Y-134186920D01*
X142923064Y-134264730D01*
X142875614Y-134353503D01*
X142846394Y-134449827D01*
X142836528Y-134550000D01*
X141216166Y-134550000D01*
X141031333Y-134365167D01*
X140792043Y-134205279D01*
X140526158Y-134095146D01*
X140243896Y-134039000D01*
X139956104Y-134039000D01*
X139673842Y-134095146D01*
X139407957Y-134205279D01*
X139168667Y-134365167D01*
X138965167Y-134568667D01*
X138805279Y-134807957D01*
X138695146Y-135073842D01*
X138639000Y-135356104D01*
X137361000Y-135356104D01*
X137304854Y-135073842D01*
X137194721Y-134807957D01*
X137034833Y-134568667D01*
X136831333Y-134365167D01*
X136592043Y-134205279D01*
X136326158Y-134095146D01*
X136043896Y-134039000D01*
X135756104Y-134039000D01*
X135473842Y-134095146D01*
X135207957Y-134205279D01*
X134968667Y-134365167D01*
X134765167Y-134568667D01*
X134605279Y-134807957D01*
X134495146Y-135073842D01*
X134439000Y-135356104D01*
X133161000Y-135356104D01*
X133104854Y-135073842D01*
X132994721Y-134807957D01*
X132834833Y-134568667D01*
X132631333Y-134365167D01*
X132392043Y-134205279D01*
X132126158Y-134095146D01*
X131843896Y-134039000D01*
X131556104Y-134039000D01*
X131273842Y-134095146D01*
X131007957Y-134205279D01*
X130768667Y-134365167D01*
X130565167Y-134568667D01*
X130405279Y-134807957D01*
X130295146Y-135073842D01*
X130239000Y-135356104D01*
X128955517Y-135356104D01*
X128924690Y-135145768D01*
X128828207Y-134874631D01*
X128757889Y-134743071D01*
X128533287Y-134646318D01*
X127679605Y-135500000D01*
X127320395Y-135500000D01*
X126466713Y-134646318D01*
X126242111Y-134743071D01*
X126118612Y-135003017D01*
X126048199Y-135282062D01*
X126033577Y-135569482D01*
X115975778Y-135569482D01*
X116078521Y-135358126D01*
X115100000Y-134379605D01*
X114121479Y-135358126D01*
X113149300Y-135358126D01*
X113339818Y-135320230D01*
X113551834Y-135232410D01*
X113742644Y-135104915D01*
X113758283Y-135089276D01*
X113941874Y-135178521D01*
X114920395Y-134200000D01*
X115279605Y-134200000D01*
X116258126Y-135178521D01*
X116500630Y-135060637D01*
X116641619Y-134770851D01*
X116721375Y-134466713D01*
X126646318Y-134466713D01*
X127500000Y-135320395D01*
X128353682Y-134466713D01*
X128256929Y-134242111D01*
X127996983Y-134118612D01*
X127717938Y-134048199D01*
X127430518Y-134033577D01*
X127145768Y-134075310D01*
X126874631Y-134171793D01*
X126743071Y-134242111D01*
X126646318Y-134466713D01*
X116721375Y-134466713D01*
X116723365Y-134459127D01*
X116742726Y-134137445D01*
X116698958Y-133818167D01*
X116593743Y-133513563D01*
X116500630Y-133339363D01*
X116258126Y-133221479D01*
X115279605Y-134200000D01*
X114920395Y-134200000D01*
X113941874Y-133221479D01*
X113758283Y-133310724D01*
X113742644Y-133295085D01*
X113551834Y-133167590D01*
X113339818Y-133079770D01*
X113149301Y-133041874D01*
X114121479Y-133041874D01*
X115100000Y-134020395D01*
X116078521Y-133041874D01*
X115960637Y-132799370D01*
X115670851Y-132658381D01*
X115359127Y-132576635D01*
X115037445Y-132557274D01*
X114718167Y-132601042D01*
X114413563Y-132706257D01*
X114239363Y-132799370D01*
X114121479Y-133041874D01*
X113149301Y-133041874D01*
X113114742Y-133035000D01*
X112885258Y-133035000D01*
X112660182Y-133079770D01*
X112448166Y-133167590D01*
X112257356Y-133295085D01*
X112095085Y-133457356D01*
X112000000Y-133599661D01*
X111904915Y-133457356D01*
X111742644Y-133295085D01*
X111551834Y-133167590D01*
X111339818Y-133079770D01*
X111114742Y-133035000D01*
X110885258Y-133035000D01*
X110660182Y-133079770D01*
X110448166Y-133167590D01*
X110257356Y-133295085D01*
X110095085Y-133457356D01*
X109992256Y-133611250D01*
X109821746Y-133557859D01*
X109179605Y-134200000D01*
X108820395Y-134200000D01*
X108806253Y-134185858D01*
X108985858Y-134006253D01*
X109000000Y-134020395D01*
X109642141Y-133378254D01*
X109581276Y-133183876D01*
X109371871Y-133089999D01*
X109148175Y-133038779D01*
X108918785Y-133032183D01*
X108692515Y-133070467D01*
X108478063Y-133152158D01*
X108418724Y-133183876D01*
X108357860Y-133378252D01*
X108262473Y-133282866D01*
X108236938Y-133308401D01*
X108058126Y-133221479D01*
X107079605Y-134200000D01*
X106720395Y-134200000D01*
X105741874Y-133221479D01*
X105499370Y-133339363D01*
X105358381Y-133629149D01*
X105276635Y-133940873D01*
X105257274Y-134262555D01*
X90536000Y-134262555D01*
X90536000Y-133041874D01*
X105921479Y-133041874D01*
X106900000Y-134020395D01*
X107878521Y-133041874D01*
X107760637Y-132799370D01*
X107470851Y-132658381D01*
X107159127Y-132576635D01*
X106837445Y-132557274D01*
X106518167Y-132601042D01*
X106213563Y-132706257D01*
X106039363Y-132799370D01*
X105921479Y-133041874D01*
X90536000Y-133041874D01*
X90536000Y-129241934D01*
X120789000Y-129241934D01*
X120789000Y-129638066D01*
X120866282Y-130026587D01*
X121017875Y-130392566D01*
X121237955Y-130721938D01*
X121518062Y-131002045D01*
X121847434Y-131222125D01*
X122213413Y-131373718D01*
X122601934Y-131451000D01*
X122998066Y-131451000D01*
X123386587Y-131373718D01*
X123752566Y-131222125D01*
X124081938Y-131002045D01*
X124362045Y-130721938D01*
X124582125Y-130392566D01*
X124733718Y-130026587D01*
X124767629Y-129856104D01*
X126039000Y-129856104D01*
X126039000Y-130143896D01*
X126095146Y-130426158D01*
X126205279Y-130692043D01*
X126365167Y-130931333D01*
X126568667Y-131134833D01*
X126807957Y-131294721D01*
X127073842Y-131404854D01*
X127356104Y-131461000D01*
X127643896Y-131461000D01*
X127926158Y-131404854D01*
X128192043Y-131294721D01*
X128431333Y-131134833D01*
X128634833Y-130931333D01*
X128794721Y-130692043D01*
X128904854Y-130426158D01*
X128961000Y-130143896D01*
X128961000Y-129856104D01*
X130239000Y-129856104D01*
X130239000Y-130143896D01*
X130295146Y-130426158D01*
X130405279Y-130692043D01*
X130565167Y-130931333D01*
X130768667Y-131134833D01*
X131007957Y-131294721D01*
X131273842Y-131404854D01*
X131556104Y-131461000D01*
X131843896Y-131461000D01*
X132126158Y-131404854D01*
X132392043Y-131294721D01*
X132631333Y-131134833D01*
X132834833Y-130931333D01*
X132994721Y-130692043D01*
X133104854Y-130426158D01*
X133161000Y-130143896D01*
X133161000Y-129856104D01*
X134439000Y-129856104D01*
X134439000Y-130143896D01*
X134495146Y-130426158D01*
X134605279Y-130692043D01*
X134765167Y-130931333D01*
X134968667Y-131134833D01*
X135207957Y-131294721D01*
X135473842Y-131404854D01*
X135756104Y-131461000D01*
X136043896Y-131461000D01*
X136326158Y-131404854D01*
X136592043Y-131294721D01*
X136831333Y-131134833D01*
X136932879Y-131033287D01*
X139246318Y-131033287D01*
X139343071Y-131257889D01*
X139603017Y-131381388D01*
X139882062Y-131451801D01*
X140169482Y-131466423D01*
X140454232Y-131424690D01*
X140725369Y-131328207D01*
X140856929Y-131257889D01*
X140953682Y-131033287D01*
X143446318Y-131033287D01*
X143543071Y-131257889D01*
X143803017Y-131381388D01*
X144082062Y-131451801D01*
X144369482Y-131466423D01*
X144654232Y-131424690D01*
X144925369Y-131328207D01*
X145056929Y-131257889D01*
X145153682Y-131033287D01*
X144300000Y-130179605D01*
X143446318Y-131033287D01*
X140953682Y-131033287D01*
X140100000Y-130179605D01*
X139246318Y-131033287D01*
X136932879Y-131033287D01*
X137034833Y-130931333D01*
X137194721Y-130692043D01*
X137304854Y-130426158D01*
X137361000Y-130143896D01*
X137361000Y-130069482D01*
X138633577Y-130069482D01*
X138675310Y-130354232D01*
X138771793Y-130625369D01*
X138842111Y-130756929D01*
X139066713Y-130853682D01*
X139920395Y-130000000D01*
X140279605Y-130000000D01*
X141133287Y-130853682D01*
X141357889Y-130756929D01*
X141481388Y-130496983D01*
X141551801Y-130217938D01*
X141559353Y-130069482D01*
X142833577Y-130069482D01*
X142875310Y-130354232D01*
X142971793Y-130625369D01*
X143042111Y-130756929D01*
X143266713Y-130853682D01*
X144120395Y-130000000D01*
X144479605Y-130000000D01*
X145333287Y-130853682D01*
X145557889Y-130756929D01*
X145681388Y-130496983D01*
X145751801Y-130217938D01*
X145766423Y-129930518D01*
X145724690Y-129645768D01*
X145628207Y-129374631D01*
X145557889Y-129243071D01*
X145555250Y-129241934D01*
X146989000Y-129241934D01*
X146989000Y-129638066D01*
X147066282Y-130026587D01*
X147217875Y-130392566D01*
X147437955Y-130721938D01*
X147718062Y-131002045D01*
X148047434Y-131222125D01*
X148413413Y-131373718D01*
X148801934Y-131451000D01*
X149198066Y-131451000D01*
X149586587Y-131373718D01*
X149952566Y-131222125D01*
X150281938Y-131002045D01*
X150562045Y-130721938D01*
X150782125Y-130392566D01*
X150933718Y-130026587D01*
X151011000Y-129638066D01*
X151011000Y-129241934D01*
X150933718Y-128853413D01*
X150782125Y-128487434D01*
X150562045Y-128158062D01*
X150281938Y-127877955D01*
X149952566Y-127657875D01*
X149586587Y-127506282D01*
X149198066Y-127429000D01*
X148801934Y-127429000D01*
X148413413Y-127506282D01*
X148047434Y-127657875D01*
X147718062Y-127877955D01*
X147437955Y-128158062D01*
X147217875Y-128487434D01*
X147066282Y-128853413D01*
X146989000Y-129241934D01*
X145555250Y-129241934D01*
X145333287Y-129146318D01*
X144479605Y-130000000D01*
X144120395Y-130000000D01*
X143266713Y-129146318D01*
X143042111Y-129243071D01*
X142918612Y-129503017D01*
X142848199Y-129782062D01*
X142833577Y-130069482D01*
X141559353Y-130069482D01*
X141566423Y-129930518D01*
X141524690Y-129645768D01*
X141428207Y-129374631D01*
X141357889Y-129243071D01*
X141133287Y-129146318D01*
X140279605Y-130000000D01*
X139920395Y-130000000D01*
X139066713Y-129146318D01*
X138842111Y-129243071D01*
X138718612Y-129503017D01*
X138648199Y-129782062D01*
X138633577Y-130069482D01*
X137361000Y-130069482D01*
X137361000Y-129856104D01*
X137304854Y-129573842D01*
X137194721Y-129307957D01*
X137034833Y-129068667D01*
X136932879Y-128966713D01*
X139246318Y-128966713D01*
X140100000Y-129820395D01*
X140953682Y-128966713D01*
X143446318Y-128966713D01*
X144300000Y-129820395D01*
X145153682Y-128966713D01*
X145056929Y-128742111D01*
X144796983Y-128618612D01*
X144517938Y-128548199D01*
X144230518Y-128533577D01*
X143945768Y-128575310D01*
X143674631Y-128671793D01*
X143543071Y-128742111D01*
X143446318Y-128966713D01*
X140953682Y-128966713D01*
X140856929Y-128742111D01*
X140596983Y-128618612D01*
X140317938Y-128548199D01*
X140030518Y-128533577D01*
X139745768Y-128575310D01*
X139474631Y-128671793D01*
X139343071Y-128742111D01*
X139246318Y-128966713D01*
X136932879Y-128966713D01*
X136831333Y-128865167D01*
X136592043Y-128705279D01*
X136326158Y-128595146D01*
X136043896Y-128539000D01*
X135756104Y-128539000D01*
X135473842Y-128595146D01*
X135207957Y-128705279D01*
X134968667Y-128865167D01*
X134765167Y-129068667D01*
X134605279Y-129307957D01*
X134495146Y-129573842D01*
X134439000Y-129856104D01*
X133161000Y-129856104D01*
X133104854Y-129573842D01*
X132994721Y-129307957D01*
X132834833Y-129068667D01*
X132631333Y-128865167D01*
X132392043Y-128705279D01*
X132126158Y-128595146D01*
X131843896Y-128539000D01*
X131556104Y-128539000D01*
X131273842Y-128595146D01*
X131007957Y-128705279D01*
X130768667Y-128865167D01*
X130565167Y-129068667D01*
X130405279Y-129307957D01*
X130295146Y-129573842D01*
X130239000Y-129856104D01*
X128961000Y-129856104D01*
X128904854Y-129573842D01*
X128794721Y-129307957D01*
X128634833Y-129068667D01*
X128431333Y-128865167D01*
X128192043Y-128705279D01*
X127926158Y-128595146D01*
X127643896Y-128539000D01*
X127356104Y-128539000D01*
X127073842Y-128595146D01*
X126807957Y-128705279D01*
X126568667Y-128865167D01*
X126365167Y-129068667D01*
X126205279Y-129307957D01*
X126095146Y-129573842D01*
X126039000Y-129856104D01*
X124767629Y-129856104D01*
X124811000Y-129638066D01*
X124811000Y-129241934D01*
X124733718Y-128853413D01*
X124582125Y-128487434D01*
X124362045Y-128158062D01*
X124081938Y-127877955D01*
X123752566Y-127657875D01*
X123386587Y-127506282D01*
X122998066Y-127429000D01*
X122601934Y-127429000D01*
X122213413Y-127506282D01*
X121847434Y-127657875D01*
X121518062Y-127877955D01*
X121237955Y-128158062D01*
X121017875Y-128487434D01*
X120866282Y-128853413D01*
X120789000Y-129241934D01*
X90536000Y-129241934D01*
X90536000Y-120156104D01*
X96239000Y-120156104D01*
X96239000Y-120443896D01*
X96295146Y-120726158D01*
X96405279Y-120992043D01*
X96565167Y-121231333D01*
X96768667Y-121434833D01*
X97007957Y-121594721D01*
X97273842Y-121704854D01*
X97556104Y-121761000D01*
X97843896Y-121761000D01*
X98126158Y-121704854D01*
X98392043Y-121594721D01*
X98631333Y-121434833D01*
X98834833Y-121231333D01*
X98994721Y-120992043D01*
X99104854Y-120726158D01*
X99161000Y-120443896D01*
X99161000Y-120156104D01*
X100439000Y-120156104D01*
X100439000Y-120443896D01*
X100495146Y-120726158D01*
X100605279Y-120992043D01*
X100765167Y-121231333D01*
X100968667Y-121434833D01*
X101207957Y-121594721D01*
X101473842Y-121704854D01*
X101756104Y-121761000D01*
X102043896Y-121761000D01*
X102326158Y-121704854D01*
X102592043Y-121594721D01*
X102831333Y-121434833D01*
X103034833Y-121231333D01*
X103194721Y-120992043D01*
X103304854Y-120726158D01*
X103361000Y-120443896D01*
X103361000Y-120156104D01*
X104639000Y-120156104D01*
X104639000Y-120443896D01*
X104695146Y-120726158D01*
X104805279Y-120992043D01*
X104965167Y-121231333D01*
X105168667Y-121434833D01*
X105407957Y-121594721D01*
X105673842Y-121704854D01*
X105956104Y-121761000D01*
X106243896Y-121761000D01*
X106526158Y-121704854D01*
X106792043Y-121594721D01*
X107031333Y-121434833D01*
X107234833Y-121231333D01*
X107394721Y-120992043D01*
X107504854Y-120726158D01*
X107561000Y-120443896D01*
X107561000Y-120156104D01*
X108839000Y-120156104D01*
X108839000Y-120443896D01*
X108895146Y-120726158D01*
X109005279Y-120992043D01*
X109165167Y-121231333D01*
X109368667Y-121434833D01*
X109607957Y-121594721D01*
X109873842Y-121704854D01*
X110156104Y-121761000D01*
X110443896Y-121761000D01*
X110726158Y-121704854D01*
X110992043Y-121594721D01*
X111231333Y-121434833D01*
X111434833Y-121231333D01*
X111594721Y-120992043D01*
X111704854Y-120726158D01*
X111761000Y-120443896D01*
X111761000Y-120156104D01*
X113039000Y-120156104D01*
X113039000Y-120443896D01*
X113095146Y-120726158D01*
X113205279Y-120992043D01*
X113365167Y-121231333D01*
X113568667Y-121434833D01*
X113807957Y-121594721D01*
X114073842Y-121704854D01*
X114356104Y-121761000D01*
X114643896Y-121761000D01*
X114926158Y-121704854D01*
X115192043Y-121594721D01*
X115431333Y-121434833D01*
X115532879Y-121333287D01*
X117846318Y-121333287D01*
X117943071Y-121557889D01*
X118203017Y-121681388D01*
X118482062Y-121751801D01*
X118769482Y-121766423D01*
X119054232Y-121724690D01*
X119325369Y-121628207D01*
X119456929Y-121557889D01*
X119553682Y-121333287D01*
X118700000Y-120479605D01*
X117846318Y-121333287D01*
X115532879Y-121333287D01*
X115634833Y-121231333D01*
X115794721Y-120992043D01*
X115904854Y-120726158D01*
X115961000Y-120443896D01*
X115961000Y-120369482D01*
X117233577Y-120369482D01*
X117275310Y-120654232D01*
X117371793Y-120925369D01*
X117442111Y-121056929D01*
X117666713Y-121153682D01*
X118520395Y-120300000D01*
X118879605Y-120300000D01*
X119733287Y-121153682D01*
X119957889Y-121056929D01*
X120081388Y-120796983D01*
X120151801Y-120517938D01*
X120166423Y-120230518D01*
X120155517Y-120156104D01*
X121439000Y-120156104D01*
X121439000Y-120443896D01*
X121495146Y-120726158D01*
X121605279Y-120992043D01*
X121765167Y-121231333D01*
X121968667Y-121434833D01*
X122207957Y-121594721D01*
X122473842Y-121704854D01*
X122756104Y-121761000D01*
X123043896Y-121761000D01*
X123326158Y-121704854D01*
X123592043Y-121594721D01*
X123831333Y-121434833D01*
X123932879Y-121333287D01*
X126246318Y-121333287D01*
X126343071Y-121557889D01*
X126603017Y-121681388D01*
X126882062Y-121751801D01*
X127169482Y-121766423D01*
X127454232Y-121724690D01*
X127725369Y-121628207D01*
X127856929Y-121557889D01*
X127953682Y-121333287D01*
X127100000Y-120479605D01*
X126246318Y-121333287D01*
X123932879Y-121333287D01*
X124034833Y-121231333D01*
X124194721Y-120992043D01*
X124304854Y-120726158D01*
X124361000Y-120443896D01*
X124361000Y-120369482D01*
X125633577Y-120369482D01*
X125675310Y-120654232D01*
X125771793Y-120925369D01*
X125842111Y-121056929D01*
X126066713Y-121153682D01*
X126920395Y-120300000D01*
X127279605Y-120300000D01*
X128133287Y-121153682D01*
X128357889Y-121056929D01*
X128481388Y-120796983D01*
X128551801Y-120517938D01*
X128566423Y-120230518D01*
X128555517Y-120156104D01*
X129839000Y-120156104D01*
X129839000Y-120443896D01*
X129895146Y-120726158D01*
X130005279Y-120992043D01*
X130165167Y-121231333D01*
X130368667Y-121434833D01*
X130607957Y-121594721D01*
X130873842Y-121704854D01*
X131156104Y-121761000D01*
X131443896Y-121761000D01*
X131726158Y-121704854D01*
X131992043Y-121594721D01*
X132231333Y-121434833D01*
X132332879Y-121333287D01*
X134646318Y-121333287D01*
X134743071Y-121557889D01*
X135003017Y-121681388D01*
X135282062Y-121751801D01*
X135569482Y-121766423D01*
X135854232Y-121724690D01*
X136125369Y-121628207D01*
X136256929Y-121557889D01*
X136353682Y-121333287D01*
X135500000Y-120479605D01*
X134646318Y-121333287D01*
X132332879Y-121333287D01*
X132434833Y-121231333D01*
X132594721Y-120992043D01*
X132704854Y-120726158D01*
X132761000Y-120443896D01*
X132761000Y-120369482D01*
X134033577Y-120369482D01*
X134075310Y-120654232D01*
X134171793Y-120925369D01*
X134242111Y-121056929D01*
X134466713Y-121153682D01*
X135320395Y-120300000D01*
X135679605Y-120300000D01*
X136533287Y-121153682D01*
X136757889Y-121056929D01*
X136881388Y-120796983D01*
X136951801Y-120517938D01*
X136966423Y-120230518D01*
X136955517Y-120156104D01*
X138239000Y-120156104D01*
X138239000Y-120443896D01*
X138295146Y-120726158D01*
X138405279Y-120992043D01*
X138565167Y-121231333D01*
X138768667Y-121434833D01*
X139007957Y-121594721D01*
X139273842Y-121704854D01*
X139556104Y-121761000D01*
X139843896Y-121761000D01*
X140126158Y-121704854D01*
X140392043Y-121594721D01*
X140631333Y-121434833D01*
X140834833Y-121231333D01*
X140994721Y-120992043D01*
X141104854Y-120726158D01*
X141161000Y-120443896D01*
X141161000Y-120156104D01*
X141104854Y-119873842D01*
X140994721Y-119607957D01*
X140834833Y-119368667D01*
X140816166Y-119350000D01*
X142436528Y-119350000D01*
X142436528Y-121250000D01*
X142446394Y-121350173D01*
X142475614Y-121446497D01*
X142523064Y-121535270D01*
X142586920Y-121613080D01*
X142664730Y-121676936D01*
X142753503Y-121724386D01*
X142849827Y-121753606D01*
X142950000Y-121763472D01*
X144850000Y-121763472D01*
X144950173Y-121753606D01*
X145046497Y-121724386D01*
X145135270Y-121676936D01*
X145213080Y-121613080D01*
X145276936Y-121535270D01*
X145324386Y-121446497D01*
X145353606Y-121350173D01*
X145363472Y-121250000D01*
X145363472Y-119350000D01*
X145353606Y-119249827D01*
X145324386Y-119153503D01*
X145276936Y-119064730D01*
X145213080Y-118986920D01*
X145135270Y-118923064D01*
X145046497Y-118875614D01*
X144950173Y-118846394D01*
X144850000Y-118836528D01*
X142950000Y-118836528D01*
X142849827Y-118846394D01*
X142753503Y-118875614D01*
X142664730Y-118923064D01*
X142586920Y-118986920D01*
X142523064Y-119064730D01*
X142475614Y-119153503D01*
X142446394Y-119249827D01*
X142436528Y-119350000D01*
X140816166Y-119350000D01*
X140631333Y-119165167D01*
X140392043Y-119005279D01*
X140126158Y-118895146D01*
X139843896Y-118839000D01*
X139556104Y-118839000D01*
X139273842Y-118895146D01*
X139007957Y-119005279D01*
X138768667Y-119165167D01*
X138565167Y-119368667D01*
X138405279Y-119607957D01*
X138295146Y-119873842D01*
X138239000Y-120156104D01*
X136955517Y-120156104D01*
X136924690Y-119945768D01*
X136828207Y-119674631D01*
X136757889Y-119543071D01*
X136533287Y-119446318D01*
X135679605Y-120300000D01*
X135320395Y-120300000D01*
X134466713Y-119446318D01*
X134242111Y-119543071D01*
X134118612Y-119803017D01*
X134048199Y-120082062D01*
X134033577Y-120369482D01*
X132761000Y-120369482D01*
X132761000Y-120156104D01*
X132704854Y-119873842D01*
X132594721Y-119607957D01*
X132434833Y-119368667D01*
X132332879Y-119266713D01*
X134646318Y-119266713D01*
X135500000Y-120120395D01*
X136353682Y-119266713D01*
X136256929Y-119042111D01*
X135996983Y-118918612D01*
X135717938Y-118848199D01*
X135430518Y-118833577D01*
X135145768Y-118875310D01*
X134874631Y-118971793D01*
X134743071Y-119042111D01*
X134646318Y-119266713D01*
X132332879Y-119266713D01*
X132231333Y-119165167D01*
X131992043Y-119005279D01*
X131726158Y-118895146D01*
X131443896Y-118839000D01*
X131156104Y-118839000D01*
X130873842Y-118895146D01*
X130607957Y-119005279D01*
X130368667Y-119165167D01*
X130165167Y-119368667D01*
X130005279Y-119607957D01*
X129895146Y-119873842D01*
X129839000Y-120156104D01*
X128555517Y-120156104D01*
X128524690Y-119945768D01*
X128428207Y-119674631D01*
X128357889Y-119543071D01*
X128133287Y-119446318D01*
X127279605Y-120300000D01*
X126920395Y-120300000D01*
X126066713Y-119446318D01*
X125842111Y-119543071D01*
X125718612Y-119803017D01*
X125648199Y-120082062D01*
X125633577Y-120369482D01*
X124361000Y-120369482D01*
X124361000Y-120156104D01*
X124304854Y-119873842D01*
X124194721Y-119607957D01*
X124034833Y-119368667D01*
X123932879Y-119266713D01*
X126246318Y-119266713D01*
X127100000Y-120120395D01*
X127953682Y-119266713D01*
X127856929Y-119042111D01*
X127596983Y-118918612D01*
X127317938Y-118848199D01*
X127030518Y-118833577D01*
X126745768Y-118875310D01*
X126474631Y-118971793D01*
X126343071Y-119042111D01*
X126246318Y-119266713D01*
X123932879Y-119266713D01*
X123831333Y-119165167D01*
X123592043Y-119005279D01*
X123326158Y-118895146D01*
X123043896Y-118839000D01*
X122756104Y-118839000D01*
X122473842Y-118895146D01*
X122207957Y-119005279D01*
X121968667Y-119165167D01*
X121765167Y-119368667D01*
X121605279Y-119607957D01*
X121495146Y-119873842D01*
X121439000Y-120156104D01*
X120155517Y-120156104D01*
X120124690Y-119945768D01*
X120028207Y-119674631D01*
X119957889Y-119543071D01*
X119733287Y-119446318D01*
X118879605Y-120300000D01*
X118520395Y-120300000D01*
X117666713Y-119446318D01*
X117442111Y-119543071D01*
X117318612Y-119803017D01*
X117248199Y-120082062D01*
X117233577Y-120369482D01*
X115961000Y-120369482D01*
X115961000Y-120156104D01*
X115904854Y-119873842D01*
X115794721Y-119607957D01*
X115634833Y-119368667D01*
X115532879Y-119266713D01*
X117846318Y-119266713D01*
X118700000Y-120120395D01*
X119553682Y-119266713D01*
X119456929Y-119042111D01*
X119196983Y-118918612D01*
X118917938Y-118848199D01*
X118630518Y-118833577D01*
X118345768Y-118875310D01*
X118074631Y-118971793D01*
X117943071Y-119042111D01*
X117846318Y-119266713D01*
X115532879Y-119266713D01*
X115431333Y-119165167D01*
X115192043Y-119005279D01*
X114926158Y-118895146D01*
X114643896Y-118839000D01*
X114356104Y-118839000D01*
X114073842Y-118895146D01*
X113807957Y-119005279D01*
X113568667Y-119165167D01*
X113365167Y-119368667D01*
X113205279Y-119607957D01*
X113095146Y-119873842D01*
X113039000Y-120156104D01*
X111761000Y-120156104D01*
X111704854Y-119873842D01*
X111594721Y-119607957D01*
X111434833Y-119368667D01*
X111231333Y-119165167D01*
X110992043Y-119005279D01*
X110726158Y-118895146D01*
X110443896Y-118839000D01*
X110156104Y-118839000D01*
X109873842Y-118895146D01*
X109607957Y-119005279D01*
X109368667Y-119165167D01*
X109165167Y-119368667D01*
X109005279Y-119607957D01*
X108895146Y-119873842D01*
X108839000Y-120156104D01*
X107561000Y-120156104D01*
X107504854Y-119873842D01*
X107394721Y-119607957D01*
X107234833Y-119368667D01*
X107031333Y-119165167D01*
X106792043Y-119005279D01*
X106526158Y-118895146D01*
X106243896Y-118839000D01*
X105956104Y-118839000D01*
X105673842Y-118895146D01*
X105407957Y-119005279D01*
X105168667Y-119165167D01*
X104965167Y-119368667D01*
X104805279Y-119607957D01*
X104695146Y-119873842D01*
X104639000Y-120156104D01*
X103361000Y-120156104D01*
X103304854Y-119873842D01*
X103194721Y-119607957D01*
X103034833Y-119368667D01*
X102831333Y-119165167D01*
X102592043Y-119005279D01*
X102326158Y-118895146D01*
X102043896Y-118839000D01*
X101756104Y-118839000D01*
X101473842Y-118895146D01*
X101207957Y-119005279D01*
X100968667Y-119165167D01*
X100765167Y-119368667D01*
X100605279Y-119607957D01*
X100495146Y-119873842D01*
X100439000Y-120156104D01*
X99161000Y-120156104D01*
X99104854Y-119873842D01*
X98994721Y-119607957D01*
X98834833Y-119368667D01*
X98631333Y-119165167D01*
X98392043Y-119005279D01*
X98126158Y-118895146D01*
X97843896Y-118839000D01*
X97556104Y-118839000D01*
X97273842Y-118895146D01*
X97007957Y-119005279D01*
X96768667Y-119165167D01*
X96565167Y-119368667D01*
X96405279Y-119607957D01*
X96295146Y-119873842D01*
X96239000Y-120156104D01*
X90536000Y-120156104D01*
X90536000Y-115061934D01*
X90989000Y-115061934D01*
X90989000Y-115458066D01*
X91066282Y-115846587D01*
X91217875Y-116212566D01*
X91437955Y-116541938D01*
X91718062Y-116822045D01*
X92047434Y-117042125D01*
X92413413Y-117193718D01*
X92801934Y-117271000D01*
X93198066Y-117271000D01*
X93586587Y-117193718D01*
X93952566Y-117042125D01*
X94281938Y-116822045D01*
X94562045Y-116541938D01*
X94782125Y-116212566D01*
X94933718Y-115846587D01*
X94936363Y-115833287D01*
X96846318Y-115833287D01*
X96943071Y-116057889D01*
X97203017Y-116181388D01*
X97482062Y-116251801D01*
X97769482Y-116266423D01*
X98054232Y-116224690D01*
X98325369Y-116128207D01*
X98456929Y-116057889D01*
X98553682Y-115833287D01*
X97700000Y-114979605D01*
X96846318Y-115833287D01*
X94936363Y-115833287D01*
X95011000Y-115458066D01*
X95011000Y-115061934D01*
X94972719Y-114869482D01*
X96233577Y-114869482D01*
X96275310Y-115154232D01*
X96371793Y-115425369D01*
X96442111Y-115556929D01*
X96666713Y-115653682D01*
X97520395Y-114800000D01*
X97879605Y-114800000D01*
X98733287Y-115653682D01*
X98957889Y-115556929D01*
X99081388Y-115296983D01*
X99151801Y-115017938D01*
X99166423Y-114730518D01*
X99155517Y-114656104D01*
X100439000Y-114656104D01*
X100439000Y-114943896D01*
X100495146Y-115226158D01*
X100605279Y-115492043D01*
X100765167Y-115731333D01*
X100968667Y-115934833D01*
X101207957Y-116094721D01*
X101473842Y-116204854D01*
X101756104Y-116261000D01*
X102043896Y-116261000D01*
X102326158Y-116204854D01*
X102592043Y-116094721D01*
X102831333Y-115934833D01*
X103034833Y-115731333D01*
X103194721Y-115492043D01*
X103304854Y-115226158D01*
X103361000Y-114943896D01*
X103361000Y-114656104D01*
X104639000Y-114656104D01*
X104639000Y-114943896D01*
X104695146Y-115226158D01*
X104805279Y-115492043D01*
X104965167Y-115731333D01*
X105168667Y-115934833D01*
X105407957Y-116094721D01*
X105673842Y-116204854D01*
X105956104Y-116261000D01*
X106243896Y-116261000D01*
X106526158Y-116204854D01*
X106792043Y-116094721D01*
X107031333Y-115934833D01*
X107234833Y-115731333D01*
X107394721Y-115492043D01*
X107504854Y-115226158D01*
X107561000Y-114943896D01*
X107561000Y-114656104D01*
X108839000Y-114656104D01*
X108839000Y-114943896D01*
X108895146Y-115226158D01*
X109005279Y-115492043D01*
X109165167Y-115731333D01*
X109368667Y-115934833D01*
X109607957Y-116094721D01*
X109873842Y-116204854D01*
X110156104Y-116261000D01*
X110443896Y-116261000D01*
X110726158Y-116204854D01*
X110992043Y-116094721D01*
X111231333Y-115934833D01*
X111434833Y-115731333D01*
X111594721Y-115492043D01*
X111704854Y-115226158D01*
X111761000Y-114943896D01*
X111761000Y-114656104D01*
X113039000Y-114656104D01*
X113039000Y-114943896D01*
X113095146Y-115226158D01*
X113205279Y-115492043D01*
X113365167Y-115731333D01*
X113568667Y-115934833D01*
X113807957Y-116094721D01*
X114073842Y-116204854D01*
X114356104Y-116261000D01*
X114643896Y-116261000D01*
X114926158Y-116204854D01*
X115192043Y-116094721D01*
X115431333Y-115934833D01*
X115532879Y-115833287D01*
X117846318Y-115833287D01*
X117943071Y-116057889D01*
X118203017Y-116181388D01*
X118482062Y-116251801D01*
X118769482Y-116266423D01*
X119054232Y-116224690D01*
X119325369Y-116128207D01*
X119456929Y-116057889D01*
X119553682Y-115833287D01*
X122046318Y-115833287D01*
X122143071Y-116057889D01*
X122403017Y-116181388D01*
X122682062Y-116251801D01*
X122969482Y-116266423D01*
X123254232Y-116224690D01*
X123525369Y-116128207D01*
X123656929Y-116057889D01*
X123753682Y-115833287D01*
X126246318Y-115833287D01*
X126343071Y-116057889D01*
X126603017Y-116181388D01*
X126882062Y-116251801D01*
X127169482Y-116266423D01*
X127454232Y-116224690D01*
X127725369Y-116128207D01*
X127856929Y-116057889D01*
X127953682Y-115833287D01*
X127100000Y-114979605D01*
X126246318Y-115833287D01*
X123753682Y-115833287D01*
X122900000Y-114979605D01*
X122046318Y-115833287D01*
X119553682Y-115833287D01*
X118700000Y-114979605D01*
X117846318Y-115833287D01*
X115532879Y-115833287D01*
X115634833Y-115731333D01*
X115794721Y-115492043D01*
X115904854Y-115226158D01*
X115961000Y-114943896D01*
X115961000Y-114869482D01*
X117233577Y-114869482D01*
X117275310Y-115154232D01*
X117371793Y-115425369D01*
X117442111Y-115556929D01*
X117666713Y-115653682D01*
X118520395Y-114800000D01*
X118879605Y-114800000D01*
X119733287Y-115653682D01*
X119957889Y-115556929D01*
X120081388Y-115296983D01*
X120151801Y-115017938D01*
X120159353Y-114869482D01*
X121433577Y-114869482D01*
X121475310Y-115154232D01*
X121571793Y-115425369D01*
X121642111Y-115556929D01*
X121866713Y-115653682D01*
X122720395Y-114800000D01*
X123079605Y-114800000D01*
X123933287Y-115653682D01*
X124157889Y-115556929D01*
X124281388Y-115296983D01*
X124351801Y-115017938D01*
X124359353Y-114869482D01*
X125633577Y-114869482D01*
X125675310Y-115154232D01*
X125771793Y-115425369D01*
X125842111Y-115556929D01*
X126066713Y-115653682D01*
X126920395Y-114800000D01*
X127279605Y-114800000D01*
X128133287Y-115653682D01*
X128357889Y-115556929D01*
X128481388Y-115296983D01*
X128551801Y-115017938D01*
X128566423Y-114730518D01*
X128555517Y-114656104D01*
X129839000Y-114656104D01*
X129839000Y-114943896D01*
X129895146Y-115226158D01*
X130005279Y-115492043D01*
X130165167Y-115731333D01*
X130368667Y-115934833D01*
X130607957Y-116094721D01*
X130873842Y-116204854D01*
X131156104Y-116261000D01*
X131443896Y-116261000D01*
X131726158Y-116204854D01*
X131992043Y-116094721D01*
X132231333Y-115934833D01*
X132332879Y-115833287D01*
X134646318Y-115833287D01*
X134743071Y-116057889D01*
X135003017Y-116181388D01*
X135282062Y-116251801D01*
X135569482Y-116266423D01*
X135854232Y-116224690D01*
X136125369Y-116128207D01*
X136256929Y-116057889D01*
X136353682Y-115833287D01*
X135500000Y-114979605D01*
X134646318Y-115833287D01*
X132332879Y-115833287D01*
X132434833Y-115731333D01*
X132594721Y-115492043D01*
X132704854Y-115226158D01*
X132761000Y-114943896D01*
X132761000Y-114869482D01*
X134033577Y-114869482D01*
X134075310Y-115154232D01*
X134171793Y-115425369D01*
X134242111Y-115556929D01*
X134466713Y-115653682D01*
X135320395Y-114800000D01*
X135679605Y-114800000D01*
X136533287Y-115653682D01*
X136757889Y-115556929D01*
X136881388Y-115296983D01*
X136951801Y-115017938D01*
X136966423Y-114730518D01*
X136955517Y-114656104D01*
X138239000Y-114656104D01*
X138239000Y-114943896D01*
X138295146Y-115226158D01*
X138405279Y-115492043D01*
X138565167Y-115731333D01*
X138768667Y-115934833D01*
X139007957Y-116094721D01*
X139273842Y-116204854D01*
X139556104Y-116261000D01*
X139843896Y-116261000D01*
X140126158Y-116204854D01*
X140392043Y-116094721D01*
X140631333Y-115934833D01*
X140834833Y-115731333D01*
X140994721Y-115492043D01*
X141104854Y-115226158D01*
X141161000Y-114943896D01*
X141161000Y-114656104D01*
X142439000Y-114656104D01*
X142439000Y-114943896D01*
X142495146Y-115226158D01*
X142605279Y-115492043D01*
X142765167Y-115731333D01*
X142968667Y-115934833D01*
X143207957Y-116094721D01*
X143473842Y-116204854D01*
X143756104Y-116261000D01*
X144043896Y-116261000D01*
X144326158Y-116204854D01*
X144592043Y-116094721D01*
X144831333Y-115934833D01*
X145034833Y-115731333D01*
X145194721Y-115492043D01*
X145304854Y-115226158D01*
X145337520Y-115061934D01*
X146589000Y-115061934D01*
X146589000Y-115458066D01*
X146666282Y-115846587D01*
X146817875Y-116212566D01*
X147037955Y-116541938D01*
X147318062Y-116822045D01*
X147647434Y-117042125D01*
X148013413Y-117193718D01*
X148401934Y-117271000D01*
X148798066Y-117271000D01*
X149186587Y-117193718D01*
X149552566Y-117042125D01*
X149881938Y-116822045D01*
X150162045Y-116541938D01*
X150382125Y-116212566D01*
X150533718Y-115846587D01*
X150611000Y-115458066D01*
X150611000Y-115061934D01*
X150533718Y-114673413D01*
X150382125Y-114307434D01*
X150162045Y-113978062D01*
X149881938Y-113697955D01*
X149552566Y-113477875D01*
X149186587Y-113326282D01*
X148798066Y-113249000D01*
X148401934Y-113249000D01*
X148013413Y-113326282D01*
X147647434Y-113477875D01*
X147318062Y-113697955D01*
X147037955Y-113978062D01*
X146817875Y-114307434D01*
X146666282Y-114673413D01*
X146589000Y-115061934D01*
X145337520Y-115061934D01*
X145361000Y-114943896D01*
X145361000Y-114656104D01*
X145304854Y-114373842D01*
X145194721Y-114107957D01*
X145034833Y-113868667D01*
X144831333Y-113665167D01*
X144592043Y-113505279D01*
X144326158Y-113395146D01*
X144043896Y-113339000D01*
X143756104Y-113339000D01*
X143473842Y-113395146D01*
X143207957Y-113505279D01*
X142968667Y-113665167D01*
X142765167Y-113868667D01*
X142605279Y-114107957D01*
X142495146Y-114373842D01*
X142439000Y-114656104D01*
X141161000Y-114656104D01*
X141104854Y-114373842D01*
X140994721Y-114107957D01*
X140834833Y-113868667D01*
X140631333Y-113665167D01*
X140392043Y-113505279D01*
X140126158Y-113395146D01*
X139843896Y-113339000D01*
X139556104Y-113339000D01*
X139273842Y-113395146D01*
X139007957Y-113505279D01*
X138768667Y-113665167D01*
X138565167Y-113868667D01*
X138405279Y-114107957D01*
X138295146Y-114373842D01*
X138239000Y-114656104D01*
X136955517Y-114656104D01*
X136924690Y-114445768D01*
X136828207Y-114174631D01*
X136757889Y-114043071D01*
X136533287Y-113946318D01*
X135679605Y-114800000D01*
X135320395Y-114800000D01*
X134466713Y-113946318D01*
X134242111Y-114043071D01*
X134118612Y-114303017D01*
X134048199Y-114582062D01*
X134033577Y-114869482D01*
X132761000Y-114869482D01*
X132761000Y-114656104D01*
X132704854Y-114373842D01*
X132594721Y-114107957D01*
X132434833Y-113868667D01*
X132332879Y-113766713D01*
X134646318Y-113766713D01*
X135500000Y-114620395D01*
X136353682Y-113766713D01*
X136256929Y-113542111D01*
X135996983Y-113418612D01*
X135717938Y-113348199D01*
X135430518Y-113333577D01*
X135145768Y-113375310D01*
X134874631Y-113471793D01*
X134743071Y-113542111D01*
X134646318Y-113766713D01*
X132332879Y-113766713D01*
X132231333Y-113665167D01*
X131992043Y-113505279D01*
X131726158Y-113395146D01*
X131443896Y-113339000D01*
X131156104Y-113339000D01*
X130873842Y-113395146D01*
X130607957Y-113505279D01*
X130368667Y-113665167D01*
X130165167Y-113868667D01*
X130005279Y-114107957D01*
X129895146Y-114373842D01*
X129839000Y-114656104D01*
X128555517Y-114656104D01*
X128524690Y-114445768D01*
X128428207Y-114174631D01*
X128357889Y-114043071D01*
X128133287Y-113946318D01*
X127279605Y-114800000D01*
X126920395Y-114800000D01*
X126066713Y-113946318D01*
X125842111Y-114043071D01*
X125718612Y-114303017D01*
X125648199Y-114582062D01*
X125633577Y-114869482D01*
X124359353Y-114869482D01*
X124366423Y-114730518D01*
X124324690Y-114445768D01*
X124228207Y-114174631D01*
X124157889Y-114043071D01*
X123933287Y-113946318D01*
X123079605Y-114800000D01*
X122720395Y-114800000D01*
X121866713Y-113946318D01*
X121642111Y-114043071D01*
X121518612Y-114303017D01*
X121448199Y-114582062D01*
X121433577Y-114869482D01*
X120159353Y-114869482D01*
X120166423Y-114730518D01*
X120124690Y-114445768D01*
X120028207Y-114174631D01*
X119957889Y-114043071D01*
X119733287Y-113946318D01*
X118879605Y-114800000D01*
X118520395Y-114800000D01*
X117666713Y-113946318D01*
X117442111Y-114043071D01*
X117318612Y-114303017D01*
X117248199Y-114582062D01*
X117233577Y-114869482D01*
X115961000Y-114869482D01*
X115961000Y-114656104D01*
X115904854Y-114373842D01*
X115794721Y-114107957D01*
X115634833Y-113868667D01*
X115532879Y-113766713D01*
X117846318Y-113766713D01*
X118700000Y-114620395D01*
X119553682Y-113766713D01*
X122046318Y-113766713D01*
X122900000Y-114620395D01*
X123753682Y-113766713D01*
X126246318Y-113766713D01*
X127100000Y-114620395D01*
X127953682Y-113766713D01*
X127856929Y-113542111D01*
X127596983Y-113418612D01*
X127317938Y-113348199D01*
X127030518Y-113333577D01*
X126745768Y-113375310D01*
X126474631Y-113471793D01*
X126343071Y-113542111D01*
X126246318Y-113766713D01*
X123753682Y-113766713D01*
X123656929Y-113542111D01*
X123396983Y-113418612D01*
X123117938Y-113348199D01*
X122830518Y-113333577D01*
X122545768Y-113375310D01*
X122274631Y-113471793D01*
X122143071Y-113542111D01*
X122046318Y-113766713D01*
X119553682Y-113766713D01*
X119456929Y-113542111D01*
X119196983Y-113418612D01*
X118917938Y-113348199D01*
X118630518Y-113333577D01*
X118345768Y-113375310D01*
X118074631Y-113471793D01*
X117943071Y-113542111D01*
X117846318Y-113766713D01*
X115532879Y-113766713D01*
X115431333Y-113665167D01*
X115192043Y-113505279D01*
X114926158Y-113395146D01*
X114643896Y-113339000D01*
X114356104Y-113339000D01*
X114073842Y-113395146D01*
X113807957Y-113505279D01*
X113568667Y-113665167D01*
X113365167Y-113868667D01*
X113205279Y-114107957D01*
X113095146Y-114373842D01*
X113039000Y-114656104D01*
X111761000Y-114656104D01*
X111704854Y-114373842D01*
X111594721Y-114107957D01*
X111434833Y-113868667D01*
X111231333Y-113665167D01*
X110992043Y-113505279D01*
X110726158Y-113395146D01*
X110443896Y-113339000D01*
X110156104Y-113339000D01*
X109873842Y-113395146D01*
X109607957Y-113505279D01*
X109368667Y-113665167D01*
X109165167Y-113868667D01*
X109005279Y-114107957D01*
X108895146Y-114373842D01*
X108839000Y-114656104D01*
X107561000Y-114656104D01*
X107504854Y-114373842D01*
X107394721Y-114107957D01*
X107234833Y-113868667D01*
X107031333Y-113665167D01*
X106792043Y-113505279D01*
X106526158Y-113395146D01*
X106243896Y-113339000D01*
X105956104Y-113339000D01*
X105673842Y-113395146D01*
X105407957Y-113505279D01*
X105168667Y-113665167D01*
X104965167Y-113868667D01*
X104805279Y-114107957D01*
X104695146Y-114373842D01*
X104639000Y-114656104D01*
X103361000Y-114656104D01*
X103304854Y-114373842D01*
X103194721Y-114107957D01*
X103034833Y-113868667D01*
X102831333Y-113665167D01*
X102592043Y-113505279D01*
X102326158Y-113395146D01*
X102043896Y-113339000D01*
X101756104Y-113339000D01*
X101473842Y-113395146D01*
X101207957Y-113505279D01*
X100968667Y-113665167D01*
X100765167Y-113868667D01*
X100605279Y-114107957D01*
X100495146Y-114373842D01*
X100439000Y-114656104D01*
X99155517Y-114656104D01*
X99124690Y-114445768D01*
X99028207Y-114174631D01*
X98957889Y-114043071D01*
X98733287Y-113946318D01*
X97879605Y-114800000D01*
X97520395Y-114800000D01*
X96666713Y-113946318D01*
X96442111Y-114043071D01*
X96318612Y-114303017D01*
X96248199Y-114582062D01*
X96233577Y-114869482D01*
X94972719Y-114869482D01*
X94933718Y-114673413D01*
X94782125Y-114307434D01*
X94562045Y-113978062D01*
X94350696Y-113766713D01*
X96846318Y-113766713D01*
X97700000Y-114620395D01*
X98553682Y-113766713D01*
X98456929Y-113542111D01*
X98196983Y-113418612D01*
X97917938Y-113348199D01*
X97630518Y-113333577D01*
X97345768Y-113375310D01*
X97074631Y-113471793D01*
X96943071Y-113542111D01*
X96846318Y-113766713D01*
X94350696Y-113766713D01*
X94281938Y-113697955D01*
X93952566Y-113477875D01*
X93586587Y-113326282D01*
X93198066Y-113249000D01*
X92801934Y-113249000D01*
X92413413Y-113326282D01*
X92047434Y-113477875D01*
X91718062Y-113697955D01*
X91437955Y-113978062D01*
X91217875Y-114307434D01*
X91066282Y-114673413D01*
X90989000Y-115061934D01*
X90536000Y-115061934D01*
X90536000Y-110536000D01*
X151064000Y-110536000D01*
X151064001Y-137864000D01*
G37*
%TD.AperFunction*%
%TD*%
M02*
