M48
; DRILL file {KiCad 5.1.9+dfsg1-1~bpo10+1} date Sun Feb 12 08:44:23 2023
; FORMAT={-:-/ absolute / inch / decimal}
; #@! TF.CreationDate,2023-02-12T08:44:23+01:00
; #@! TF.GenerationSoftware,Kicad,Pcbnew,5.1.9+dfsg1-1~bpo10+1
; #@! TF.FileFunction,Plated,1,4,PTH
FMAT,2
INCH
T1C0.0157
T2C0.0315
T3C0.0551
T4C0.0591
%
G90
G05
T1
X3.937Y-5.1969
X4.4488Y-4.9016
X4.685Y-5.1181
T2
X4.2913Y-5.2835
X4.3701Y-5.2835
X4.4488Y-5.2835
T3
X3.8465Y-4.5197
X3.8465Y-4.7362
X4.0118Y-4.5197
X4.0118Y-4.7362
X4.1772Y-4.5197
X4.1772Y-4.7362
X4.3425Y-4.5197
X4.3425Y-4.7362
X4.5079Y-4.5197
X4.5079Y-4.7362
X4.6732Y-4.5197
X4.6732Y-4.7362
X4.8386Y-4.5197
X4.8386Y-4.7362
X5.0039Y-4.5197
X5.0039Y-4.7362
X5.0197Y-5.1181
X5.0197Y-5.3346
X5.1693Y-4.5197
X5.1693Y-4.7362
X5.185Y-5.1181
X5.185Y-5.3346
X5.3346Y-4.5197
X5.3346Y-4.7362
X5.3504Y-5.1181
X5.3504Y-5.3346
X5.5Y-4.5197
X5.5Y-4.7362
X5.5157Y-5.1181
X5.5157Y-5.3346
X5.6654Y-4.5197
X5.6654Y-4.7362
X5.6811Y-5.1181
X5.6811Y-5.3346
T4
X4.2087Y-5.2835
X4.5315Y-5.2835
T0
M30
